<svg width="44" height="44" viewBox="0 0 44 44" fill="none" xmlns="http://www.w3.org/2000/svg">
<path d="M22 44C21.1716 44 20.5 43.3284 20.5 42.5C20.5 41.6716 21.1716 41 22 41C32.4934 41 41 32.4934 41 22C41 11.5066 32.4934 3 22 3C11.5066 3 3 11.5066 3 22C3 24.2083 3.37622 26.3631 4.10338 28.3971C4.38225 29.1772 3.97594 30.0357 3.19586 30.3145C2.41578 30.5934 1.55733 30.1871 1.27846 29.407C0.435853 27.05 0 24.5537 0 22C0 9.84974 9.84974 0 22 0C34.1503 0 44 9.84974 44 22C44 34.1503 34.1503 44 22 44Z" fill="#E1E1E3"/>
</svg>
