<svg width="24" height="24" viewBox="0 0 24 24" fill="none" xmlns="http://www.w3.org/2000/svg">
<path d="M11.8096 6.85756C13.072 6.85756 14.0954 5.83421 14.0954 4.57185C14.0954 3.30948 13.072 2.28613 11.8096 2.28613C10.5473 2.28613 9.52393 3.30948 9.52393 4.57185C9.52393 5.83421 10.5473 6.85756 11.8096 6.85756Z" fill="white"/>
<path d="M11.8096 14.4757C13.072 14.4757 14.0954 13.4524 14.0954 12.19C14.0954 10.9276 13.072 9.9043 11.8096 9.9043C10.5473 9.9043 9.52393 10.9276 9.52393 12.19C9.52393 13.4524 10.5473 14.4757 11.8096 14.4757Z" fill="white"/>
<path d="M11.8096 22.0949C13.072 22.0949 14.0954 21.0715 14.0954 19.8092C14.0954 18.5468 13.072 17.5234 11.8096 17.5234C10.5473 17.5234 9.52393 18.5468 9.52393 19.8092C9.52393 21.0715 10.5473 22.0949 11.8096 22.0949Z" fill="white"/>
</svg>
