<svg width="86" height="21" viewBox="0 0 86 21" fill="none" xmlns="http://www.w3.org/2000/svg">
<path d="M12.1663 10.8103C12.1663 9.8067 12.2823 8.77976 12.1431 7.77615C11.8649 5.69892 10.0099 4.20518 7.89991 4.20518C5.81308 4.20518 3.93493 5.69892 3.67988 7.75281C3.54075 8.87311 3.56394 10.0634 3.74944 11.1837C4.09724 13.1209 5.88264 14.4746 7.83035 14.4746C9.38388 14.4513 10.891 14.5913 12.2823 15.3149C13.6039 15.9684 14.6705 16.9253 15.4589 18.1623C16.2009 19.3526 15.5748 20.753 14.2068 20.9631C13.488 21.0564 12.9083 20.753 12.5141 20.1462C11.7953 19.0259 10.7983 18.349 9.49982 18.139C9.01289 18.0689 8.50277 18.0923 8.01585 18.0923C5.69715 18.0689 3.70306 17.2521 2.12635 15.5249C0.874246 14.1712 0.155449 12.5841 0.0627006 10.7403C-0.00686045 9.22321 -0.122796 7.68279 0.387319 6.21239C1.38436 3.29493 3.35526 1.42776 6.36957 0.844271C10.8215 -0.0426361 14.9024 2.82814 15.6907 7.3327C15.7603 7.70613 15.7835 8.1029 15.8067 8.49968C15.8299 10.0401 15.8299 11.5805 15.8067 13.1209C15.7835 14.5447 14.485 15.4316 13.2561 14.8481C12.6069 14.5446 12.2591 13.9845 12.2359 13.261C12.2359 12.4441 12.2359 11.6505 12.2359 10.8336C12.2127 10.8103 12.1895 10.8103 12.1663 10.8103Z" fill="white"/>
<path d="M70.1888 9.12137C70.096 7.30247 70.5134 5.52962 71.6495 3.96399C73.5739 1.31623 76.6808 0.303169 79.4399 0.809698C82.9178 1.43135 85.3524 4.14818 85.7929 7.11828C86.1175 9.32859 86.1871 11.5849 85.0509 13.6571C83.7293 16.0746 81.689 17.4791 78.9299 17.8245C77.2837 18.0317 75.7534 17.6863 74.3159 16.9265C73.5275 16.5121 73.1797 15.7062 73.4116 14.8774C73.6435 14.0715 74.3622 13.542 75.2665 13.6111C75.5215 13.6341 75.7998 13.7262 76.0548 13.8413C79.069 15.3379 82.4309 13.2657 82.4309 9.90419C82.4309 8.98323 82.5005 8.08529 82.1991 7.16433C81.689 5.57567 80.0428 4.03306 77.6778 4.19423C75.8925 4.30935 74.1536 5.78289 73.8521 7.57876C73.6435 8.84508 73.6435 10.1344 73.9681 11.4007C74.2927 12.6671 73.4116 13.7262 72.1132 13.6571C71.4176 13.6111 70.8148 13.1276 70.5829 12.4138C70.212 11.3777 70.1656 10.2956 70.1888 9.12137Z" fill="white"/>
<path d="M34.05 9.34503C34.1192 11.3276 33.6808 13.1257 32.4811 14.7164C31.1199 16.5145 29.2972 17.5519 27.0361 17.8285C23.2524 18.2896 19.3302 15.8229 18.5226 11.7656C17.992 9.02229 18.0612 6.27898 19.8377 3.85841C22.1449 0.746246 26.3671 -0.221982 29.8048 1.59921C30.7738 2.10637 31.1199 3.12071 30.6354 4.01978C30.1739 4.89579 29.1357 5.21853 28.1897 4.71137C25.7672 3.44345 22.9524 4.61916 22.0988 7.01667C21.9373 7.47773 21.845 7.9849 21.845 8.46901C21.845 9.41419 21.8219 10.3824 22.0296 11.2815C22.491 13.2179 24.4521 14.5089 26.5286 14.3475C28.4666 14.2092 30.1739 12.5725 30.3816 10.636C30.52 9.43724 30.4969 8.23848 30.197 7.03973C29.9432 6.0715 30.4969 5.17243 31.3967 4.91885C32.3196 4.66526 33.2425 5.14938 33.5655 6.09455C33.6808 6.4634 33.7962 6.83225 33.8423 7.2011C33.9808 7.91574 34.0038 8.63039 34.05 9.34503Z" fill="white"/>
<path d="M36.8648 12.1675C36.8648 10.7615 36.818 9.3325 36.8648 7.92652C37.0286 4.76881 39.2979 2.04903 42.3392 1.05792C46.8779 -0.394166 51.8142 2.53305 52.6096 7.1659C52.75 8.04176 52.2119 9.05592 51.2293 9.24031C50.2 9.44775 49.2876 8.82542 49.077 7.78822C48.7261 6.05955 47.6967 4.9071 45.9655 4.37697C43.4856 3.61635 40.7952 5.32198 40.4676 7.85737C40.4208 8.22615 40.3975 8.59494 40.3975 8.96372C40.3975 11.3147 40.3975 13.6657 40.3975 15.9937C40.3975 17.077 39.6488 17.8837 38.6194 17.8837C37.6368 17.8837 36.8414 17.1 36.818 16.0398C36.7946 14.8412 36.818 13.6427 36.818 12.4672C36.818 12.3519 36.818 12.2367 36.818 12.1445C36.8414 12.1675 36.8414 12.1675 36.8648 12.1675Z" fill="white"/>
<path d="M53.6641 2.48034C53.7333 1.60449 54.2638 0.936072 55.0942 0.728633C55.9016 0.544243 56.732 0.936073 57.1011 1.71973C57.77 3.1718 58.3929 4.64693 59.0387 6.099C60.3997 9.14144 61.7376 12.1839 63.0986 15.2494C63.6291 16.4479 63.0524 17.5773 61.8299 17.8539C61.0687 18.0152 60.2152 17.5081 59.8461 16.6553C59.1079 14.9728 58.3467 13.2902 57.6086 11.5846C56.4091 8.86485 55.2096 6.16814 54.0101 3.44839C53.8486 3.14876 53.7563 2.80302 53.6641 2.48034Z" fill="white"/>
<path d="M61.9204 10.5915C62.0133 10.3177 62.0598 10.0212 62.1759 9.7474C63.3607 7.12382 64.5455 4.50024 65.707 1.87666C66.0787 1.07817 66.7524 0.621899 67.5422 0.690341C68.2856 0.735968 68.9593 1.23787 69.0987 1.99072C69.1684 2.35574 69.1684 2.81202 69.029 3.13141C67.821 5.86906 66.5898 8.60671 65.3353 11.3444C64.9636 12.1428 64.1041 12.5307 63.2678 12.3254C62.5244 12.12 61.9901 11.4356 61.9204 10.5915Z" fill="white"/>
</svg>
