<svg width="56" height="48" viewBox="0 0 56 48" fill="none" xmlns="http://www.w3.org/2000/svg">
<path fill-rule="evenodd" clip-rule="evenodd" d="M38 31H18C14.1 31 11 27.9 11 24C11 20.1 14.1 17 18 17H38C41.9 17 45 20.1 45 24C45 27.9 41.9 31 38 31Z" fill="#001C3D" fill-opacity="0.08"/>
<g filter="url(#filter0_dd_139_10801)">
<path fill-rule="evenodd" clip-rule="evenodd" d="M18 34C23.5228 34 28 29.5228 28 24C28 18.4772 23.5228 14 18 14C12.4772 14 8 18.4772 8 24C8 29.5228 12.4772 34 18 34Z" fill="#F9F9F9"/>
</g>
<defs>
<filter id="filter0_dd_139_10801" x="7" y="13" width="22" height="23" filterUnits="userSpaceOnUse" color-interpolation-filters="sRGB">
<feFlood flood-opacity="0" result="BackgroundImageFix"/>
<feColorMatrix in="SourceAlpha" type="matrix" values="0 0 0 0 0 0 0 0 0 0 0 0 0 0 0 0 0 0 127 0" result="hardAlpha"/>
<feOffset dy="1"/>
<feGaussianBlur stdDeviation="0.5"/>
<feColorMatrix type="matrix" values="0 0 0 0 0 0 0 0 0 0 0 0 0 0 0 0 0 0 0.237602 0"/>
<feBlend mode="normal" in2="BackgroundImageFix" result="effect1_dropShadow_139_10801"/>
<feColorMatrix in="SourceAlpha" type="matrix" values="0 0 0 0 0 0 0 0 0 0 0 0 0 0 0 0 0 0 127 0" result="hardAlpha"/>
<feOffset/>
<feGaussianBlur stdDeviation="0.5"/>
<feColorMatrix type="matrix" values="0 0 0 0 0 0 0 0 0 0 0 0 0 0 0 0 0 0 0.12 0"/>
<feBlend mode="normal" in2="effect1_dropShadow_139_10801" result="effect2_dropShadow_139_10801"/>
<feBlend mode="normal" in="SourceGraphic" in2="effect2_dropShadow_139_10801" result="shape"/>
</filter>
</defs>
</svg>
