%TF.GenerationSoftware,KiCad,Pcbnew,8.0.1*%
%TF.CreationDate,2024-04-18T20:24:50-07:00*%
%TF.ProjectId,Battery Tester,42617474-6572-4792-9054-65737465722e,rev?*%
%TF.SameCoordinates,Original*%
%TF.FileFunction,Soldermask,Top*%
%TF.FilePolarity,Negative*%
%FSLAX46Y46*%
G04 Gerber Fmt 4.6, Leading zero omitted, Abs format (unit mm)*
G04 Created by KiCad (PCBNEW 8.0.1) date 2024-04-18 20:24:50*
%MOMM*%
%LPD*%
G01*
G04 APERTURE LIST*
G04 Aperture macros list*
%AMRoundRect*
0 Rectangle with rounded corners*
0 $1 Rounding radius*
0 $2 $3 $4 $5 $6 $7 $8 $9 X,Y pos of 4 corners*
0 Add a 4 corners polygon primitive as box body*
4,1,4,$2,$3,$4,$5,$6,$7,$8,$9,$2,$3,0*
0 Add four circle primitives for the rounded corners*
1,1,$1+$1,$2,$3*
1,1,$1+$1,$4,$5*
1,1,$1+$1,$6,$7*
1,1,$1+$1,$8,$9*
0 Add four rect primitives between the rounded corners*
20,1,$1+$1,$2,$3,$4,$5,0*
20,1,$1+$1,$4,$5,$6,$7,0*
20,1,$1+$1,$6,$7,$8,$9,0*
20,1,$1+$1,$8,$9,$2,$3,0*%
G04 Aperture macros list end*
%ADD10C,1.000000*%
%ADD11R,2.500000X1.200000*%
%ADD12RoundRect,0.200000X0.275000X-0.200000X0.275000X0.200000X-0.275000X0.200000X-0.275000X-0.200000X0*%
%ADD13RoundRect,0.200000X-0.275000X0.200000X-0.275000X-0.200000X0.275000X-0.200000X0.275000X0.200000X0*%
%ADD14RoundRect,0.119100X-0.587900X-0.277900X0.587900X-0.277900X0.587900X0.277900X-0.587900X0.277900X0*%
%ADD15RoundRect,0.225000X0.250000X-0.225000X0.250000X0.225000X-0.250000X0.225000X-0.250000X-0.225000X0*%
%ADD16R,1.000000X1.000000*%
%ADD17O,1.000000X1.000000*%
%ADD18RoundRect,0.225000X-0.225000X-0.250000X0.225000X-0.250000X0.225000X0.250000X-0.225000X0.250000X0*%
%ADD19C,0.650000*%
%ADD20RoundRect,0.102000X0.300000X0.575000X-0.300000X0.575000X-0.300000X-0.575000X0.300000X-0.575000X0*%
%ADD21RoundRect,0.102000X0.150000X0.575000X-0.150000X0.575000X-0.150000X-0.575000X0.150000X-0.575000X0*%
%ADD22O,1.204000X2.304000*%
%ADD23RoundRect,0.301000X0.301000X0.701000X-0.301000X0.701000X-0.301000X-0.701000X0.301000X-0.701000X0*%
%ADD24RoundRect,0.200000X0.200000X0.275000X-0.200000X0.275000X-0.200000X-0.275000X0.200000X-0.275000X0*%
%ADD25RoundRect,0.150000X0.150000X-0.512500X0.150000X0.512500X-0.150000X0.512500X-0.150000X-0.512500X0*%
%ADD26RoundRect,0.225000X-0.250000X0.225000X-0.250000X-0.225000X0.250000X-0.225000X0.250000X0.225000X0*%
G04 APERTURE END LIST*
D10*
%TO.C,SW1*%
X141950000Y-107425000D03*
X141950000Y-114225000D03*
D11*
X144700000Y-108325000D03*
X144700000Y-110825000D03*
X144700000Y-113325000D03*
%TD*%
D12*
%TO.C,D1*%
X154500000Y-109425000D03*
X154500000Y-107775000D03*
%TD*%
D13*
%TO.C,R5*%
X148225000Y-100150000D03*
X148225000Y-101800000D03*
%TD*%
D14*
%TO.C,U2*%
X149320000Y-115475000D03*
X149320000Y-116425000D03*
X149320000Y-117375000D03*
X151830000Y-117375000D03*
X151830000Y-115475000D03*
%TD*%
D13*
%TO.C,R3*%
X150025000Y-100150000D03*
X150025000Y-101800000D03*
%TD*%
D15*
%TO.C,C1*%
X148900000Y-109275000D03*
X148900000Y-107725000D03*
%TD*%
D16*
%TO.C,3.3v*%
X156275000Y-115850000D03*
D17*
X156275000Y-117120000D03*
%TD*%
D18*
%TO.C,C2*%
X154450000Y-106100000D03*
X156000000Y-106100000D03*
%TD*%
D19*
%TO.C,J1*%
X152840000Y-96580000D03*
X147060000Y-96580000D03*
D20*
X153150000Y-97655000D03*
X152350000Y-97655000D03*
D21*
X151200000Y-97655000D03*
X150200000Y-97655000D03*
X149700000Y-97655000D03*
X148700000Y-97655000D03*
D20*
X146750000Y-97655000D03*
X147550000Y-97655000D03*
D21*
X148200000Y-97655000D03*
X149200000Y-97655000D03*
X150700000Y-97655000D03*
X151700000Y-97655000D03*
D22*
X154270000Y-97080000D03*
X145630000Y-97080000D03*
D23*
X154270000Y-92900000D03*
X145630000Y-92900000D03*
%TD*%
D24*
%TO.C,R2*%
X154625000Y-111100000D03*
X152975000Y-111100000D03*
%TD*%
D25*
%TO.C,U1*%
X150750000Y-108537500D03*
X151700000Y-108537500D03*
X152650000Y-108537500D03*
X152650000Y-106262500D03*
X150750000Y-106262500D03*
%TD*%
D24*
%TO.C,R1*%
X149000000Y-106100000D03*
X147350000Y-106100000D03*
%TD*%
D13*
%TO.C,R4*%
X151825000Y-100150000D03*
X151825000Y-101800000D03*
%TD*%
D26*
%TO.C,C4*%
X153675000Y-115750000D03*
X153675000Y-117300000D03*
%TD*%
D16*
%TO.C,BATT*%
X143025000Y-104100000D03*
D17*
X143025000Y-102830000D03*
%TD*%
D26*
%TO.C,C3*%
X146850000Y-115475000D03*
X146850000Y-117025000D03*
%TD*%
M02*
