%TF.GenerationSoftware,KiCad,Pcbnew,8.0.1*%
%TF.CreationDate,2024-04-18T20:24:50-07:00*%
%TF.ProjectId,Battery Tester,42617474-6572-4792-9054-65737465722e,rev?*%
%TF.SameCoordinates,Original*%
%TF.FileFunction,Copper,L1,Top*%
%TF.FilePolarity,Positive*%
%FSLAX46Y46*%
G04 Gerber Fmt 4.6, Leading zero omitted, Abs format (unit mm)*
G04 Created by KiCad (PCBNEW 8.0.1) date 2024-04-18 20:24:50*
%MOMM*%
%LPD*%
G01*
G04 APERTURE LIST*
G04 Aperture macros list*
%AMRoundRect*
0 Rectangle with rounded corners*
0 $1 Rounding radius*
0 $2 $3 $4 $5 $6 $7 $8 $9 X,Y pos of 4 corners*
0 Add a 4 corners polygon primitive as box body*
4,1,4,$2,$3,$4,$5,$6,$7,$8,$9,$2,$3,0*
0 Add four circle primitives for the rounded corners*
1,1,$1+$1,$2,$3*
1,1,$1+$1,$4,$5*
1,1,$1+$1,$6,$7*
1,1,$1+$1,$8,$9*
0 Add four rect primitives between the rounded corners*
20,1,$1+$1,$2,$3,$4,$5,0*
20,1,$1+$1,$4,$5,$6,$7,0*
20,1,$1+$1,$6,$7,$8,$9,0*
20,1,$1+$1,$8,$9,$2,$3,0*%
G04 Aperture macros list end*
%TA.AperFunction,SMDPad,CuDef*%
%ADD10R,2.500000X1.200000*%
%TD*%
%TA.AperFunction,SMDPad,CuDef*%
%ADD11RoundRect,0.200000X0.275000X-0.200000X0.275000X0.200000X-0.275000X0.200000X-0.275000X-0.200000X0*%
%TD*%
%TA.AperFunction,SMDPad,CuDef*%
%ADD12RoundRect,0.200000X-0.275000X0.200000X-0.275000X-0.200000X0.275000X-0.200000X0.275000X0.200000X0*%
%TD*%
%TA.AperFunction,SMDPad,CuDef*%
%ADD13RoundRect,0.088500X-0.516500X-0.206500X0.516500X-0.206500X0.516500X0.206500X-0.516500X0.206500X0*%
%TD*%
%TA.AperFunction,SMDPad,CuDef*%
%ADD14RoundRect,0.225000X0.250000X-0.225000X0.250000X0.225000X-0.250000X0.225000X-0.250000X-0.225000X0*%
%TD*%
%TA.AperFunction,ComponentPad*%
%ADD15R,1.000000X1.000000*%
%TD*%
%TA.AperFunction,ComponentPad*%
%ADD16O,1.000000X1.000000*%
%TD*%
%TA.AperFunction,SMDPad,CuDef*%
%ADD17RoundRect,0.225000X-0.225000X-0.250000X0.225000X-0.250000X0.225000X0.250000X-0.225000X0.250000X0*%
%TD*%
%TA.AperFunction,SMDPad,CuDef*%
%ADD18R,0.600000X1.150000*%
%TD*%
%TA.AperFunction,SMDPad,CuDef*%
%ADD19R,0.300000X1.150000*%
%TD*%
%TA.AperFunction,ComponentPad*%
%ADD20O,1.000000X2.100000*%
%TD*%
%TA.AperFunction,ComponentPad*%
%ADD21RoundRect,0.250000X0.250000X0.650000X-0.250000X0.650000X-0.250000X-0.650000X0.250000X-0.650000X0*%
%TD*%
%TA.AperFunction,SMDPad,CuDef*%
%ADD22RoundRect,0.200000X0.200000X0.275000X-0.200000X0.275000X-0.200000X-0.275000X0.200000X-0.275000X0*%
%TD*%
%TA.AperFunction,SMDPad,CuDef*%
%ADD23RoundRect,0.150000X0.150000X-0.512500X0.150000X0.512500X-0.150000X0.512500X-0.150000X-0.512500X0*%
%TD*%
%TA.AperFunction,SMDPad,CuDef*%
%ADD24RoundRect,0.225000X-0.250000X0.225000X-0.250000X-0.225000X0.250000X-0.225000X0.250000X0.225000X0*%
%TD*%
%TA.AperFunction,ViaPad*%
%ADD25C,0.600000*%
%TD*%
%TA.AperFunction,Conductor*%
%ADD26C,0.200000*%
%TD*%
%TA.AperFunction,Conductor*%
%ADD27C,0.750000*%
%TD*%
G04 APERTURE END LIST*
D10*
%TO.P,SW1,1,A*%
%TO.N,/BATT_CONN*%
X144700000Y-108325000D03*
%TO.P,SW1,2,B*%
%TO.N,+BATT*%
X144700000Y-110825000D03*
%TO.P,SW1,3*%
%TO.N,N/C*%
X144700000Y-113325000D03*
%TD*%
D11*
%TO.P,D1,1,K*%
%TO.N,Net-(D1-K)*%
X154500000Y-109425000D03*
%TO.P,D1,2,A*%
%TO.N,+5V*%
X154500000Y-107775000D03*
%TD*%
D12*
%TO.P,R5,1*%
%TO.N,Net-(J1-SHELL_GND-PadSH1)*%
X148225000Y-100150000D03*
%TO.P,R5,2*%
%TO.N,GND*%
X148225000Y-101800000D03*
%TD*%
D13*
%TO.P,U2,1,IN*%
%TO.N,+BATT*%
X149320000Y-115475000D03*
%TO.P,U2,2,GND*%
%TO.N,GND*%
X149320000Y-116425000D03*
%TO.P,U2,3,EN*%
%TO.N,+BATT*%
X149320000Y-117375000D03*
%TO.P,U2,4*%
%TO.N,N/C*%
X151830000Y-117375000D03*
%TO.P,U2,5,OUT*%
%TO.N,+3.3V*%
X151830000Y-115475000D03*
%TD*%
D12*
%TO.P,R3,1*%
%TO.N,Net-(J1-CC2)*%
X150025000Y-100150000D03*
%TO.P,R3,2*%
%TO.N,GND*%
X150025000Y-101800000D03*
%TD*%
D14*
%TO.P,C1,1*%
%TO.N,/BATT_CONN*%
X148900000Y-109275000D03*
%TO.P,C1,2*%
%TO.N,GND*%
X148900000Y-107725000D03*
%TD*%
D15*
%TO.P,3.3v,1,Pin_1*%
%TO.N,+3.3V*%
X156275000Y-115850000D03*
D16*
%TO.P,3.3v,2,Pin_2*%
%TO.N,GND*%
X156275000Y-117120000D03*
%TD*%
D17*
%TO.P,C2,1*%
%TO.N,+5V*%
X154450000Y-106100000D03*
%TO.P,C2,2*%
%TO.N,GND*%
X156000000Y-106100000D03*
%TD*%
D18*
%TO.P,J1,A1_B12,GND*%
%TO.N,GND*%
X153150000Y-97655000D03*
%TO.P,J1,A4_B9,VBUS*%
%TO.N,+5V*%
X152350000Y-97655000D03*
D19*
%TO.P,J1,A5,CC1*%
%TO.N,Net-(J1-CC1)*%
X151200000Y-97655000D03*
%TO.P,J1,A6,DP1*%
%TO.N,unconnected-(J1-DP1-PadA6)*%
X150200000Y-97655000D03*
%TO.P,J1,A7,DN1*%
%TO.N,unconnected-(J1-DN1-PadA7)*%
X149700000Y-97655000D03*
%TO.P,J1,A8,SBU1*%
%TO.N,unconnected-(J1-SBU1-PadA8)*%
X148700000Y-97655000D03*
D18*
%TO.P,J1,B1_A12,GND*%
%TO.N,GND*%
X146750000Y-97655000D03*
%TO.P,J1,B4_A9,VBUS*%
%TO.N,+5V*%
X147550000Y-97655000D03*
D19*
%TO.P,J1,B5,CC2*%
%TO.N,Net-(J1-CC2)*%
X148200000Y-97655000D03*
%TO.P,J1,B6,DP2*%
%TO.N,unconnected-(J1-DP2-PadB6)*%
X149200000Y-97655000D03*
%TO.P,J1,B7,DN2*%
%TO.N,unconnected-(J1-DN2-PadB7)*%
X150700000Y-97655000D03*
%TO.P,J1,B8,SBU2*%
%TO.N,unconnected-(J1-SBU2-PadB8)*%
X151700000Y-97655000D03*
D20*
%TO.P,J1,SH1,SHELL_GND*%
%TO.N,Net-(J1-SHELL_GND-PadSH1)*%
X154270000Y-97080000D03*
%TO.P,J1,SH2,SHELL_GND*%
X145630000Y-97080000D03*
D21*
%TO.P,J1,SH3,SHELL_GND*%
X154270000Y-92900000D03*
%TO.P,J1,SH4,SHELL_GND*%
X145630000Y-92900000D03*
%TD*%
D22*
%TO.P,R2,1*%
%TO.N,Net-(D1-K)*%
X154625000Y-111100000D03*
%TO.P,R2,2*%
%TO.N,/STAT*%
X152975000Y-111100000D03*
%TD*%
D23*
%TO.P,U1,1,STAT*%
%TO.N,/STAT*%
X150750000Y-108537500D03*
%TO.P,U1,2,V_{SS}*%
%TO.N,GND*%
X151700000Y-108537500D03*
%TO.P,U1,3,V_{BAT}*%
%TO.N,/BATT_CONN*%
X152650000Y-108537500D03*
%TO.P,U1,4,V_{DD}*%
%TO.N,+5V*%
X152650000Y-106262500D03*
%TO.P,U1,5,PROG*%
%TO.N,Net-(U1-PROG)*%
X150750000Y-106262500D03*
%TD*%
D22*
%TO.P,R1,1*%
%TO.N,Net-(U1-PROG)*%
X149000000Y-106100000D03*
%TO.P,R1,2*%
%TO.N,GND*%
X147350000Y-106100000D03*
%TD*%
D12*
%TO.P,R4,1*%
%TO.N,Net-(J1-CC1)*%
X151825000Y-100150000D03*
%TO.P,R4,2*%
%TO.N,GND*%
X151825000Y-101800000D03*
%TD*%
D24*
%TO.P,C4,1*%
%TO.N,+3.3V*%
X153675000Y-115750000D03*
%TO.P,C4,2*%
%TO.N,GND*%
X153675000Y-117300000D03*
%TD*%
D15*
%TO.P,BATT,1,+*%
%TO.N,/BATT_CONN*%
X143025000Y-104100000D03*
D16*
%TO.P,BATT,2,-*%
%TO.N,GND*%
X143025000Y-102830000D03*
%TD*%
D24*
%TO.P,C3,1*%
%TO.N,+BATT*%
X146850000Y-115475000D03*
%TO.P,C3,2*%
%TO.N,GND*%
X146850000Y-117025000D03*
%TD*%
D25*
%TO.N,GND*%
X151850000Y-102925000D03*
X147750000Y-107700000D03*
X151750000Y-109800000D03*
X150050000Y-102925000D03*
X146775000Y-98800000D03*
X156025000Y-107225000D03*
X153200000Y-98800000D03*
X146850000Y-118050000D03*
X153675000Y-118225000D03*
X146275000Y-106075000D03*
X148250000Y-102950000D03*
X150425000Y-116450000D03*
%TO.N,/BATT_CONN*%
X152875000Y-109700000D03*
X147700000Y-109400000D03*
%TD*%
D26*
%TO.N,GND*%
X146850000Y-118050000D02*
X146850000Y-117025000D01*
X149320000Y-116425000D02*
X150400000Y-116425000D01*
X150025000Y-101800000D02*
X150025000Y-102900000D01*
X146300000Y-106100000D02*
X146275000Y-106075000D01*
X153675000Y-117300000D02*
X153675000Y-118225000D01*
X150400000Y-116425000D02*
X150425000Y-116450000D01*
X156000000Y-106100000D02*
X156000000Y-107200000D01*
X148900000Y-107725000D02*
X147775000Y-107725000D01*
X151700000Y-109750000D02*
X151750000Y-109800000D01*
X148225000Y-102925000D02*
X148250000Y-102950000D01*
X153150000Y-98750000D02*
X153200000Y-98800000D01*
X151825000Y-102900000D02*
X151825000Y-101800000D01*
X151850000Y-102925000D02*
X151825000Y-102900000D01*
X146750000Y-98775000D02*
X146775000Y-98800000D01*
X147775000Y-107725000D02*
X147750000Y-107700000D01*
X151700000Y-108537500D02*
X151700000Y-109750000D01*
X147350000Y-106100000D02*
X146300000Y-106100000D01*
X148225000Y-101800000D02*
X148225000Y-102925000D01*
X156000000Y-107200000D02*
X156025000Y-107225000D01*
X153150000Y-97655000D02*
X153150000Y-98750000D01*
X146750000Y-97655000D02*
X146750000Y-98775000D01*
X150025000Y-102900000D02*
X150050000Y-102925000D01*
%TO.N,+5V*%
X147550000Y-97655000D02*
X147750000Y-97455000D01*
X152145000Y-96775000D02*
X152150000Y-96780000D01*
X152650000Y-99787352D02*
X152650000Y-106262500D01*
X152350000Y-97655000D02*
X152350000Y-99487352D01*
X147750000Y-97455000D02*
X147750000Y-96780000D01*
X147750000Y-96780000D02*
X147755000Y-96775000D01*
X147755000Y-96775000D02*
X152145000Y-96775000D01*
X152350000Y-99487352D02*
X152650000Y-99787352D01*
X152150000Y-96780000D02*
X152150000Y-97455000D01*
X152150000Y-97455000D02*
X152350000Y-97655000D01*
D27*
%TO.N,+BATT*%
X146850000Y-115475000D02*
X147375000Y-115475000D01*
X148140000Y-116240000D02*
X148140000Y-116908784D01*
X148606216Y-117375000D02*
X149320000Y-117375000D01*
X148140000Y-116908784D02*
X148606216Y-117375000D01*
X147375000Y-115475000D02*
X148140000Y-116240000D01*
D26*
%TO.N,Net-(D1-K)*%
X154500000Y-110975000D02*
X154625000Y-111100000D01*
X154500000Y-109425000D02*
X154500000Y-110975000D01*
D27*
%TO.N,Net-(J1-SHELL_GND-PadSH1)*%
X145630000Y-97080000D02*
X145630000Y-98892437D01*
X154270000Y-92900000D02*
X145630000Y-92900000D01*
X145630000Y-97080000D02*
X145630000Y-92900000D01*
X154270000Y-97080000D02*
X154270000Y-92900000D01*
X146887563Y-100150000D02*
X148225000Y-100150000D01*
X145630000Y-98892437D02*
X146887563Y-100150000D01*
D26*
%TO.N,Net-(J1-CC2)*%
X148200000Y-97655000D02*
X148200000Y-98480000D01*
X149870000Y-100150000D02*
X150025000Y-100150000D01*
X148200000Y-98480000D02*
X149870000Y-100150000D01*
%TO.N,Net-(J1-CC1)*%
X151200000Y-97655000D02*
X151200000Y-99525000D01*
X151200000Y-99525000D02*
X151825000Y-100150000D01*
%TO.N,Net-(U1-PROG)*%
X149000000Y-106100000D02*
X150587500Y-106100000D01*
X150587500Y-106100000D02*
X150750000Y-106262500D01*
%TO.N,/STAT*%
X150750000Y-108537500D02*
X150750000Y-109648529D01*
X150750000Y-109648529D02*
X152201471Y-111100000D01*
X152201471Y-111100000D02*
X152975000Y-111100000D01*
%TO.N,/BATT_CONN*%
X152650000Y-109475000D02*
X152875000Y-109700000D01*
X152650000Y-108537500D02*
X152650000Y-109475000D01*
%TD*%
%TA.AperFunction,Conductor*%
%TO.N,+3.3V*%
G36*
X156971358Y-114974529D02*
G01*
X157038221Y-114994801D01*
X157061384Y-115014416D01*
X157292116Y-115264376D01*
X157323123Y-115326988D01*
X157325000Y-115348482D01*
X157325000Y-115933637D01*
X157305315Y-116000676D01*
X157269783Y-116036811D01*
X156981742Y-116228838D01*
X156915042Y-116249646D01*
X156911852Y-116249659D01*
X156797169Y-116248635D01*
X156739823Y-116233998D01*
X156677175Y-116200512D01*
X156659730Y-116191187D01*
X156471129Y-116133975D01*
X156275000Y-116114659D01*
X156078870Y-116133975D01*
X155994246Y-116159645D01*
X155890273Y-116191186D01*
X155890270Y-116191187D01*
X155890268Y-116191188D01*
X155827367Y-116224808D01*
X155767809Y-116239444D01*
X151407402Y-116200512D01*
X151340541Y-116180230D01*
X151313250Y-116155900D01*
X151003741Y-115784489D01*
X150975945Y-115720386D01*
X150975000Y-115705106D01*
X150975000Y-115326362D01*
X150994685Y-115259323D01*
X151011319Y-115238681D01*
X151288231Y-114961768D01*
X151349552Y-114928285D01*
X151376996Y-114925456D01*
X156971358Y-114974529D01*
G37*
%TD.AperFunction*%
%TD*%
%TA.AperFunction,Conductor*%
%TO.N,+BATT*%
G36*
X145737362Y-110019547D02*
G01*
X145762352Y-110040225D01*
X146016866Y-110314317D01*
X146048059Y-110376838D01*
X146050000Y-110398693D01*
X146050000Y-111500000D01*
X150104105Y-114787780D01*
X150143775Y-114845296D01*
X150150000Y-114884090D01*
X150150000Y-115525863D01*
X150130315Y-115592902D01*
X150077511Y-115638657D01*
X150008353Y-115648601D01*
X149993912Y-115645639D01*
X149990264Y-115644661D01*
X149875101Y-115629500D01*
X148764897Y-115629500D01*
X148649747Y-115644659D01*
X148649736Y-115644662D01*
X148506463Y-115704007D01*
X148506457Y-115704010D01*
X148382178Y-115799375D01*
X148348836Y-115812265D01*
X148349536Y-115813796D01*
X148325000Y-115824999D01*
X148250190Y-115911319D01*
X148037082Y-116157212D01*
X147978303Y-116194980D01*
X147943379Y-116200000D01*
X147544385Y-116200000D01*
X147479288Y-116181538D01*
X147408705Y-116138001D01*
X147408699Y-116137998D01*
X147408697Y-116137997D01*
X147383815Y-116129752D01*
X147247709Y-116084651D01*
X147148352Y-116074500D01*
X146575862Y-116074500D01*
X146508823Y-116054815D01*
X146488181Y-116038181D01*
X146361319Y-115911319D01*
X146327834Y-115849996D01*
X146325000Y-115823638D01*
X146325000Y-114300501D01*
X146344685Y-114233462D01*
X146349722Y-114226205D01*
X146393796Y-114167331D01*
X146444091Y-114032483D01*
X146450500Y-113972873D01*
X146450499Y-112677128D01*
X146444091Y-112617517D01*
X146393796Y-112482669D01*
X146393795Y-112482668D01*
X146393793Y-112482664D01*
X146307547Y-112367455D01*
X146307544Y-112367452D01*
X146192335Y-112281206D01*
X146192328Y-112281202D01*
X146057482Y-112230908D01*
X146057483Y-112230908D01*
X145997883Y-112224501D01*
X145997881Y-112224500D01*
X145997873Y-112224500D01*
X145997865Y-112224500D01*
X145930857Y-112224500D01*
X145863818Y-112204815D01*
X145850354Y-112194814D01*
X145300000Y-111725000D01*
X143478884Y-111725000D01*
X143411845Y-111705315D01*
X143388238Y-111685612D01*
X143112062Y-111389709D01*
X143080712Y-111327272D01*
X143079062Y-111295836D01*
X143146559Y-110395873D01*
X143171203Y-110330496D01*
X143182524Y-110317475D01*
X143439252Y-110060747D01*
X143500573Y-110027264D01*
X143525550Y-110024438D01*
X145670111Y-110000609D01*
X145737362Y-110019547D01*
G37*
%TD.AperFunction*%
%TD*%
%TA.AperFunction,Conductor*%
%TO.N,/BATT_CONN*%
G36*
X142464091Y-103664642D02*
G01*
X142466459Y-103665908D01*
X142466462Y-103665910D01*
X142587423Y-103730565D01*
X142634194Y-103755565D01*
X142640273Y-103758814D01*
X142828868Y-103816024D01*
X143025000Y-103835341D01*
X143221132Y-103816024D01*
X143409727Y-103758814D01*
X143583538Y-103665910D01*
X143583540Y-103665908D01*
X143585909Y-103664642D01*
X143644363Y-103650000D01*
X144176275Y-103650000D01*
X144243314Y-103669685D01*
X144285215Y-103714771D01*
X145467778Y-105889843D01*
X145482506Y-105958142D01*
X145482058Y-105962954D01*
X145469435Y-106074995D01*
X145469435Y-106075003D01*
X145489630Y-106254249D01*
X145489631Y-106254254D01*
X145549211Y-106424523D01*
X145576980Y-106468716D01*
X145645184Y-106577262D01*
X145772738Y-106704816D01*
X145925478Y-106800789D01*
X145926731Y-106801227D01*
X145927430Y-106801728D01*
X145931752Y-106803810D01*
X145931387Y-106804566D01*
X145983507Y-106841945D01*
X145994721Y-106859041D01*
X147050000Y-108800000D01*
X149408789Y-108872952D01*
X149475188Y-108894700D01*
X149510108Y-108931173D01*
X149581152Y-109044843D01*
X149600000Y-109110563D01*
X149600000Y-109848684D01*
X149589313Y-109899045D01*
X149532415Y-110027066D01*
X149487199Y-110080333D01*
X149420365Y-110100698D01*
X149420219Y-110100699D01*
X149420190Y-110100700D01*
X146679048Y-110124745D01*
X146623862Y-110112327D01*
X146445031Y-110025621D01*
X146397181Y-109984630D01*
X146387293Y-109970349D01*
X146387289Y-109970345D01*
X146387289Y-109970344D01*
X146377724Y-109960044D01*
X146369338Y-109949997D01*
X146307546Y-109867454D01*
X146307542Y-109867451D01*
X146307539Y-109867448D01*
X146264673Y-109835358D01*
X146248124Y-109820474D01*
X146132779Y-109696257D01*
X146084611Y-109650765D01*
X146059621Y-109630087D01*
X146005916Y-109591284D01*
X145940149Y-109562128D01*
X145874383Y-109532972D01*
X145874377Y-109532970D01*
X145808533Y-109514428D01*
X145807236Y-109514046D01*
X145664492Y-109495139D01*
X143519952Y-109518968D01*
X143519936Y-109518968D01*
X143519934Y-109518969D01*
X143468718Y-109522143D01*
X143468712Y-109522143D01*
X143468706Y-109522144D01*
X143452915Y-109523931D01*
X143443741Y-109524969D01*
X143443736Y-109524969D01*
X143443734Y-109524970D01*
X143393127Y-109533314D01*
X143393123Y-109533315D01*
X143258316Y-109583595D01*
X143258308Y-109583599D01*
X143198952Y-109616008D01*
X143195053Y-109618048D01*
X143194414Y-109618368D01*
X143134580Y-109631419D01*
X143006363Y-109626960D01*
X142940048Y-109604957D01*
X142914435Y-109581228D01*
X142875225Y-109532970D01*
X142652423Y-109258751D01*
X142625426Y-109194308D01*
X142624665Y-109181512D01*
X142614103Y-107808486D01*
X142623537Y-107760087D01*
X142671658Y-107643913D01*
X142681096Y-107596462D01*
X142700500Y-107498920D01*
X142700500Y-107351079D01*
X142671659Y-107206092D01*
X142671658Y-107206091D01*
X142671658Y-107206087D01*
X142665534Y-107191303D01*
X142617541Y-107075435D01*
X142608107Y-107028943D01*
X142600000Y-105975000D01*
X141790664Y-105260880D01*
X141753419Y-105201765D01*
X141748739Y-105170783D01*
X141725389Y-104166728D01*
X141729057Y-104133771D01*
X141826518Y-103743926D01*
X141861875Y-103683662D01*
X141924199Y-103652080D01*
X141946816Y-103650000D01*
X142405637Y-103650000D01*
X142464091Y-103664642D01*
G37*
%TD.AperFunction*%
%TD*%
%TA.AperFunction,Conductor*%
%TO.N,+5V*%
G36*
X154720551Y-105469195D02*
G01*
X154735917Y-105480246D01*
X155005374Y-105707157D01*
X155043972Y-105765394D01*
X155049500Y-105802004D01*
X155049500Y-106398337D01*
X155049501Y-106398355D01*
X155059650Y-106497707D01*
X155059651Y-106497710D01*
X155112996Y-106658694D01*
X155112997Y-106658697D01*
X155172425Y-106755044D01*
X155190870Y-106818108D01*
X155199255Y-107329592D01*
X155180672Y-107396946D01*
X155171243Y-107410146D01*
X155012210Y-107604521D01*
X154954523Y-107643942D01*
X154916239Y-107650000D01*
X153396309Y-107650000D01*
X153329270Y-107630315D01*
X153308628Y-107613681D01*
X153201870Y-107506923D01*
X153201862Y-107506917D01*
X153060396Y-107423255D01*
X153060393Y-107423254D01*
X152902573Y-107377402D01*
X152902567Y-107377401D01*
X152865701Y-107374500D01*
X152865694Y-107374500D01*
X152434306Y-107374500D01*
X152434298Y-107374500D01*
X152397432Y-107377401D01*
X152397426Y-107377402D01*
X152258595Y-107417737D01*
X152188725Y-107417538D01*
X152130055Y-107379596D01*
X152101212Y-107315957D01*
X152100000Y-107298661D01*
X152100000Y-105961414D01*
X152119685Y-105894375D01*
X152148851Y-105862781D01*
X152593025Y-105524362D01*
X152658280Y-105499390D01*
X152665164Y-105499032D01*
X154653057Y-105451131D01*
X154720551Y-105469195D01*
G37*
%TD.AperFunction*%
%TD*%
M02*
