M48
; DRILL file {KiCad 8.0.1} date 2024-04-18T20:24:52-0700
; FORMAT={-:-/ absolute / inch / decimal}
; #@! TF.CreationDate,2024-04-18T20:24:52-07:00
; #@! TF.GenerationSoftware,Kicad,Pcbnew,8.0.1
; #@! TF.FileFunction,Plated,1,2,PTH
FMAT,2
INCH
; #@! TA.AperFunction,Plated,PTH,ViaDrill
T1C0.0118
; #@! TA.AperFunction,Plated,PTH,ComponentDrill
T2C0.0236
; #@! TA.AperFunction,Plated,PTH,ComponentDrill
T3C0.0256
%
G90
G05
T1
X5.7589Y-4.1762
X5.7785Y-3.8898
X5.7815Y-4.6476
X5.815Y-4.3071
X5.8169Y-4.2402
X5.8366Y-4.0531
X5.9075Y-4.0522
X5.9222Y-4.5846
X5.9744Y-4.3228
X5.9783Y-4.0522
X6.0187Y-4.3189
X6.0315Y-3.8898
X6.0502Y-4.6545
X6.1427Y-4.2215
T3
X5.6309Y-4.0484
X5.6309Y-4.0984
X6.1526Y-4.561
X6.1526Y-4.611
T2
G00X5.7335Y-3.6732
M15
G01X5.7335Y-3.6417
M16
G05
G00X5.7335Y-3.8437
M15
G01X5.7335Y-3.8004
M16
G05
G00X6.0736Y-3.6732
M15
G01X6.0736Y-3.6417
M16
G05
G00X6.0736Y-3.8437
M15
G01X6.0736Y-3.8004
M16
G05
M30
