%TF.GenerationSoftware,KiCad,Pcbnew,8.0.1*%
%TF.CreationDate,2024-04-18T20:24:50-07:00*%
%TF.ProjectId,Battery Tester,42617474-6572-4792-9054-65737465722e,rev?*%
%TF.SameCoordinates,Original*%
%TF.FileFunction,Profile,NP*%
%FSLAX46Y46*%
G04 Gerber Fmt 4.6, Leading zero omitted, Abs format (unit mm)*
G04 Created by KiCad (PCBNEW 8.0.1) date 2024-04-18 20:24:50*
%MOMM*%
%LPD*%
G01*
G04 APERTURE LIST*
%TA.AperFunction,Profile*%
%ADD10C,0.050000*%
%TD*%
%ADD11C,0.150000*%
G04 APERTURE END LIST*
D10*
X159000000Y-95000000D02*
G75*
G02*
X156000000Y-95000000I-1500000J0D01*
G01*
X156000000Y-95000000D02*
G75*
G02*
X159000000Y-95000000I1500000J0D01*
G01*
X155000000Y-120000000D02*
X145000000Y-120000000D01*
X155000000Y-90000000D02*
G75*
G02*
X160000000Y-95000000I0J-5000000D01*
G01*
X145000000Y-90000000D02*
X155000000Y-90000000D01*
X144000000Y-95000000D02*
G75*
G02*
X141000000Y-95000000I-1500000J0D01*
G01*
X141000000Y-95000000D02*
G75*
G02*
X144000000Y-95000000I1500000J0D01*
G01*
X140000000Y-95000000D02*
X140000000Y-115000000D01*
X145000000Y-120000000D02*
G75*
G02*
X140000000Y-115000000I0J5000000D01*
G01*
X160000000Y-115000000D02*
G75*
G02*
X155000000Y-120000000I-5000000J0D01*
G01*
X160000000Y-95000000D02*
X160000000Y-115000000D01*
X140000000Y-95000000D02*
G75*
G02*
X145000000Y-90000000I5000000J0D01*
G01*
D11*
X145380953Y-78400057D02*
X145428572Y-78352438D01*
X145428572Y-78352438D02*
X145523810Y-78304819D01*
X145523810Y-78304819D02*
X145761905Y-78304819D01*
X145761905Y-78304819D02*
X145857143Y-78352438D01*
X145857143Y-78352438D02*
X145904762Y-78400057D01*
X145904762Y-78400057D02*
X145952381Y-78495295D01*
X145952381Y-78495295D02*
X145952381Y-78590533D01*
X145952381Y-78590533D02*
X145904762Y-78733390D01*
X145904762Y-78733390D02*
X145333334Y-79304819D01*
X145333334Y-79304819D02*
X145952381Y-79304819D01*
X146571429Y-78304819D02*
X146666667Y-78304819D01*
X146666667Y-78304819D02*
X146761905Y-78352438D01*
X146761905Y-78352438D02*
X146809524Y-78400057D01*
X146809524Y-78400057D02*
X146857143Y-78495295D01*
X146857143Y-78495295D02*
X146904762Y-78685771D01*
X146904762Y-78685771D02*
X146904762Y-78923866D01*
X146904762Y-78923866D02*
X146857143Y-79114342D01*
X146857143Y-79114342D02*
X146809524Y-79209580D01*
X146809524Y-79209580D02*
X146761905Y-79257200D01*
X146761905Y-79257200D02*
X146666667Y-79304819D01*
X146666667Y-79304819D02*
X146571429Y-79304819D01*
X146571429Y-79304819D02*
X146476191Y-79257200D01*
X146476191Y-79257200D02*
X146428572Y-79209580D01*
X146428572Y-79209580D02*
X146380953Y-79114342D01*
X146380953Y-79114342D02*
X146333334Y-78923866D01*
X146333334Y-78923866D02*
X146333334Y-78685771D01*
X146333334Y-78685771D02*
X146380953Y-78495295D01*
X146380953Y-78495295D02*
X146428572Y-78400057D01*
X146428572Y-78400057D02*
X146476191Y-78352438D01*
X146476191Y-78352438D02*
X146571429Y-78304819D01*
X147333334Y-79209580D02*
X147380953Y-79257200D01*
X147380953Y-79257200D02*
X147333334Y-79304819D01*
X147333334Y-79304819D02*
X147285715Y-79257200D01*
X147285715Y-79257200D02*
X147333334Y-79209580D01*
X147333334Y-79209580D02*
X147333334Y-79304819D01*
X148000000Y-78304819D02*
X148095238Y-78304819D01*
X148095238Y-78304819D02*
X148190476Y-78352438D01*
X148190476Y-78352438D02*
X148238095Y-78400057D01*
X148238095Y-78400057D02*
X148285714Y-78495295D01*
X148285714Y-78495295D02*
X148333333Y-78685771D01*
X148333333Y-78685771D02*
X148333333Y-78923866D01*
X148333333Y-78923866D02*
X148285714Y-79114342D01*
X148285714Y-79114342D02*
X148238095Y-79209580D01*
X148238095Y-79209580D02*
X148190476Y-79257200D01*
X148190476Y-79257200D02*
X148095238Y-79304819D01*
X148095238Y-79304819D02*
X148000000Y-79304819D01*
X148000000Y-79304819D02*
X147904762Y-79257200D01*
X147904762Y-79257200D02*
X147857143Y-79209580D01*
X147857143Y-79209580D02*
X147809524Y-79114342D01*
X147809524Y-79114342D02*
X147761905Y-78923866D01*
X147761905Y-78923866D02*
X147761905Y-78685771D01*
X147761905Y-78685771D02*
X147809524Y-78495295D01*
X147809524Y-78495295D02*
X147857143Y-78400057D01*
X147857143Y-78400057D02*
X147904762Y-78352438D01*
X147904762Y-78352438D02*
X148000000Y-78304819D01*
X148952381Y-78304819D02*
X149047619Y-78304819D01*
X149047619Y-78304819D02*
X149142857Y-78352438D01*
X149142857Y-78352438D02*
X149190476Y-78400057D01*
X149190476Y-78400057D02*
X149238095Y-78495295D01*
X149238095Y-78495295D02*
X149285714Y-78685771D01*
X149285714Y-78685771D02*
X149285714Y-78923866D01*
X149285714Y-78923866D02*
X149238095Y-79114342D01*
X149238095Y-79114342D02*
X149190476Y-79209580D01*
X149190476Y-79209580D02*
X149142857Y-79257200D01*
X149142857Y-79257200D02*
X149047619Y-79304819D01*
X149047619Y-79304819D02*
X148952381Y-79304819D01*
X148952381Y-79304819D02*
X148857143Y-79257200D01*
X148857143Y-79257200D02*
X148809524Y-79209580D01*
X148809524Y-79209580D02*
X148761905Y-79114342D01*
X148761905Y-79114342D02*
X148714286Y-78923866D01*
X148714286Y-78923866D02*
X148714286Y-78685771D01*
X148714286Y-78685771D02*
X148761905Y-78495295D01*
X148761905Y-78495295D02*
X148809524Y-78400057D01*
X148809524Y-78400057D02*
X148857143Y-78352438D01*
X148857143Y-78352438D02*
X148952381Y-78304819D01*
X149904762Y-78304819D02*
X150000000Y-78304819D01*
X150000000Y-78304819D02*
X150095238Y-78352438D01*
X150095238Y-78352438D02*
X150142857Y-78400057D01*
X150142857Y-78400057D02*
X150190476Y-78495295D01*
X150190476Y-78495295D02*
X150238095Y-78685771D01*
X150238095Y-78685771D02*
X150238095Y-78923866D01*
X150238095Y-78923866D02*
X150190476Y-79114342D01*
X150190476Y-79114342D02*
X150142857Y-79209580D01*
X150142857Y-79209580D02*
X150095238Y-79257200D01*
X150095238Y-79257200D02*
X150000000Y-79304819D01*
X150000000Y-79304819D02*
X149904762Y-79304819D01*
X149904762Y-79304819D02*
X149809524Y-79257200D01*
X149809524Y-79257200D02*
X149761905Y-79209580D01*
X149761905Y-79209580D02*
X149714286Y-79114342D01*
X149714286Y-79114342D02*
X149666667Y-78923866D01*
X149666667Y-78923866D02*
X149666667Y-78685771D01*
X149666667Y-78685771D02*
X149714286Y-78495295D01*
X149714286Y-78495295D02*
X149761905Y-78400057D01*
X149761905Y-78400057D02*
X149809524Y-78352438D01*
X149809524Y-78352438D02*
X149904762Y-78304819D01*
X150857143Y-78304819D02*
X150952381Y-78304819D01*
X150952381Y-78304819D02*
X151047619Y-78352438D01*
X151047619Y-78352438D02*
X151095238Y-78400057D01*
X151095238Y-78400057D02*
X151142857Y-78495295D01*
X151142857Y-78495295D02*
X151190476Y-78685771D01*
X151190476Y-78685771D02*
X151190476Y-78923866D01*
X151190476Y-78923866D02*
X151142857Y-79114342D01*
X151142857Y-79114342D02*
X151095238Y-79209580D01*
X151095238Y-79209580D02*
X151047619Y-79257200D01*
X151047619Y-79257200D02*
X150952381Y-79304819D01*
X150952381Y-79304819D02*
X150857143Y-79304819D01*
X150857143Y-79304819D02*
X150761905Y-79257200D01*
X150761905Y-79257200D02*
X150714286Y-79209580D01*
X150714286Y-79209580D02*
X150666667Y-79114342D01*
X150666667Y-79114342D02*
X150619048Y-78923866D01*
X150619048Y-78923866D02*
X150619048Y-78685771D01*
X150619048Y-78685771D02*
X150666667Y-78495295D01*
X150666667Y-78495295D02*
X150714286Y-78400057D01*
X150714286Y-78400057D02*
X150761905Y-78352438D01*
X150761905Y-78352438D02*
X150857143Y-78304819D01*
X152380953Y-79304819D02*
X152380953Y-78638152D01*
X152380953Y-78733390D02*
X152428572Y-78685771D01*
X152428572Y-78685771D02*
X152523810Y-78638152D01*
X152523810Y-78638152D02*
X152666667Y-78638152D01*
X152666667Y-78638152D02*
X152761905Y-78685771D01*
X152761905Y-78685771D02*
X152809524Y-78781009D01*
X152809524Y-78781009D02*
X152809524Y-79304819D01*
X152809524Y-78781009D02*
X152857143Y-78685771D01*
X152857143Y-78685771D02*
X152952381Y-78638152D01*
X152952381Y-78638152D02*
X153095238Y-78638152D01*
X153095238Y-78638152D02*
X153190477Y-78685771D01*
X153190477Y-78685771D02*
X153238096Y-78781009D01*
X153238096Y-78781009D02*
X153238096Y-79304819D01*
X153714286Y-79304819D02*
X153714286Y-78638152D01*
X153714286Y-78733390D02*
X153761905Y-78685771D01*
X153761905Y-78685771D02*
X153857143Y-78638152D01*
X153857143Y-78638152D02*
X154000000Y-78638152D01*
X154000000Y-78638152D02*
X154095238Y-78685771D01*
X154095238Y-78685771D02*
X154142857Y-78781009D01*
X154142857Y-78781009D02*
X154142857Y-79304819D01*
X154142857Y-78781009D02*
X154190476Y-78685771D01*
X154190476Y-78685771D02*
X154285714Y-78638152D01*
X154285714Y-78638152D02*
X154428571Y-78638152D01*
X154428571Y-78638152D02*
X154523810Y-78685771D01*
X154523810Y-78685771D02*
X154571429Y-78781009D01*
X154571429Y-78781009D02*
X154571429Y-79304819D01*
D10*
X140000000Y-79500000D02*
X140000000Y-79413580D01*
X160000000Y-79500000D02*
X160000000Y-79413580D01*
X140000000Y-80000000D02*
X160000000Y-80000000D01*
X140000000Y-80000000D02*
X160000000Y-80000000D01*
X140000000Y-80000000D02*
X141126504Y-79413579D01*
X140000000Y-80000000D02*
X141126504Y-80586421D01*
X160000000Y-80000000D02*
X158873496Y-80586421D01*
X160000000Y-80000000D02*
X158873496Y-79413579D01*
D11*
X168304819Y-109666665D02*
X168304819Y-109047618D01*
X168304819Y-109047618D02*
X168685771Y-109380951D01*
X168685771Y-109380951D02*
X168685771Y-109238094D01*
X168685771Y-109238094D02*
X168733390Y-109142856D01*
X168733390Y-109142856D02*
X168781009Y-109095237D01*
X168781009Y-109095237D02*
X168876247Y-109047618D01*
X168876247Y-109047618D02*
X169114342Y-109047618D01*
X169114342Y-109047618D02*
X169209580Y-109095237D01*
X169209580Y-109095237D02*
X169257200Y-109142856D01*
X169257200Y-109142856D02*
X169304819Y-109238094D01*
X169304819Y-109238094D02*
X169304819Y-109523808D01*
X169304819Y-109523808D02*
X169257200Y-109619046D01*
X169257200Y-109619046D02*
X169209580Y-109666665D01*
X168304819Y-108428570D02*
X168304819Y-108333332D01*
X168304819Y-108333332D02*
X168352438Y-108238094D01*
X168352438Y-108238094D02*
X168400057Y-108190475D01*
X168400057Y-108190475D02*
X168495295Y-108142856D01*
X168495295Y-108142856D02*
X168685771Y-108095237D01*
X168685771Y-108095237D02*
X168923866Y-108095237D01*
X168923866Y-108095237D02*
X169114342Y-108142856D01*
X169114342Y-108142856D02*
X169209580Y-108190475D01*
X169209580Y-108190475D02*
X169257200Y-108238094D01*
X169257200Y-108238094D02*
X169304819Y-108333332D01*
X169304819Y-108333332D02*
X169304819Y-108428570D01*
X169304819Y-108428570D02*
X169257200Y-108523808D01*
X169257200Y-108523808D02*
X169209580Y-108571427D01*
X169209580Y-108571427D02*
X169114342Y-108619046D01*
X169114342Y-108619046D02*
X168923866Y-108666665D01*
X168923866Y-108666665D02*
X168685771Y-108666665D01*
X168685771Y-108666665D02*
X168495295Y-108619046D01*
X168495295Y-108619046D02*
X168400057Y-108571427D01*
X168400057Y-108571427D02*
X168352438Y-108523808D01*
X168352438Y-108523808D02*
X168304819Y-108428570D01*
X169209580Y-107666665D02*
X169257200Y-107619046D01*
X169257200Y-107619046D02*
X169304819Y-107666665D01*
X169304819Y-107666665D02*
X169257200Y-107714284D01*
X169257200Y-107714284D02*
X169209580Y-107666665D01*
X169209580Y-107666665D02*
X169304819Y-107666665D01*
X168304819Y-106999999D02*
X168304819Y-106904761D01*
X168304819Y-106904761D02*
X168352438Y-106809523D01*
X168352438Y-106809523D02*
X168400057Y-106761904D01*
X168400057Y-106761904D02*
X168495295Y-106714285D01*
X168495295Y-106714285D02*
X168685771Y-106666666D01*
X168685771Y-106666666D02*
X168923866Y-106666666D01*
X168923866Y-106666666D02*
X169114342Y-106714285D01*
X169114342Y-106714285D02*
X169209580Y-106761904D01*
X169209580Y-106761904D02*
X169257200Y-106809523D01*
X169257200Y-106809523D02*
X169304819Y-106904761D01*
X169304819Y-106904761D02*
X169304819Y-106999999D01*
X169304819Y-106999999D02*
X169257200Y-107095237D01*
X169257200Y-107095237D02*
X169209580Y-107142856D01*
X169209580Y-107142856D02*
X169114342Y-107190475D01*
X169114342Y-107190475D02*
X168923866Y-107238094D01*
X168923866Y-107238094D02*
X168685771Y-107238094D01*
X168685771Y-107238094D02*
X168495295Y-107190475D01*
X168495295Y-107190475D02*
X168400057Y-107142856D01*
X168400057Y-107142856D02*
X168352438Y-107095237D01*
X168352438Y-107095237D02*
X168304819Y-106999999D01*
X168304819Y-106047618D02*
X168304819Y-105952380D01*
X168304819Y-105952380D02*
X168352438Y-105857142D01*
X168352438Y-105857142D02*
X168400057Y-105809523D01*
X168400057Y-105809523D02*
X168495295Y-105761904D01*
X168495295Y-105761904D02*
X168685771Y-105714285D01*
X168685771Y-105714285D02*
X168923866Y-105714285D01*
X168923866Y-105714285D02*
X169114342Y-105761904D01*
X169114342Y-105761904D02*
X169209580Y-105809523D01*
X169209580Y-105809523D02*
X169257200Y-105857142D01*
X169257200Y-105857142D02*
X169304819Y-105952380D01*
X169304819Y-105952380D02*
X169304819Y-106047618D01*
X169304819Y-106047618D02*
X169257200Y-106142856D01*
X169257200Y-106142856D02*
X169209580Y-106190475D01*
X169209580Y-106190475D02*
X169114342Y-106238094D01*
X169114342Y-106238094D02*
X168923866Y-106285713D01*
X168923866Y-106285713D02*
X168685771Y-106285713D01*
X168685771Y-106285713D02*
X168495295Y-106238094D01*
X168495295Y-106238094D02*
X168400057Y-106190475D01*
X168400057Y-106190475D02*
X168352438Y-106142856D01*
X168352438Y-106142856D02*
X168304819Y-106047618D01*
X168304819Y-105095237D02*
X168304819Y-104999999D01*
X168304819Y-104999999D02*
X168352438Y-104904761D01*
X168352438Y-104904761D02*
X168400057Y-104857142D01*
X168400057Y-104857142D02*
X168495295Y-104809523D01*
X168495295Y-104809523D02*
X168685771Y-104761904D01*
X168685771Y-104761904D02*
X168923866Y-104761904D01*
X168923866Y-104761904D02*
X169114342Y-104809523D01*
X169114342Y-104809523D02*
X169209580Y-104857142D01*
X169209580Y-104857142D02*
X169257200Y-104904761D01*
X169257200Y-104904761D02*
X169304819Y-104999999D01*
X169304819Y-104999999D02*
X169304819Y-105095237D01*
X169304819Y-105095237D02*
X169257200Y-105190475D01*
X169257200Y-105190475D02*
X169209580Y-105238094D01*
X169209580Y-105238094D02*
X169114342Y-105285713D01*
X169114342Y-105285713D02*
X168923866Y-105333332D01*
X168923866Y-105333332D02*
X168685771Y-105333332D01*
X168685771Y-105333332D02*
X168495295Y-105285713D01*
X168495295Y-105285713D02*
X168400057Y-105238094D01*
X168400057Y-105238094D02*
X168352438Y-105190475D01*
X168352438Y-105190475D02*
X168304819Y-105095237D01*
X168304819Y-104142856D02*
X168304819Y-104047618D01*
X168304819Y-104047618D02*
X168352438Y-103952380D01*
X168352438Y-103952380D02*
X168400057Y-103904761D01*
X168400057Y-103904761D02*
X168495295Y-103857142D01*
X168495295Y-103857142D02*
X168685771Y-103809523D01*
X168685771Y-103809523D02*
X168923866Y-103809523D01*
X168923866Y-103809523D02*
X169114342Y-103857142D01*
X169114342Y-103857142D02*
X169209580Y-103904761D01*
X169209580Y-103904761D02*
X169257200Y-103952380D01*
X169257200Y-103952380D02*
X169304819Y-104047618D01*
X169304819Y-104047618D02*
X169304819Y-104142856D01*
X169304819Y-104142856D02*
X169257200Y-104238094D01*
X169257200Y-104238094D02*
X169209580Y-104285713D01*
X169209580Y-104285713D02*
X169114342Y-104333332D01*
X169114342Y-104333332D02*
X168923866Y-104380951D01*
X168923866Y-104380951D02*
X168685771Y-104380951D01*
X168685771Y-104380951D02*
X168495295Y-104333332D01*
X168495295Y-104333332D02*
X168400057Y-104285713D01*
X168400057Y-104285713D02*
X168352438Y-104238094D01*
X168352438Y-104238094D02*
X168304819Y-104142856D01*
X169304819Y-102619046D02*
X168638152Y-102619046D01*
X168733390Y-102619046D02*
X168685771Y-102571427D01*
X168685771Y-102571427D02*
X168638152Y-102476189D01*
X168638152Y-102476189D02*
X168638152Y-102333332D01*
X168638152Y-102333332D02*
X168685771Y-102238094D01*
X168685771Y-102238094D02*
X168781009Y-102190475D01*
X168781009Y-102190475D02*
X169304819Y-102190475D01*
X168781009Y-102190475D02*
X168685771Y-102142856D01*
X168685771Y-102142856D02*
X168638152Y-102047618D01*
X168638152Y-102047618D02*
X168638152Y-101904761D01*
X168638152Y-101904761D02*
X168685771Y-101809522D01*
X168685771Y-101809522D02*
X168781009Y-101761903D01*
X168781009Y-101761903D02*
X169304819Y-101761903D01*
X169304819Y-101285713D02*
X168638152Y-101285713D01*
X168733390Y-101285713D02*
X168685771Y-101238094D01*
X168685771Y-101238094D02*
X168638152Y-101142856D01*
X168638152Y-101142856D02*
X168638152Y-100999999D01*
X168638152Y-100999999D02*
X168685771Y-100904761D01*
X168685771Y-100904761D02*
X168781009Y-100857142D01*
X168781009Y-100857142D02*
X169304819Y-100857142D01*
X168781009Y-100857142D02*
X168685771Y-100809523D01*
X168685771Y-100809523D02*
X168638152Y-100714285D01*
X168638152Y-100714285D02*
X168638152Y-100571428D01*
X168638152Y-100571428D02*
X168685771Y-100476189D01*
X168685771Y-100476189D02*
X168781009Y-100428570D01*
X168781009Y-100428570D02*
X169304819Y-100428570D01*
D10*
X165500000Y-90000000D02*
X170586420Y-90000000D01*
X165500000Y-120000000D02*
X170586420Y-120000000D01*
X170000000Y-90000000D02*
X170000000Y-120000000D01*
X170000000Y-90000000D02*
X170000000Y-120000000D01*
X170000000Y-90000000D02*
X170586421Y-91126504D01*
X170000000Y-90000000D02*
X169413579Y-91126504D01*
X170000000Y-120000000D02*
X169413579Y-118873496D01*
X170000000Y-120000000D02*
X170586421Y-118873496D01*
M02*
