%TF.GenerationSoftware,KiCad,Pcbnew,8.0.1*%
%TF.CreationDate,2024-04-18T20:24:50-07:00*%
%TF.ProjectId,Battery Tester,42617474-6572-4792-9054-65737465722e,rev?*%
%TF.SameCoordinates,Original*%
%TF.FileFunction,Legend,Top*%
%TF.FilePolarity,Positive*%
%FSLAX46Y46*%
G04 Gerber Fmt 4.6, Leading zero omitted, Abs format (unit mm)*
G04 Created by KiCad (PCBNEW 8.0.1) date 2024-04-18 20:24:50*
%MOMM*%
%LPD*%
G01*
G04 APERTURE LIST*
%ADD10C,0.100000*%
%ADD11C,0.150000*%
%ADD12C,0.200000*%
%ADD13C,0.127000*%
%ADD14C,0.120000*%
G04 APERTURE END LIST*
D10*
X140303884Y-102606522D02*
X141065789Y-102606522D01*
X140303884Y-104216466D02*
X141065789Y-104216466D01*
X140684836Y-104597419D02*
X140684836Y-103835514D01*
X158696115Y-117368477D02*
X157934211Y-117368477D01*
X158696115Y-115758533D02*
X157934211Y-115758533D01*
X158315163Y-115377580D02*
X158315163Y-116139485D01*
D11*
X155561905Y-109154819D02*
X155561905Y-108154819D01*
X155561905Y-108154819D02*
X155800000Y-108154819D01*
X155800000Y-108154819D02*
X155942857Y-108202438D01*
X155942857Y-108202438D02*
X156038095Y-108297676D01*
X156038095Y-108297676D02*
X156085714Y-108392914D01*
X156085714Y-108392914D02*
X156133333Y-108583390D01*
X156133333Y-108583390D02*
X156133333Y-108726247D01*
X156133333Y-108726247D02*
X156085714Y-108916723D01*
X156085714Y-108916723D02*
X156038095Y-109011961D01*
X156038095Y-109011961D02*
X155942857Y-109107200D01*
X155942857Y-109107200D02*
X155800000Y-109154819D01*
X155800000Y-109154819D02*
X155561905Y-109154819D01*
X157085714Y-109154819D02*
X156514286Y-109154819D01*
X156800000Y-109154819D02*
X156800000Y-108154819D01*
X156800000Y-108154819D02*
X156704762Y-108297676D01*
X156704762Y-108297676D02*
X156609524Y-108392914D01*
X156609524Y-108392914D02*
X156514286Y-108440533D01*
X146158333Y-101529819D02*
X145825000Y-101053628D01*
X145586905Y-101529819D02*
X145586905Y-100529819D01*
X145586905Y-100529819D02*
X145967857Y-100529819D01*
X145967857Y-100529819D02*
X146063095Y-100577438D01*
X146063095Y-100577438D02*
X146110714Y-100625057D01*
X146110714Y-100625057D02*
X146158333Y-100720295D01*
X146158333Y-100720295D02*
X146158333Y-100863152D01*
X146158333Y-100863152D02*
X146110714Y-100958390D01*
X146110714Y-100958390D02*
X146063095Y-101006009D01*
X146063095Y-101006009D02*
X145967857Y-101053628D01*
X145967857Y-101053628D02*
X145586905Y-101053628D01*
X147063095Y-100529819D02*
X146586905Y-100529819D01*
X146586905Y-100529819D02*
X146539286Y-101006009D01*
X146539286Y-101006009D02*
X146586905Y-100958390D01*
X146586905Y-100958390D02*
X146682143Y-100910771D01*
X146682143Y-100910771D02*
X146920238Y-100910771D01*
X146920238Y-100910771D02*
X147015476Y-100958390D01*
X147015476Y-100958390D02*
X147063095Y-101006009D01*
X147063095Y-101006009D02*
X147110714Y-101101247D01*
X147110714Y-101101247D02*
X147110714Y-101339342D01*
X147110714Y-101339342D02*
X147063095Y-101434580D01*
X147063095Y-101434580D02*
X147015476Y-101482200D01*
X147015476Y-101482200D02*
X146920238Y-101529819D01*
X146920238Y-101529819D02*
X146682143Y-101529819D01*
X146682143Y-101529819D02*
X146586905Y-101482200D01*
X146586905Y-101482200D02*
X146539286Y-101434580D01*
X150210476Y-113637295D02*
X150210476Y-114284914D01*
X150210476Y-114284914D02*
X150248571Y-114361104D01*
X150248571Y-114361104D02*
X150286666Y-114399200D01*
X150286666Y-114399200D02*
X150362857Y-114437295D01*
X150362857Y-114437295D02*
X150515238Y-114437295D01*
X150515238Y-114437295D02*
X150591428Y-114399200D01*
X150591428Y-114399200D02*
X150629523Y-114361104D01*
X150629523Y-114361104D02*
X150667619Y-114284914D01*
X150667619Y-114284914D02*
X150667619Y-113637295D01*
X151010475Y-113713485D02*
X151048571Y-113675390D01*
X151048571Y-113675390D02*
X151124761Y-113637295D01*
X151124761Y-113637295D02*
X151315237Y-113637295D01*
X151315237Y-113637295D02*
X151391428Y-113675390D01*
X151391428Y-113675390D02*
X151429523Y-113713485D01*
X151429523Y-113713485D02*
X151467618Y-113789676D01*
X151467618Y-113789676D02*
X151467618Y-113865866D01*
X151467618Y-113865866D02*
X151429523Y-113980152D01*
X151429523Y-113980152D02*
X150972380Y-114437295D01*
X150972380Y-114437295D02*
X151467618Y-114437295D01*
X149858333Y-103729819D02*
X149525000Y-103253628D01*
X149286905Y-103729819D02*
X149286905Y-102729819D01*
X149286905Y-102729819D02*
X149667857Y-102729819D01*
X149667857Y-102729819D02*
X149763095Y-102777438D01*
X149763095Y-102777438D02*
X149810714Y-102825057D01*
X149810714Y-102825057D02*
X149858333Y-102920295D01*
X149858333Y-102920295D02*
X149858333Y-103063152D01*
X149858333Y-103063152D02*
X149810714Y-103158390D01*
X149810714Y-103158390D02*
X149763095Y-103206009D01*
X149763095Y-103206009D02*
X149667857Y-103253628D01*
X149667857Y-103253628D02*
X149286905Y-103253628D01*
X150191667Y-102729819D02*
X150810714Y-102729819D01*
X150810714Y-102729819D02*
X150477381Y-103110771D01*
X150477381Y-103110771D02*
X150620238Y-103110771D01*
X150620238Y-103110771D02*
X150715476Y-103158390D01*
X150715476Y-103158390D02*
X150763095Y-103206009D01*
X150763095Y-103206009D02*
X150810714Y-103301247D01*
X150810714Y-103301247D02*
X150810714Y-103539342D01*
X150810714Y-103539342D02*
X150763095Y-103634580D01*
X150763095Y-103634580D02*
X150715476Y-103682200D01*
X150715476Y-103682200D02*
X150620238Y-103729819D01*
X150620238Y-103729819D02*
X150334524Y-103729819D01*
X150334524Y-103729819D02*
X150239286Y-103682200D01*
X150239286Y-103682200D02*
X150191667Y-103634580D01*
X148833333Y-111359580D02*
X148785714Y-111407200D01*
X148785714Y-111407200D02*
X148642857Y-111454819D01*
X148642857Y-111454819D02*
X148547619Y-111454819D01*
X148547619Y-111454819D02*
X148404762Y-111407200D01*
X148404762Y-111407200D02*
X148309524Y-111311961D01*
X148309524Y-111311961D02*
X148261905Y-111216723D01*
X148261905Y-111216723D02*
X148214286Y-111026247D01*
X148214286Y-111026247D02*
X148214286Y-110883390D01*
X148214286Y-110883390D02*
X148261905Y-110692914D01*
X148261905Y-110692914D02*
X148309524Y-110597676D01*
X148309524Y-110597676D02*
X148404762Y-110502438D01*
X148404762Y-110502438D02*
X148547619Y-110454819D01*
X148547619Y-110454819D02*
X148642857Y-110454819D01*
X148642857Y-110454819D02*
X148785714Y-110502438D01*
X148785714Y-110502438D02*
X148833333Y-110550057D01*
X149785714Y-111454819D02*
X149214286Y-111454819D01*
X149500000Y-111454819D02*
X149500000Y-110454819D01*
X149500000Y-110454819D02*
X149404762Y-110597676D01*
X149404762Y-110597676D02*
X149309524Y-110692914D01*
X149309524Y-110692914D02*
X149214286Y-110740533D01*
D12*
X155015476Y-113427219D02*
X155634524Y-113427219D01*
X155634524Y-113427219D02*
X155253572Y-113808171D01*
X155253572Y-113808171D02*
X155396429Y-113808171D01*
X155396429Y-113808171D02*
X155485714Y-113855790D01*
X155485714Y-113855790D02*
X155527381Y-113903409D01*
X155527381Y-113903409D02*
X155563095Y-113998647D01*
X155563095Y-113998647D02*
X155533333Y-114236742D01*
X155533333Y-114236742D02*
X155473810Y-114331980D01*
X155473810Y-114331980D02*
X155420238Y-114379600D01*
X155420238Y-114379600D02*
X155319048Y-114427219D01*
X155319048Y-114427219D02*
X155033333Y-114427219D01*
X155033333Y-114427219D02*
X154944048Y-114379600D01*
X154944048Y-114379600D02*
X154902381Y-114331980D01*
X155950000Y-114331980D02*
X155991667Y-114379600D01*
X155991667Y-114379600D02*
X155938095Y-114427219D01*
X155938095Y-114427219D02*
X155896429Y-114379600D01*
X155896429Y-114379600D02*
X155950000Y-114331980D01*
X155950000Y-114331980D02*
X155938095Y-114427219D01*
X156444047Y-113427219D02*
X157063095Y-113427219D01*
X157063095Y-113427219D02*
X156682143Y-113808171D01*
X156682143Y-113808171D02*
X156825000Y-113808171D01*
X156825000Y-113808171D02*
X156914285Y-113855790D01*
X156914285Y-113855790D02*
X156955952Y-113903409D01*
X156955952Y-113903409D02*
X156991666Y-113998647D01*
X156991666Y-113998647D02*
X156961904Y-114236742D01*
X156961904Y-114236742D02*
X156902381Y-114331980D01*
X156902381Y-114331980D02*
X156848809Y-114379600D01*
X156848809Y-114379600D02*
X156747619Y-114427219D01*
X156747619Y-114427219D02*
X156461904Y-114427219D01*
X156461904Y-114427219D02*
X156372619Y-114379600D01*
X156372619Y-114379600D02*
X156330952Y-114331980D01*
X157354762Y-113760552D02*
X157509524Y-114427219D01*
X157509524Y-114427219D02*
X157830952Y-113760552D01*
D11*
X155058333Y-105029580D02*
X155010714Y-105077200D01*
X155010714Y-105077200D02*
X154867857Y-105124819D01*
X154867857Y-105124819D02*
X154772619Y-105124819D01*
X154772619Y-105124819D02*
X154629762Y-105077200D01*
X154629762Y-105077200D02*
X154534524Y-104981961D01*
X154534524Y-104981961D02*
X154486905Y-104886723D01*
X154486905Y-104886723D02*
X154439286Y-104696247D01*
X154439286Y-104696247D02*
X154439286Y-104553390D01*
X154439286Y-104553390D02*
X154486905Y-104362914D01*
X154486905Y-104362914D02*
X154534524Y-104267676D01*
X154534524Y-104267676D02*
X154629762Y-104172438D01*
X154629762Y-104172438D02*
X154772619Y-104124819D01*
X154772619Y-104124819D02*
X154867857Y-104124819D01*
X154867857Y-104124819D02*
X155010714Y-104172438D01*
X155010714Y-104172438D02*
X155058333Y-104220057D01*
X155439286Y-104220057D02*
X155486905Y-104172438D01*
X155486905Y-104172438D02*
X155582143Y-104124819D01*
X155582143Y-104124819D02*
X155820238Y-104124819D01*
X155820238Y-104124819D02*
X155915476Y-104172438D01*
X155915476Y-104172438D02*
X155963095Y-104220057D01*
X155963095Y-104220057D02*
X156010714Y-104315295D01*
X156010714Y-104315295D02*
X156010714Y-104410533D01*
X156010714Y-104410533D02*
X155963095Y-104553390D01*
X155963095Y-104553390D02*
X155391667Y-105124819D01*
X155391667Y-105124819D02*
X156010714Y-105124819D01*
X155916666Y-97054819D02*
X155916666Y-97769104D01*
X155916666Y-97769104D02*
X155869047Y-97911961D01*
X155869047Y-97911961D02*
X155773809Y-98007200D01*
X155773809Y-98007200D02*
X155630952Y-98054819D01*
X155630952Y-98054819D02*
X155535714Y-98054819D01*
X156916666Y-98054819D02*
X156345238Y-98054819D01*
X156630952Y-98054819D02*
X156630952Y-97054819D01*
X156630952Y-97054819D02*
X156535714Y-97197676D01*
X156535714Y-97197676D02*
X156440476Y-97292914D01*
X156440476Y-97292914D02*
X156345238Y-97340533D01*
X156233333Y-111554819D02*
X155900000Y-111078628D01*
X155661905Y-111554819D02*
X155661905Y-110554819D01*
X155661905Y-110554819D02*
X156042857Y-110554819D01*
X156042857Y-110554819D02*
X156138095Y-110602438D01*
X156138095Y-110602438D02*
X156185714Y-110650057D01*
X156185714Y-110650057D02*
X156233333Y-110745295D01*
X156233333Y-110745295D02*
X156233333Y-110888152D01*
X156233333Y-110888152D02*
X156185714Y-110983390D01*
X156185714Y-110983390D02*
X156138095Y-111031009D01*
X156138095Y-111031009D02*
X156042857Y-111078628D01*
X156042857Y-111078628D02*
X155661905Y-111078628D01*
X156614286Y-110650057D02*
X156661905Y-110602438D01*
X156661905Y-110602438D02*
X156757143Y-110554819D01*
X156757143Y-110554819D02*
X156995238Y-110554819D01*
X156995238Y-110554819D02*
X157090476Y-110602438D01*
X157090476Y-110602438D02*
X157138095Y-110650057D01*
X157138095Y-110650057D02*
X157185714Y-110745295D01*
X157185714Y-110745295D02*
X157185714Y-110840533D01*
X157185714Y-110840533D02*
X157138095Y-110983390D01*
X157138095Y-110983390D02*
X156566667Y-111554819D01*
X156566667Y-111554819D02*
X157185714Y-111554819D01*
X150863095Y-104179819D02*
X150863095Y-104989342D01*
X150863095Y-104989342D02*
X150910714Y-105084580D01*
X150910714Y-105084580D02*
X150958333Y-105132200D01*
X150958333Y-105132200D02*
X151053571Y-105179819D01*
X151053571Y-105179819D02*
X151244047Y-105179819D01*
X151244047Y-105179819D02*
X151339285Y-105132200D01*
X151339285Y-105132200D02*
X151386904Y-105084580D01*
X151386904Y-105084580D02*
X151434523Y-104989342D01*
X151434523Y-104989342D02*
X151434523Y-104179819D01*
X152434523Y-105179819D02*
X151863095Y-105179819D01*
X152148809Y-105179819D02*
X152148809Y-104179819D01*
X152148809Y-104179819D02*
X152053571Y-104322676D01*
X152053571Y-104322676D02*
X151958333Y-104417914D01*
X151958333Y-104417914D02*
X151863095Y-104465533D01*
X145533333Y-106554819D02*
X145200000Y-106078628D01*
X144961905Y-106554819D02*
X144961905Y-105554819D01*
X144961905Y-105554819D02*
X145342857Y-105554819D01*
X145342857Y-105554819D02*
X145438095Y-105602438D01*
X145438095Y-105602438D02*
X145485714Y-105650057D01*
X145485714Y-105650057D02*
X145533333Y-105745295D01*
X145533333Y-105745295D02*
X145533333Y-105888152D01*
X145533333Y-105888152D02*
X145485714Y-105983390D01*
X145485714Y-105983390D02*
X145438095Y-106031009D01*
X145438095Y-106031009D02*
X145342857Y-106078628D01*
X145342857Y-106078628D02*
X144961905Y-106078628D01*
X146485714Y-106554819D02*
X145914286Y-106554819D01*
X146200000Y-106554819D02*
X146200000Y-105554819D01*
X146200000Y-105554819D02*
X146104762Y-105697676D01*
X146104762Y-105697676D02*
X146009524Y-105792914D01*
X146009524Y-105792914D02*
X145914286Y-105840533D01*
X153458333Y-101529819D02*
X153125000Y-101053628D01*
X152886905Y-101529819D02*
X152886905Y-100529819D01*
X152886905Y-100529819D02*
X153267857Y-100529819D01*
X153267857Y-100529819D02*
X153363095Y-100577438D01*
X153363095Y-100577438D02*
X153410714Y-100625057D01*
X153410714Y-100625057D02*
X153458333Y-100720295D01*
X153458333Y-100720295D02*
X153458333Y-100863152D01*
X153458333Y-100863152D02*
X153410714Y-100958390D01*
X153410714Y-100958390D02*
X153363095Y-101006009D01*
X153363095Y-101006009D02*
X153267857Y-101053628D01*
X153267857Y-101053628D02*
X152886905Y-101053628D01*
X154315476Y-100863152D02*
X154315476Y-101529819D01*
X154077381Y-100482200D02*
X153839286Y-101196485D01*
X153839286Y-101196485D02*
X154458333Y-101196485D01*
X153463333Y-114734580D02*
X153415714Y-114782200D01*
X153415714Y-114782200D02*
X153272857Y-114829819D01*
X153272857Y-114829819D02*
X153177619Y-114829819D01*
X153177619Y-114829819D02*
X153034762Y-114782200D01*
X153034762Y-114782200D02*
X152939524Y-114686961D01*
X152939524Y-114686961D02*
X152891905Y-114591723D01*
X152891905Y-114591723D02*
X152844286Y-114401247D01*
X152844286Y-114401247D02*
X152844286Y-114258390D01*
X152844286Y-114258390D02*
X152891905Y-114067914D01*
X152891905Y-114067914D02*
X152939524Y-113972676D01*
X152939524Y-113972676D02*
X153034762Y-113877438D01*
X153034762Y-113877438D02*
X153177619Y-113829819D01*
X153177619Y-113829819D02*
X153272857Y-113829819D01*
X153272857Y-113829819D02*
X153415714Y-113877438D01*
X153415714Y-113877438D02*
X153463333Y-113925057D01*
X154320476Y-114163152D02*
X154320476Y-114829819D01*
X154082381Y-113782200D02*
X153844286Y-114496485D01*
X153844286Y-114496485D02*
X154463333Y-114496485D01*
D12*
X142015476Y-100603409D02*
X142152381Y-100651028D01*
X142152381Y-100651028D02*
X142194047Y-100698647D01*
X142194047Y-100698647D02*
X142229762Y-100793885D01*
X142229762Y-100793885D02*
X142211904Y-100936742D01*
X142211904Y-100936742D02*
X142152381Y-101031980D01*
X142152381Y-101031980D02*
X142098809Y-101079600D01*
X142098809Y-101079600D02*
X141997619Y-101127219D01*
X141997619Y-101127219D02*
X141616666Y-101127219D01*
X141616666Y-101127219D02*
X141741666Y-100127219D01*
X141741666Y-100127219D02*
X142075000Y-100127219D01*
X142075000Y-100127219D02*
X142164285Y-100174838D01*
X142164285Y-100174838D02*
X142205952Y-100222457D01*
X142205952Y-100222457D02*
X142241666Y-100317695D01*
X142241666Y-100317695D02*
X142229762Y-100412933D01*
X142229762Y-100412933D02*
X142170238Y-100508171D01*
X142170238Y-100508171D02*
X142116666Y-100555790D01*
X142116666Y-100555790D02*
X142015476Y-100603409D01*
X142015476Y-100603409D02*
X141682143Y-100603409D01*
X142604762Y-100841504D02*
X143080952Y-100841504D01*
X142473809Y-101127219D02*
X142932143Y-100127219D01*
X142932143Y-100127219D02*
X143140476Y-101127219D01*
X143455952Y-100127219D02*
X144027381Y-100127219D01*
X143616667Y-101127219D02*
X143741667Y-100127219D01*
X144217857Y-100127219D02*
X144789286Y-100127219D01*
X144378572Y-101127219D02*
X144503572Y-100127219D01*
D11*
X146733333Y-114209580D02*
X146685714Y-114257200D01*
X146685714Y-114257200D02*
X146542857Y-114304819D01*
X146542857Y-114304819D02*
X146447619Y-114304819D01*
X146447619Y-114304819D02*
X146304762Y-114257200D01*
X146304762Y-114257200D02*
X146209524Y-114161961D01*
X146209524Y-114161961D02*
X146161905Y-114066723D01*
X146161905Y-114066723D02*
X146114286Y-113876247D01*
X146114286Y-113876247D02*
X146114286Y-113733390D01*
X146114286Y-113733390D02*
X146161905Y-113542914D01*
X146161905Y-113542914D02*
X146209524Y-113447676D01*
X146209524Y-113447676D02*
X146304762Y-113352438D01*
X146304762Y-113352438D02*
X146447619Y-113304819D01*
X146447619Y-113304819D02*
X146542857Y-113304819D01*
X146542857Y-113304819D02*
X146685714Y-113352438D01*
X146685714Y-113352438D02*
X146733333Y-113400057D01*
X147066667Y-113304819D02*
X147685714Y-113304819D01*
X147685714Y-113304819D02*
X147352381Y-113685771D01*
X147352381Y-113685771D02*
X147495238Y-113685771D01*
X147495238Y-113685771D02*
X147590476Y-113733390D01*
X147590476Y-113733390D02*
X147638095Y-113781009D01*
X147638095Y-113781009D02*
X147685714Y-113876247D01*
X147685714Y-113876247D02*
X147685714Y-114114342D01*
X147685714Y-114114342D02*
X147638095Y-114209580D01*
X147638095Y-114209580D02*
X147590476Y-114257200D01*
X147590476Y-114257200D02*
X147495238Y-114304819D01*
X147495238Y-114304819D02*
X147209524Y-114304819D01*
X147209524Y-114304819D02*
X147114286Y-114257200D01*
X147114286Y-114257200D02*
X147066667Y-114209580D01*
D13*
%TO.C,SW1*%
X140150000Y-106325000D02*
X140150000Y-115325000D01*
X143750000Y-106325000D02*
X140150000Y-106325000D01*
X143750000Y-115325000D02*
X140150000Y-115325000D01*
D14*
%TO.C,D1*%
X153977500Y-108837258D02*
X153977500Y-108362742D01*
X155022500Y-108837258D02*
X155022500Y-108362742D01*
%TO.C,R5*%
X147702500Y-100737742D02*
X147702500Y-101212258D01*
X148747500Y-100737742D02*
X148747500Y-101212258D01*
D13*
%TO.C,U2*%
X150245000Y-114975000D02*
X150905000Y-114975000D01*
X150905000Y-117875000D02*
X150245000Y-117875000D01*
X151375000Y-116090000D02*
X151375000Y-116760000D01*
D12*
X148265000Y-115375000D02*
G75*
G02*
X148065000Y-115375000I-100000J0D01*
G01*
X148065000Y-115375000D02*
G75*
G02*
X148265000Y-115375000I100000J0D01*
G01*
D14*
%TO.C,R3*%
X149502500Y-100737742D02*
X149502500Y-101212258D01*
X150547500Y-100737742D02*
X150547500Y-101212258D01*
%TO.C,C1*%
X148390000Y-108640580D02*
X148390000Y-108359420D01*
X149410000Y-108640580D02*
X149410000Y-108359420D01*
%TO.C,3.3v*%
X155165000Y-115090000D02*
X156275000Y-115090000D01*
X155165000Y-115850000D02*
X155165000Y-115090000D01*
X155165000Y-116610000D02*
X155165000Y-117815000D01*
X155165000Y-116610000D02*
X155711529Y-116610000D01*
X155165000Y-117815000D02*
X155967470Y-117815000D01*
X156582530Y-117815000D02*
X157385000Y-117815000D01*
X156838471Y-116610000D02*
X157385000Y-116610000D01*
X157385000Y-116610000D02*
X157385000Y-117815000D01*
%TO.C,C2*%
X155084420Y-105590000D02*
X155365580Y-105590000D01*
X155084420Y-106610000D02*
X155365580Y-106610000D01*
D12*
%TO.C,J1*%
X145480000Y-90300000D02*
X145480000Y-91580000D01*
X145480000Y-95550000D02*
X145480000Y-94300000D01*
X154420000Y-91580000D02*
X154420000Y-90300000D01*
X154420000Y-95550000D02*
X154420000Y-94300000D01*
X153300000Y-98900000D02*
G75*
G02*
X153100000Y-98900000I-100000J0D01*
G01*
X153100000Y-98900000D02*
G75*
G02*
X153300000Y-98900000I100000J0D01*
G01*
D14*
%TO.C,R2*%
X154037258Y-110577500D02*
X153562742Y-110577500D01*
X154037258Y-111622500D02*
X153562742Y-111622500D01*
%TO.C,U1*%
X150140000Y-107400000D02*
X150140000Y-106600000D01*
X150140000Y-107400000D02*
X150140000Y-108200000D01*
X153260000Y-107400000D02*
X153260000Y-106600000D01*
X153260000Y-107400000D02*
X153260000Y-108200000D01*
X150190000Y-108700000D02*
X149860000Y-108940000D01*
X149860000Y-108460000D01*
X150190000Y-108700000D01*
G36*
X150190000Y-108700000D02*
G01*
X149860000Y-108940000D01*
X149860000Y-108460000D01*
X150190000Y-108700000D01*
G37*
%TO.C,R1*%
X148412258Y-105577500D02*
X147937742Y-105577500D01*
X148412258Y-106622500D02*
X147937742Y-106622500D01*
%TO.C,R4*%
X151302500Y-100737742D02*
X151302500Y-101212258D01*
X152347500Y-100737742D02*
X152347500Y-101212258D01*
%TO.C,C4*%
X153165000Y-116384420D02*
X153165000Y-116665580D01*
X154185000Y-116384420D02*
X154185000Y-116665580D01*
%TO.C,BATT*%
X141915000Y-103340000D02*
X141915000Y-102135000D01*
X142461529Y-103340000D02*
X141915000Y-103340000D01*
X142717470Y-102135000D02*
X141915000Y-102135000D01*
X144135000Y-102135000D02*
X143332530Y-102135000D01*
X144135000Y-103340000D02*
X143588471Y-103340000D01*
X144135000Y-103340000D02*
X144135000Y-102135000D01*
X144135000Y-104100000D02*
X144135000Y-104860000D01*
X144135000Y-104860000D02*
X143025000Y-104860000D01*
%TO.C,C3*%
X146340000Y-116109420D02*
X146340000Y-116390580D01*
X147360000Y-116109420D02*
X147360000Y-116390580D01*
%TD*%
M02*
