%TF.GenerationSoftware,KiCad,Pcbnew,8.0.1*%
%TF.CreationDate,2024-04-18T20:24:50-07:00*%
%TF.ProjectId,Battery Tester,42617474-6572-4792-9054-65737465722e,rev?*%
%TF.SameCoordinates,Original*%
%TF.FileFunction,Copper,L2,Bot*%
%TF.FilePolarity,Positive*%
%FSLAX46Y46*%
G04 Gerber Fmt 4.6, Leading zero omitted, Abs format (unit mm)*
G04 Created by KiCad (PCBNEW 8.0.1) date 2024-04-18 20:24:50*
%MOMM*%
%LPD*%
G01*
G04 APERTURE LIST*
G04 Aperture macros list*
%AMRoundRect*
0 Rectangle with rounded corners*
0 $1 Rounding radius*
0 $2 $3 $4 $5 $6 $7 $8 $9 X,Y pos of 4 corners*
0 Add a 4 corners polygon primitive as box body*
4,1,4,$2,$3,$4,$5,$6,$7,$8,$9,$2,$3,0*
0 Add four circle primitives for the rounded corners*
1,1,$1+$1,$2,$3*
1,1,$1+$1,$4,$5*
1,1,$1+$1,$6,$7*
1,1,$1+$1,$8,$9*
0 Add four rect primitives between the rounded corners*
20,1,$1+$1,$2,$3,$4,$5,0*
20,1,$1+$1,$4,$5,$6,$7,0*
20,1,$1+$1,$6,$7,$8,$9,0*
20,1,$1+$1,$8,$9,$2,$3,0*%
G04 Aperture macros list end*
%TA.AperFunction,ComponentPad*%
%ADD10R,1.000000X1.000000*%
%TD*%
%TA.AperFunction,ComponentPad*%
%ADD11O,1.000000X1.000000*%
%TD*%
%TA.AperFunction,ComponentPad*%
%ADD12O,1.000000X2.100000*%
%TD*%
%TA.AperFunction,ComponentPad*%
%ADD13RoundRect,0.250000X0.250000X0.650000X-0.250000X0.650000X-0.250000X-0.650000X0.250000X-0.650000X0*%
%TD*%
%TA.AperFunction,ViaPad*%
%ADD14C,0.600000*%
%TD*%
%TA.AperFunction,Conductor*%
%ADD15C,0.750000*%
%TD*%
G04 APERTURE END LIST*
D10*
%TO.P,3.3v,1,Pin_1*%
%TO.N,+3.3V*%
X156275000Y-115850000D03*
D11*
%TO.P,3.3v,2,Pin_2*%
%TO.N,GND*%
X156275000Y-117120000D03*
%TD*%
D12*
%TO.P,J1,SH1,SHELL_GND*%
%TO.N,Net-(J1-SHELL_GND-PadSH1)*%
X154270000Y-97080000D03*
%TO.P,J1,SH2,SHELL_GND*%
X145630000Y-97080000D03*
D13*
%TO.P,J1,SH3,SHELL_GND*%
X154270000Y-92900000D03*
%TO.P,J1,SH4,SHELL_GND*%
X145630000Y-92900000D03*
%TD*%
D10*
%TO.P,BATT,1,+*%
%TO.N,/BATT_CONN*%
X143025000Y-104100000D03*
D11*
%TO.P,BATT,2,-*%
%TO.N,GND*%
X143025000Y-102830000D03*
%TD*%
D14*
%TO.N,GND*%
X151850000Y-102925000D03*
X147750000Y-107700000D03*
X151750000Y-109800000D03*
X150050000Y-102925000D03*
X146775000Y-98800000D03*
X156025000Y-107225000D03*
X153200000Y-98800000D03*
X146850000Y-118050000D03*
X153675000Y-118225000D03*
X146275000Y-106075000D03*
X148250000Y-102950000D03*
X150425000Y-116450000D03*
%TO.N,/BATT_CONN*%
X152875000Y-109700000D03*
X147700000Y-109400000D03*
%TD*%
D15*
%TO.N,/BATT_CONN*%
X152875000Y-109687563D02*
X152112437Y-108925000D01*
X148175000Y-108925000D02*
X147700000Y-109400000D01*
X152112437Y-108925000D02*
X148175000Y-108925000D01*
X152875000Y-109700000D02*
X152875000Y-109687563D01*
%TD*%
%TA.AperFunction,Conductor*%
%TO.N,GND*%
G36*
X155002702Y-90500617D02*
G01*
X155386771Y-90517386D01*
X155397506Y-90518326D01*
X155775971Y-90568152D01*
X155786597Y-90570025D01*
X156159284Y-90652648D01*
X156169710Y-90655442D01*
X156533765Y-90770227D01*
X156543911Y-90773920D01*
X156896578Y-90920000D01*
X156906369Y-90924566D01*
X157244942Y-91100816D01*
X157254310Y-91106224D01*
X157576244Y-91311318D01*
X157585105Y-91317523D01*
X157887930Y-91549889D01*
X157896217Y-91556843D01*
X158177635Y-91814715D01*
X158185284Y-91822364D01*
X158443156Y-92103782D01*
X158450110Y-92112069D01*
X158682476Y-92414894D01*
X158688681Y-92423755D01*
X158893775Y-92745689D01*
X158899183Y-92755057D01*
X159075430Y-93093623D01*
X159080002Y-93103427D01*
X159226075Y-93456078D01*
X159229775Y-93466244D01*
X159286481Y-93646093D01*
X159287867Y-93715949D01*
X159251265Y-93775464D01*
X159188298Y-93805744D01*
X159118956Y-93797174D01*
X159068953Y-93757690D01*
X159015745Y-93686612D01*
X159015729Y-93686594D01*
X158813405Y-93484270D01*
X158813387Y-93484254D01*
X158584317Y-93312775D01*
X158584309Y-93312770D01*
X158333166Y-93175635D01*
X158333167Y-93175635D01*
X158225915Y-93135632D01*
X158065046Y-93075631D01*
X158065043Y-93075630D01*
X158065037Y-93075628D01*
X157785433Y-93014804D01*
X157500001Y-92994390D01*
X157499999Y-92994390D01*
X157214566Y-93014804D01*
X156934962Y-93075628D01*
X156666833Y-93175635D01*
X156415690Y-93312770D01*
X156415682Y-93312775D01*
X156186612Y-93484254D01*
X156186594Y-93484270D01*
X155984270Y-93686594D01*
X155984254Y-93686612D01*
X155812775Y-93915682D01*
X155812770Y-93915690D01*
X155675635Y-94166833D01*
X155575628Y-94434962D01*
X155514804Y-94714566D01*
X155494390Y-94999998D01*
X155494390Y-95000001D01*
X155514804Y-95285433D01*
X155575628Y-95565037D01*
X155575630Y-95565043D01*
X155575631Y-95565046D01*
X155674847Y-95831054D01*
X155675635Y-95833166D01*
X155812770Y-96084309D01*
X155812775Y-96084317D01*
X155984254Y-96313387D01*
X155984270Y-96313405D01*
X156186594Y-96515729D01*
X156186612Y-96515745D01*
X156415682Y-96687224D01*
X156415690Y-96687229D01*
X156666833Y-96824364D01*
X156666832Y-96824364D01*
X156666836Y-96824365D01*
X156666839Y-96824367D01*
X156934954Y-96924369D01*
X156934960Y-96924370D01*
X156934962Y-96924371D01*
X157214566Y-96985195D01*
X157214568Y-96985195D01*
X157214572Y-96985196D01*
X157468220Y-97003337D01*
X157499999Y-97005610D01*
X157500000Y-97005610D01*
X157500001Y-97005610D01*
X157528595Y-97003564D01*
X157785428Y-96985196D01*
X158065046Y-96924369D01*
X158333161Y-96824367D01*
X158584315Y-96687226D01*
X158813395Y-96515739D01*
X159015739Y-96313395D01*
X159187226Y-96084315D01*
X159223992Y-96016982D01*
X159266668Y-95938829D01*
X159316073Y-95889424D01*
X159384346Y-95874572D01*
X159449811Y-95898989D01*
X159491682Y-95954923D01*
X159499500Y-95998256D01*
X159499500Y-114997293D01*
X159499382Y-115002702D01*
X159482614Y-115386750D01*
X159481671Y-115397526D01*
X159431849Y-115775957D01*
X159429971Y-115786610D01*
X159347354Y-116159272D01*
X159344554Y-116169721D01*
X159229775Y-116533755D01*
X159226075Y-116543921D01*
X159080002Y-116896572D01*
X159075430Y-116906376D01*
X158899183Y-117244942D01*
X158893775Y-117254310D01*
X158688681Y-117576244D01*
X158682476Y-117585105D01*
X158450110Y-117887930D01*
X158443156Y-117896217D01*
X158185284Y-118177635D01*
X158177635Y-118185284D01*
X157896217Y-118443156D01*
X157887930Y-118450110D01*
X157585105Y-118682476D01*
X157576244Y-118688681D01*
X157254310Y-118893775D01*
X157244942Y-118899183D01*
X156906376Y-119075430D01*
X156896572Y-119080002D01*
X156543921Y-119226075D01*
X156533755Y-119229775D01*
X156169721Y-119344554D01*
X156159272Y-119347354D01*
X155786610Y-119429971D01*
X155775957Y-119431849D01*
X155397526Y-119481671D01*
X155386750Y-119482614D01*
X155002703Y-119499382D01*
X154997294Y-119499500D01*
X145002706Y-119499500D01*
X144997297Y-119499382D01*
X144613249Y-119482614D01*
X144602473Y-119481671D01*
X144224042Y-119431849D01*
X144213389Y-119429971D01*
X143840727Y-119347354D01*
X143830278Y-119344554D01*
X143466244Y-119229775D01*
X143456078Y-119226075D01*
X143103427Y-119080002D01*
X143093623Y-119075430D01*
X142755057Y-118899183D01*
X142745689Y-118893775D01*
X142423755Y-118688681D01*
X142414894Y-118682476D01*
X142112069Y-118450110D01*
X142103782Y-118443156D01*
X141822364Y-118185284D01*
X141814715Y-118177635D01*
X141556843Y-117896217D01*
X141549889Y-117887930D01*
X141317523Y-117585105D01*
X141311318Y-117576244D01*
X141179926Y-117370000D01*
X155305840Y-117370000D01*
X155346652Y-117504541D01*
X155439503Y-117678253D01*
X155439507Y-117678260D01*
X155564471Y-117830528D01*
X155716739Y-117955491D01*
X155890465Y-118048349D01*
X156025000Y-118089159D01*
X156025000Y-117370000D01*
X155305840Y-117370000D01*
X141179926Y-117370000D01*
X141106224Y-117254310D01*
X141100816Y-117244942D01*
X141058049Y-117162787D01*
X140924566Y-116906369D01*
X140919997Y-116896572D01*
X140904822Y-116859936D01*
X140773920Y-116543911D01*
X140770224Y-116533755D01*
X140746176Y-116457483D01*
X140727380Y-116397870D01*
X155274500Y-116397870D01*
X155274501Y-116397876D01*
X155280908Y-116457483D01*
X155331202Y-116592328D01*
X155331206Y-116592335D01*
X155337561Y-116600824D01*
X155361979Y-116666288D01*
X155348495Y-116729636D01*
X155348981Y-116729838D01*
X155347894Y-116732461D01*
X155347655Y-116733586D01*
X155346650Y-116735464D01*
X155305839Y-116869999D01*
X155305840Y-116870000D01*
X156065382Y-116870000D01*
X156014936Y-116920446D01*
X155972149Y-116994555D01*
X155950000Y-117077213D01*
X155950000Y-117162787D01*
X155972149Y-117245445D01*
X156014936Y-117319554D01*
X156075446Y-117380064D01*
X156149555Y-117422851D01*
X156232213Y-117445000D01*
X156317787Y-117445000D01*
X156400445Y-117422851D01*
X156474554Y-117380064D01*
X156484618Y-117370000D01*
X156525000Y-117370000D01*
X156525000Y-118089159D01*
X156659534Y-118048349D01*
X156833260Y-117955491D01*
X156985528Y-117830528D01*
X157110492Y-117678260D01*
X157110496Y-117678253D01*
X157203347Y-117504541D01*
X157244160Y-117370000D01*
X156525000Y-117370000D01*
X156484618Y-117370000D01*
X156535064Y-117319554D01*
X156577851Y-117245445D01*
X156600000Y-117162787D01*
X156600000Y-117077213D01*
X156577851Y-116994555D01*
X156535064Y-116920446D01*
X156484618Y-116870000D01*
X157244160Y-116870000D01*
X157244160Y-116869999D01*
X157203348Y-116735462D01*
X157202345Y-116733585D01*
X157202115Y-116732483D01*
X157201018Y-116729833D01*
X157201520Y-116729624D01*
X157188105Y-116665182D01*
X157212440Y-116600821D01*
X157218796Y-116592331D01*
X157269091Y-116457483D01*
X157275500Y-116397873D01*
X157275499Y-115302128D01*
X157269091Y-115242517D01*
X157218796Y-115107669D01*
X157218795Y-115107668D01*
X157218793Y-115107664D01*
X157132547Y-114992455D01*
X157132544Y-114992452D01*
X157017335Y-114906206D01*
X157017328Y-114906202D01*
X156882482Y-114855908D01*
X156882483Y-114855908D01*
X156822883Y-114849501D01*
X156822881Y-114849500D01*
X156822873Y-114849500D01*
X156822864Y-114849500D01*
X155727129Y-114849500D01*
X155727123Y-114849501D01*
X155667516Y-114855908D01*
X155532671Y-114906202D01*
X155532664Y-114906206D01*
X155417455Y-114992452D01*
X155417452Y-114992455D01*
X155331206Y-115107664D01*
X155331202Y-115107671D01*
X155280908Y-115242517D01*
X155274501Y-115302116D01*
X155274501Y-115302123D01*
X155274500Y-115302135D01*
X155274500Y-116397870D01*
X140727380Y-116397870D01*
X140655442Y-116169710D01*
X140652648Y-116159284D01*
X140570025Y-115786597D01*
X140568152Y-115775971D01*
X140518326Y-115397506D01*
X140517386Y-115386771D01*
X140500618Y-115002702D01*
X140500500Y-114997293D01*
X140500500Y-114298920D01*
X141199499Y-114298920D01*
X141228340Y-114443907D01*
X141228343Y-114443917D01*
X141284912Y-114580488D01*
X141284919Y-114580501D01*
X141367048Y-114703415D01*
X141367051Y-114703419D01*
X141471580Y-114807948D01*
X141471584Y-114807951D01*
X141594498Y-114890080D01*
X141594511Y-114890087D01*
X141731082Y-114946656D01*
X141731087Y-114946658D01*
X141731091Y-114946658D01*
X141731092Y-114946659D01*
X141876079Y-114975500D01*
X141876082Y-114975500D01*
X142023920Y-114975500D01*
X142121462Y-114956096D01*
X142168913Y-114946658D01*
X142305495Y-114890084D01*
X142428416Y-114807951D01*
X142532951Y-114703416D01*
X142615084Y-114580495D01*
X142671658Y-114443913D01*
X142700500Y-114298918D01*
X142700500Y-114151082D01*
X142700500Y-114151079D01*
X142671659Y-114006092D01*
X142671658Y-114006091D01*
X142671658Y-114006087D01*
X142671656Y-114006082D01*
X142615087Y-113869511D01*
X142615080Y-113869498D01*
X142532951Y-113746584D01*
X142532948Y-113746580D01*
X142428419Y-113642051D01*
X142428415Y-113642048D01*
X142305501Y-113559919D01*
X142305488Y-113559912D01*
X142168917Y-113503343D01*
X142168907Y-113503340D01*
X142023920Y-113474500D01*
X142023918Y-113474500D01*
X141876082Y-113474500D01*
X141876080Y-113474500D01*
X141731092Y-113503340D01*
X141731082Y-113503343D01*
X141594511Y-113559912D01*
X141594498Y-113559919D01*
X141471584Y-113642048D01*
X141471580Y-113642051D01*
X141367051Y-113746580D01*
X141367048Y-113746584D01*
X141284919Y-113869498D01*
X141284912Y-113869511D01*
X141228343Y-114006082D01*
X141228340Y-114006092D01*
X141199500Y-114151079D01*
X141199500Y-114151082D01*
X141199500Y-114298918D01*
X141199500Y-114298920D01*
X141199499Y-114298920D01*
X140500500Y-114298920D01*
X140500500Y-109486233D01*
X146824500Y-109486233D01*
X146858143Y-109655366D01*
X146858146Y-109655378D01*
X146924138Y-109814698D01*
X146924145Y-109814711D01*
X147019954Y-109958098D01*
X147019957Y-109958102D01*
X147141897Y-110080042D01*
X147141901Y-110080045D01*
X147285288Y-110175854D01*
X147285301Y-110175861D01*
X147417864Y-110230770D01*
X147444626Y-110241855D01*
X147613766Y-110275499D01*
X147613769Y-110275500D01*
X147613771Y-110275500D01*
X147786231Y-110275500D01*
X147786232Y-110275499D01*
X147955374Y-110241855D01*
X148114705Y-110175858D01*
X148258099Y-110080045D01*
X148501325Y-109836819D01*
X148562648Y-109803334D01*
X148589006Y-109800500D01*
X151698431Y-109800500D01*
X151765470Y-109820185D01*
X151786112Y-109836819D01*
X152161273Y-110211980D01*
X152176694Y-110230770D01*
X152194954Y-110258098D01*
X152194957Y-110258102D01*
X152316897Y-110380042D01*
X152316901Y-110380045D01*
X152460288Y-110475854D01*
X152460301Y-110475861D01*
X152619621Y-110541853D01*
X152619626Y-110541855D01*
X152788766Y-110575499D01*
X152788769Y-110575500D01*
X152788771Y-110575500D01*
X152961231Y-110575500D01*
X152961232Y-110575499D01*
X153130374Y-110541855D01*
X153289705Y-110475858D01*
X153433099Y-110380045D01*
X153555045Y-110258099D01*
X153650858Y-110114705D01*
X153716855Y-109955374D01*
X153750500Y-109786229D01*
X153750500Y-109601334D01*
X153750500Y-109601331D01*
X153750499Y-109601329D01*
X153716856Y-109432196D01*
X153716855Y-109432189D01*
X153667803Y-109313766D01*
X153650861Y-109272864D01*
X153650854Y-109272851D01*
X153555046Y-109129465D01*
X153555045Y-109129464D01*
X153433099Y-109007518D01*
X153267478Y-108841897D01*
X152670539Y-108244957D01*
X152670535Y-108244954D01*
X152527148Y-108149145D01*
X152527135Y-108149138D01*
X152367815Y-108083146D01*
X152367803Y-108083143D01*
X152198669Y-108049500D01*
X152198666Y-108049500D01*
X148261229Y-108049500D01*
X148088771Y-108049500D01*
X148088768Y-108049500D01*
X147919633Y-108083143D01*
X147919621Y-108083146D01*
X147760301Y-108149138D01*
X147760288Y-108149145D01*
X147616901Y-108244954D01*
X147616897Y-108244957D01*
X147019957Y-108841897D01*
X147019954Y-108841901D01*
X146924145Y-108985288D01*
X146924138Y-108985301D01*
X146858146Y-109144621D01*
X146858143Y-109144633D01*
X146824500Y-109313766D01*
X146824500Y-109486233D01*
X140500500Y-109486233D01*
X140500500Y-107498920D01*
X141199499Y-107498920D01*
X141228340Y-107643907D01*
X141228343Y-107643917D01*
X141284912Y-107780488D01*
X141284919Y-107780501D01*
X141367048Y-107903415D01*
X141367051Y-107903419D01*
X141471580Y-108007948D01*
X141471584Y-108007951D01*
X141594498Y-108090080D01*
X141594511Y-108090087D01*
X141731082Y-108146656D01*
X141731087Y-108146658D01*
X141731091Y-108146658D01*
X141731092Y-108146659D01*
X141876079Y-108175500D01*
X141876082Y-108175500D01*
X142023920Y-108175500D01*
X142156425Y-108149142D01*
X142168913Y-108146658D01*
X142305495Y-108090084D01*
X142428416Y-108007951D01*
X142532951Y-107903416D01*
X142615084Y-107780495D01*
X142671658Y-107643913D01*
X142700500Y-107498918D01*
X142700500Y-107351082D01*
X142700500Y-107351079D01*
X142671659Y-107206092D01*
X142671658Y-107206091D01*
X142671658Y-107206087D01*
X142671656Y-107206082D01*
X142615087Y-107069511D01*
X142615080Y-107069498D01*
X142532951Y-106946584D01*
X142532948Y-106946580D01*
X142428419Y-106842051D01*
X142428415Y-106842048D01*
X142305501Y-106759919D01*
X142305488Y-106759912D01*
X142168917Y-106703343D01*
X142168907Y-106703340D01*
X142023920Y-106674500D01*
X142023918Y-106674500D01*
X141876082Y-106674500D01*
X141876080Y-106674500D01*
X141731092Y-106703340D01*
X141731082Y-106703343D01*
X141594511Y-106759912D01*
X141594498Y-106759919D01*
X141471584Y-106842048D01*
X141471580Y-106842051D01*
X141367051Y-106946580D01*
X141367048Y-106946584D01*
X141284919Y-107069498D01*
X141284912Y-107069511D01*
X141228343Y-107206082D01*
X141228340Y-107206092D01*
X141199500Y-107351079D01*
X141199500Y-107351082D01*
X141199500Y-107498918D01*
X141199500Y-107498920D01*
X141199499Y-107498920D01*
X140500500Y-107498920D01*
X140500500Y-104647870D01*
X142024500Y-104647870D01*
X142024501Y-104647876D01*
X142030908Y-104707483D01*
X142081202Y-104842328D01*
X142081206Y-104842335D01*
X142167452Y-104957544D01*
X142167455Y-104957547D01*
X142282664Y-105043793D01*
X142282671Y-105043797D01*
X142417517Y-105094091D01*
X142417516Y-105094091D01*
X142424444Y-105094835D01*
X142477127Y-105100500D01*
X143572872Y-105100499D01*
X143632483Y-105094091D01*
X143767331Y-105043796D01*
X143882546Y-104957546D01*
X143968796Y-104842331D01*
X144019091Y-104707483D01*
X144025500Y-104647873D01*
X144025499Y-103552128D01*
X144019091Y-103492517D01*
X143968796Y-103357669D01*
X143968794Y-103357666D01*
X143968793Y-103357664D01*
X143962439Y-103349176D01*
X143938021Y-103283712D01*
X143951505Y-103220369D01*
X143951018Y-103220167D01*
X143952110Y-103217530D01*
X143952349Y-103216408D01*
X143953347Y-103214539D01*
X143994160Y-103080000D01*
X143234618Y-103080000D01*
X143285064Y-103029554D01*
X143327851Y-102955445D01*
X143350000Y-102872787D01*
X143350000Y-102787213D01*
X143327851Y-102704555D01*
X143285064Y-102630446D01*
X143224554Y-102569936D01*
X143150445Y-102527149D01*
X143067787Y-102505000D01*
X142982213Y-102505000D01*
X142899555Y-102527149D01*
X142825446Y-102569936D01*
X142764936Y-102630446D01*
X142722149Y-102704555D01*
X142700000Y-102787213D01*
X142700000Y-102872787D01*
X142722149Y-102955445D01*
X142764936Y-103029554D01*
X142815382Y-103080000D01*
X142055840Y-103080000D01*
X142096651Y-103214537D01*
X142097651Y-103216407D01*
X142097878Y-103217501D01*
X142098981Y-103220162D01*
X142098476Y-103220370D01*
X142111896Y-103284809D01*
X142087564Y-103349172D01*
X142081205Y-103357666D01*
X142081202Y-103357671D01*
X142030908Y-103492517D01*
X142024501Y-103552116D01*
X142024501Y-103552123D01*
X142024500Y-103552135D01*
X142024500Y-104647870D01*
X140500500Y-104647870D01*
X140500500Y-102579999D01*
X142055839Y-102579999D01*
X142055840Y-102580000D01*
X142775000Y-102580000D01*
X142775000Y-101860839D01*
X143275000Y-101860839D01*
X143275000Y-102580000D01*
X143994160Y-102580000D01*
X143994160Y-102579999D01*
X143953347Y-102445458D01*
X143860496Y-102271746D01*
X143860492Y-102271739D01*
X143735528Y-102119471D01*
X143583260Y-101994507D01*
X143583253Y-101994503D01*
X143409541Y-101901652D01*
X143275000Y-101860839D01*
X142775000Y-101860839D01*
X142774999Y-101860839D01*
X142640458Y-101901652D01*
X142466746Y-101994503D01*
X142466739Y-101994507D01*
X142314471Y-102119471D01*
X142189507Y-102271739D01*
X142189503Y-102271746D01*
X142096652Y-102445458D01*
X142055839Y-102579999D01*
X140500500Y-102579999D01*
X140500500Y-97728543D01*
X144629499Y-97728543D01*
X144667947Y-97921829D01*
X144667950Y-97921839D01*
X144743364Y-98103907D01*
X144743371Y-98103920D01*
X144852860Y-98267781D01*
X144852863Y-98267785D01*
X144992214Y-98407136D01*
X144992218Y-98407139D01*
X145156079Y-98516628D01*
X145156092Y-98516635D01*
X145338160Y-98592049D01*
X145338165Y-98592051D01*
X145338169Y-98592051D01*
X145338170Y-98592052D01*
X145531456Y-98630500D01*
X145531459Y-98630500D01*
X145728543Y-98630500D01*
X145858582Y-98604632D01*
X145921835Y-98592051D01*
X146103914Y-98516632D01*
X146267782Y-98407139D01*
X146407139Y-98267782D01*
X146516632Y-98103914D01*
X146592051Y-97921835D01*
X146630500Y-97728541D01*
X146630500Y-97211333D01*
X146650185Y-97144294D01*
X146702989Y-97098539D01*
X146772147Y-97088595D01*
X146816501Y-97103947D01*
X146837859Y-97116278D01*
X146837860Y-97116278D01*
X146837865Y-97116281D01*
X146984234Y-97155500D01*
X146984236Y-97155500D01*
X147135764Y-97155500D01*
X147135766Y-97155500D01*
X147282135Y-97116281D01*
X147413365Y-97040515D01*
X147520515Y-96933365D01*
X147596281Y-96802135D01*
X147635500Y-96655766D01*
X152264500Y-96655766D01*
X152284109Y-96728950D01*
X152303719Y-96802136D01*
X152341602Y-96867750D01*
X152379485Y-96933365D01*
X152486635Y-97040515D01*
X152569912Y-97088595D01*
X152617861Y-97116279D01*
X152617865Y-97116281D01*
X152764234Y-97155500D01*
X152764236Y-97155500D01*
X152915764Y-97155500D01*
X152915766Y-97155500D01*
X153062135Y-97116281D01*
X153072451Y-97110325D01*
X153083499Y-97103947D01*
X153151398Y-97087473D01*
X153217426Y-97110325D01*
X153260617Y-97165245D01*
X153269500Y-97211333D01*
X153269500Y-97728541D01*
X153269500Y-97728543D01*
X153269499Y-97728543D01*
X153307947Y-97921829D01*
X153307950Y-97921839D01*
X153383364Y-98103907D01*
X153383371Y-98103920D01*
X153492860Y-98267781D01*
X153492863Y-98267785D01*
X153632214Y-98407136D01*
X153632218Y-98407139D01*
X153796079Y-98516628D01*
X153796092Y-98516635D01*
X153978160Y-98592049D01*
X153978165Y-98592051D01*
X153978169Y-98592051D01*
X153978170Y-98592052D01*
X154171456Y-98630500D01*
X154171459Y-98630500D01*
X154368543Y-98630500D01*
X154498582Y-98604632D01*
X154561835Y-98592051D01*
X154743914Y-98516632D01*
X154907782Y-98407139D01*
X155047139Y-98267782D01*
X155156632Y-98103914D01*
X155232051Y-97921835D01*
X155270500Y-97728541D01*
X155270500Y-96431459D01*
X155270500Y-96431456D01*
X155232052Y-96238170D01*
X155232051Y-96238169D01*
X155232051Y-96238165D01*
X155227274Y-96226632D01*
X155156635Y-96056092D01*
X155156628Y-96056079D01*
X155047139Y-95892218D01*
X155047136Y-95892214D01*
X154907785Y-95752863D01*
X154907781Y-95752860D01*
X154743920Y-95643371D01*
X154743907Y-95643364D01*
X154561839Y-95567950D01*
X154561829Y-95567947D01*
X154368543Y-95529500D01*
X154368541Y-95529500D01*
X154171459Y-95529500D01*
X154171457Y-95529500D01*
X153978170Y-95567947D01*
X153978160Y-95567950D01*
X153796092Y-95643364D01*
X153796079Y-95643371D01*
X153632218Y-95752860D01*
X153632214Y-95752863D01*
X153492863Y-95892214D01*
X153492860Y-95892218D01*
X153383371Y-96056079D01*
X153383363Y-96056094D01*
X153379456Y-96065528D01*
X153335615Y-96119931D01*
X153269320Y-96141995D01*
X153201621Y-96124715D01*
X153196968Y-96121566D01*
X153193366Y-96119486D01*
X153193365Y-96119485D01*
X153099899Y-96065522D01*
X153062136Y-96043719D01*
X152988950Y-96024109D01*
X152915766Y-96004500D01*
X152764234Y-96004500D01*
X152617863Y-96043719D01*
X152486635Y-96119485D01*
X152486632Y-96119487D01*
X152379487Y-96226632D01*
X152379485Y-96226635D01*
X152303719Y-96357863D01*
X152284000Y-96431459D01*
X152264500Y-96504234D01*
X152264500Y-96655766D01*
X147635500Y-96655766D01*
X147635500Y-96504234D01*
X147596281Y-96357865D01*
X147520515Y-96226635D01*
X147413365Y-96119485D01*
X147342838Y-96078766D01*
X147282136Y-96043719D01*
X147208950Y-96024109D01*
X147135766Y-96004500D01*
X146984234Y-96004500D01*
X146837863Y-96043719D01*
X146746428Y-96096510D01*
X146706635Y-96119485D01*
X146706633Y-96119486D01*
X146699597Y-96123549D01*
X146698254Y-96121224D01*
X146645391Y-96141647D01*
X146576949Y-96127592D01*
X146526971Y-96078766D01*
X146520540Y-96065522D01*
X146516632Y-96056087D01*
X146516628Y-96056079D01*
X146407139Y-95892218D01*
X146407136Y-95892214D01*
X146267785Y-95752863D01*
X146267781Y-95752860D01*
X146103920Y-95643371D01*
X146103907Y-95643364D01*
X145921839Y-95567950D01*
X145921829Y-95567947D01*
X145728543Y-95529500D01*
X145728541Y-95529500D01*
X145531459Y-95529500D01*
X145531457Y-95529500D01*
X145338170Y-95567947D01*
X145338160Y-95567950D01*
X145156092Y-95643364D01*
X145156079Y-95643371D01*
X144992218Y-95752860D01*
X144992214Y-95752863D01*
X144852863Y-95892214D01*
X144852860Y-95892218D01*
X144743371Y-96056079D01*
X144743364Y-96056092D01*
X144667950Y-96238160D01*
X144667947Y-96238170D01*
X144629500Y-96431456D01*
X144629500Y-96431459D01*
X144629500Y-97728541D01*
X144629500Y-97728543D01*
X144629499Y-97728543D01*
X140500500Y-97728543D01*
X140500500Y-95998256D01*
X140520185Y-95931217D01*
X140572989Y-95885462D01*
X140642147Y-95875518D01*
X140705703Y-95904543D01*
X140733332Y-95938829D01*
X140812770Y-96084309D01*
X140812775Y-96084317D01*
X140984254Y-96313387D01*
X140984270Y-96313405D01*
X141186594Y-96515729D01*
X141186612Y-96515745D01*
X141415682Y-96687224D01*
X141415690Y-96687229D01*
X141666833Y-96824364D01*
X141666832Y-96824364D01*
X141666836Y-96824365D01*
X141666839Y-96824367D01*
X141934954Y-96924369D01*
X141934960Y-96924370D01*
X141934962Y-96924371D01*
X142214566Y-96985195D01*
X142214568Y-96985195D01*
X142214572Y-96985196D01*
X142468220Y-97003337D01*
X142499999Y-97005610D01*
X142500000Y-97005610D01*
X142500001Y-97005610D01*
X142528595Y-97003564D01*
X142785428Y-96985196D01*
X143065046Y-96924369D01*
X143333161Y-96824367D01*
X143584315Y-96687226D01*
X143813395Y-96515739D01*
X144015739Y-96313395D01*
X144187226Y-96084315D01*
X144324367Y-95833161D01*
X144424369Y-95565046D01*
X144485196Y-95285428D01*
X144505610Y-95000000D01*
X144485196Y-94714572D01*
X144424369Y-94434954D01*
X144324367Y-94166839D01*
X144244025Y-94019705D01*
X144187229Y-93915690D01*
X144187224Y-93915682D01*
X144015745Y-93686612D01*
X144015729Y-93686594D01*
X143929136Y-93600001D01*
X144629500Y-93600001D01*
X144629501Y-93600018D01*
X144640000Y-93702796D01*
X144640001Y-93702799D01*
X144695185Y-93869331D01*
X144695187Y-93869336D01*
X144723775Y-93915685D01*
X144787288Y-94018656D01*
X144911344Y-94142712D01*
X145060666Y-94234814D01*
X145227203Y-94289999D01*
X145329991Y-94300500D01*
X145930008Y-94300499D01*
X145930016Y-94300498D01*
X145930019Y-94300498D01*
X146001001Y-94293247D01*
X146032797Y-94289999D01*
X146199334Y-94234814D01*
X146348656Y-94142712D01*
X146472712Y-94018656D01*
X146564814Y-93869334D01*
X146619999Y-93702797D01*
X146630500Y-93600009D01*
X146630500Y-93600001D01*
X153269500Y-93600001D01*
X153269501Y-93600018D01*
X153280000Y-93702796D01*
X153280001Y-93702799D01*
X153335185Y-93869331D01*
X153335187Y-93869336D01*
X153363775Y-93915685D01*
X153427288Y-94018656D01*
X153551344Y-94142712D01*
X153700666Y-94234814D01*
X153867203Y-94289999D01*
X153969991Y-94300500D01*
X154570008Y-94300499D01*
X154570016Y-94300498D01*
X154570019Y-94300498D01*
X154641001Y-94293247D01*
X154672797Y-94289999D01*
X154839334Y-94234814D01*
X154988656Y-94142712D01*
X155112712Y-94018656D01*
X155204814Y-93869334D01*
X155259999Y-93702797D01*
X155270500Y-93600009D01*
X155270499Y-92199992D01*
X155259999Y-92097203D01*
X155204814Y-91930666D01*
X155112712Y-91781344D01*
X154988656Y-91657288D01*
X154839334Y-91565186D01*
X154672797Y-91510001D01*
X154672795Y-91510000D01*
X154570010Y-91499500D01*
X153969998Y-91499500D01*
X153969980Y-91499501D01*
X153867203Y-91510000D01*
X153867200Y-91510001D01*
X153700668Y-91565185D01*
X153700663Y-91565187D01*
X153551342Y-91657289D01*
X153427289Y-91781342D01*
X153335187Y-91930663D01*
X153335186Y-91930666D01*
X153280001Y-92097203D01*
X153280001Y-92097204D01*
X153280000Y-92097204D01*
X153269500Y-92199983D01*
X153269500Y-93600001D01*
X146630500Y-93600001D01*
X146630499Y-92199992D01*
X146619999Y-92097203D01*
X146564814Y-91930666D01*
X146472712Y-91781344D01*
X146348656Y-91657288D01*
X146199334Y-91565186D01*
X146032797Y-91510001D01*
X146032795Y-91510000D01*
X145930010Y-91499500D01*
X145329998Y-91499500D01*
X145329980Y-91499501D01*
X145227203Y-91510000D01*
X145227200Y-91510001D01*
X145060668Y-91565185D01*
X145060663Y-91565187D01*
X144911342Y-91657289D01*
X144787289Y-91781342D01*
X144695187Y-91930663D01*
X144695186Y-91930666D01*
X144640001Y-92097203D01*
X144640001Y-92097204D01*
X144640000Y-92097204D01*
X144629500Y-92199983D01*
X144629500Y-93600001D01*
X143929136Y-93600001D01*
X143813405Y-93484270D01*
X143813387Y-93484254D01*
X143584317Y-93312775D01*
X143584309Y-93312770D01*
X143333166Y-93175635D01*
X143333167Y-93175635D01*
X143225915Y-93135632D01*
X143065046Y-93075631D01*
X143065043Y-93075630D01*
X143065037Y-93075628D01*
X142785433Y-93014804D01*
X142500001Y-92994390D01*
X142499999Y-92994390D01*
X142214566Y-93014804D01*
X141934962Y-93075628D01*
X141666833Y-93175635D01*
X141415690Y-93312770D01*
X141415682Y-93312775D01*
X141186612Y-93484254D01*
X141186594Y-93484270D01*
X140984270Y-93686594D01*
X140984259Y-93686606D01*
X140931046Y-93757691D01*
X140875112Y-93799562D01*
X140805420Y-93804546D01*
X140744097Y-93771061D01*
X140710613Y-93709737D01*
X140713517Y-93646096D01*
X140770230Y-93466227D01*
X140773917Y-93456095D01*
X140920003Y-93103412D01*
X140924561Y-93093638D01*
X141100822Y-92755045D01*
X141106217Y-92745700D01*
X141311325Y-92423744D01*
X141317515Y-92414905D01*
X141549896Y-92112060D01*
X141556834Y-92103791D01*
X141814726Y-91822352D01*
X141822352Y-91814726D01*
X142103791Y-91556834D01*
X142112060Y-91549896D01*
X142414905Y-91317515D01*
X142423744Y-91311325D01*
X142745700Y-91106217D01*
X142755045Y-91100822D01*
X143093638Y-90924561D01*
X143103412Y-90920003D01*
X143456095Y-90773917D01*
X143466227Y-90770230D01*
X143830295Y-90655440D01*
X143840709Y-90652649D01*
X144213405Y-90570025D01*
X144224025Y-90568152D01*
X144602495Y-90518326D01*
X144613226Y-90517386D01*
X144997297Y-90500617D01*
X145002706Y-90500500D01*
X145065892Y-90500500D01*
X154934108Y-90500500D01*
X154997294Y-90500500D01*
X155002702Y-90500617D01*
G37*
%TD.AperFunction*%
%TD*%
M02*
