%TF.GenerationSoftware,KiCad,Pcbnew,8.0.1*%
%TF.CreationDate,2024-04-06T15:46:49-07:00*%
%TF.ProjectId,Hardware,48617264-7761-4726-952e-6b696361645f,rev?*%
%TF.SameCoordinates,Original*%
%TF.FileFunction,Legend,Bot*%
%TF.FilePolarity,Positive*%
%FSLAX46Y46*%
G04 Gerber Fmt 4.6, Leading zero omitted, Abs format (unit mm)*
G04 Created by KiCad (PCBNEW 8.0.1) date 2024-04-06 15:46:49*
%MOMM*%
%LPD*%
G01*
G04 APERTURE LIST*
%ADD10C,0.000000*%
G04 APERTURE END LIST*
D10*
%TO.C,G\u002A\u002A\u002A*%
G36*
X125558128Y-65911770D02*
G01*
X126027185Y-65967133D01*
X126473022Y-66061711D01*
X126904516Y-66197897D01*
X127330545Y-66378087D01*
X127385865Y-66404808D01*
X127717307Y-66579205D01*
X128014851Y-66763154D01*
X128291113Y-66965883D01*
X128558707Y-67196620D01*
X128819892Y-67453812D01*
X129143905Y-67824972D01*
X129427039Y-68221957D01*
X129668139Y-68642561D01*
X129866051Y-69084579D01*
X130019618Y-69545804D01*
X130106566Y-69910865D01*
X130181108Y-70406982D01*
X130207720Y-70899090D01*
X130187133Y-71384761D01*
X130120077Y-71861568D01*
X130007285Y-72327085D01*
X129849487Y-72778884D01*
X129647414Y-73214537D01*
X129401798Y-73631617D01*
X129113370Y-74027698D01*
X128782860Y-74400351D01*
X128741514Y-74442269D01*
X128375348Y-74776196D01*
X127984536Y-75068217D01*
X127568517Y-75318631D01*
X127126732Y-75527738D01*
X126658621Y-75695839D01*
X126164711Y-75823003D01*
X126054505Y-75845338D01*
X125957115Y-75862311D01*
X125862456Y-75874769D01*
X125760444Y-75883555D01*
X125640995Y-75889514D01*
X125494022Y-75893490D01*
X125309443Y-75896327D01*
X125285481Y-75896617D01*
X125113717Y-75897608D01*
X124948442Y-75896634D01*
X124799290Y-75893899D01*
X124675895Y-75889606D01*
X124587894Y-75883960D01*
X124565000Y-75881401D01*
X124080397Y-75790574D01*
X123608964Y-75654415D01*
X123154338Y-75474729D01*
X122720157Y-75253321D01*
X122310060Y-74991993D01*
X121927684Y-74692552D01*
X121655546Y-74438267D01*
X121320142Y-74066330D01*
X121027214Y-73670520D01*
X120777317Y-73252035D01*
X120571005Y-72812072D01*
X120408834Y-72351828D01*
X120291357Y-71872502D01*
X120219131Y-71375291D01*
X120214664Y-71327404D01*
X120195910Y-70856795D01*
X121204973Y-70856795D01*
X121222707Y-71277611D01*
X121285759Y-71700227D01*
X121395499Y-72121509D01*
X121430459Y-72226454D01*
X121594625Y-72624684D01*
X121801914Y-73003513D01*
X122049094Y-73358932D01*
X122332930Y-73686932D01*
X122650187Y-73983506D01*
X122997634Y-74244643D01*
X123124038Y-74325859D01*
X123483755Y-74519719D01*
X123868882Y-74675898D01*
X124271986Y-74792846D01*
X124685636Y-74869017D01*
X125102401Y-74902860D01*
X125514850Y-74892828D01*
X125730505Y-74869000D01*
X126167083Y-74783553D01*
X126586388Y-74654629D01*
X126985234Y-74483927D01*
X127360435Y-74273148D01*
X127708806Y-74023992D01*
X128027161Y-73738159D01*
X128202320Y-73549901D01*
X128480506Y-73194297D01*
X128713846Y-72819359D01*
X128902258Y-72425275D01*
X129045663Y-72012235D01*
X129143977Y-71580427D01*
X129185032Y-71276180D01*
X129198169Y-71032623D01*
X129193919Y-70762571D01*
X129173475Y-70484699D01*
X129138029Y-70217687D01*
X129107201Y-70057404D01*
X128988910Y-69632271D01*
X128827901Y-69227539D01*
X128626467Y-68845978D01*
X128386898Y-68490360D01*
X128111488Y-68163454D01*
X127802527Y-67868032D01*
X127462308Y-67606865D01*
X127093122Y-67382724D01*
X126765686Y-67226513D01*
X126400968Y-67091215D01*
X126038646Y-66996050D01*
X125666454Y-66938588D01*
X125272128Y-66916395D01*
X125200000Y-66915956D01*
X124828664Y-66929795D01*
X124484352Y-66972642D01*
X124152783Y-67047427D01*
X123819677Y-67157083D01*
X123609232Y-67242518D01*
X123218850Y-67436788D01*
X122858722Y-67667315D01*
X122530218Y-67930968D01*
X122234707Y-68224614D01*
X121973559Y-68545119D01*
X121748143Y-68889353D01*
X121559828Y-69254181D01*
X121409984Y-69636472D01*
X121299981Y-70033093D01*
X121231187Y-70440912D01*
X121204973Y-70856795D01*
X120195910Y-70856795D01*
X120195140Y-70837480D01*
X120223333Y-70353503D01*
X120298219Y-69878168D01*
X120418778Y-69414168D01*
X120583987Y-68964196D01*
X120792825Y-68530948D01*
X121044269Y-68117117D01*
X121337299Y-67725397D01*
X121670891Y-67358481D01*
X121749169Y-67281792D01*
X122112330Y-66966639D01*
X122503968Y-66689250D01*
X122920095Y-66451061D01*
X123356721Y-66253505D01*
X123809854Y-66098019D01*
X124275505Y-65986037D01*
X124749685Y-65918995D01*
X125228402Y-65898328D01*
X125558128Y-65911770D01*
G37*
%TD*%
M02*
