M48
; DRILL file {KiCad 8.0.1} date 2024-04-06T15:46:51-0700
; FORMAT={-:-/ absolute / inch / decimal}
; #@! TF.CreationDate,2024-04-06T15:46:51-07:00
; #@! TF.GenerationSoftware,Kicad,Pcbnew,8.0.1
; #@! TF.FileFunction,Plated,1,2,PTH
FMAT,2
INCH
; #@! TA.AperFunction,Plated,PTH,ViaDrill
T1C0.0118
; #@! TA.AperFunction,Plated,PTH,ComponentDrill
T2C0.0197
; #@! TA.AperFunction,Plated,PTH,ComponentDrill
T3C0.0236
%
G90
G05
T1
X4.2047Y-3.1378
X4.248Y-3.4528
X4.2598Y-2.6299
X4.3386Y-2.3623
X4.4094Y-2.6575
X4.4488Y-2.7283
X4.4843Y-3.0472
X4.5039Y-2.7559
X4.6024Y-3.372
X4.6417Y-3.1772
X4.7795Y-2.8031
X4.8228Y-3.3976
X4.8465Y-3.374
X4.8976Y-3.4882
X4.9016Y-3.2165
X4.9055Y-2.315
X4.9173Y-2.2835
X4.9173Y-2.4173
X4.9409Y-3.3926
X4.9646Y-3.3689
X4.9685Y-3.2165
X4.9843Y-3.5
X4.9882Y-2.689
X5.0354Y-3.2165
X5.0472Y-3.374
X5.0748Y-3.3976
X5.1063Y-3.1319
X5.1102Y-3.0197
X5.1457Y-2.7441
X5.185Y-2.6663
X5.2244Y-2.3819
X5.2323Y-2.3228
X5.2598Y-2.7746
X5.2598Y-2.8081
X5.3307Y-2.6378
X5.3386Y-2.374
X5.3425Y-2.1191
X5.3425Y-2.1841
X5.378Y-2.374
X5.378Y-2.6457
X5.4173Y-2.374
X5.4213Y-2.6378
X5.4331Y-2.874
X5.4409Y-2.7835
X5.4488Y-2.9961
X5.4488Y-3.2244
X5.5079Y-2.6929
X5.5197Y-2.315
X5.5276Y-2.3819
X5.5354Y-2.6614
X5.5906Y-2.1102
X5.7953Y-2.9606
T2
X4.0551Y-2.2047
X4.0551Y-2.2441
X4.0551Y-2.2835
X4.0551Y-2.3228
X4.0551Y-2.3622
X4.0551Y-2.4016
X4.685Y-3.4449
X4.685Y-3.4843
X4.685Y-3.5236
X4.685Y-3.563
X4.685Y-3.6024
X4.685Y-3.6417
T3
G00X4.778Y-3.4398
M15
G01X4.778Y-3.4831
M16
G05
G00X4.778Y-3.6102
M15
G01X4.778Y-3.6417
M16
G05
G00X5.1181Y-3.4398
M15
G01X5.1181Y-3.4831
M16
G05
G00X5.1181Y-3.6102
M15
G01X5.1181Y-3.6417
M16
G05
M30
