%TF.GenerationSoftware,KiCad,Pcbnew,8.0.1*%
%TF.CreationDate,2024-04-06T15:46:48-07:00*%
%TF.ProjectId,Hardware,48617264-7761-4726-952e-6b696361645f,rev?*%
%TF.SameCoordinates,Original*%
%TF.FileFunction,Copper,L1,Top*%
%TF.FilePolarity,Positive*%
%FSLAX46Y46*%
G04 Gerber Fmt 4.6, Leading zero omitted, Abs format (unit mm)*
G04 Created by KiCad (PCBNEW 8.0.1) date 2024-04-06 15:46:48*
%MOMM*%
%LPD*%
G01*
G04 APERTURE LIST*
G04 Aperture macros list*
%AMRoundRect*
0 Rectangle with rounded corners*
0 $1 Rounding radius*
0 $2 $3 $4 $5 $6 $7 $8 $9 X,Y pos of 4 corners*
0 Add a 4 corners polygon primitive as box body*
4,1,4,$2,$3,$4,$5,$6,$7,$8,$9,$2,$3,0*
0 Add four circle primitives for the rounded corners*
1,1,$1+$1,$2,$3*
1,1,$1+$1,$4,$5*
1,1,$1+$1,$6,$7*
1,1,$1+$1,$8,$9*
0 Add four rect primitives between the rounded corners*
20,1,$1+$1,$2,$3,$4,$5,0*
20,1,$1+$1,$4,$5,$6,$7,0*
20,1,$1+$1,$6,$7,$8,$9,0*
20,1,$1+$1,$8,$9,$2,$3,0*%
%AMFreePoly0*
4,1,14,0.728536,0.728536,0.730000,0.725000,0.730000,-0.725000,0.728536,-0.728536,0.725000,-0.730000,-0.725000,-0.730000,-0.728536,-0.728536,-0.730000,-0.725000,-0.730000,0.125000,-0.728536,0.128536,-0.128536,0.728536,-0.125000,0.730000,0.725000,0.730000,0.728536,0.728536,0.728536,0.728536,$1*%
G04 Aperture macros list end*
%TA.AperFunction,SMDPad,CuDef*%
%ADD10R,1.500000X1.000000*%
%TD*%
%TA.AperFunction,SMDPad,CuDef*%
%ADD11C,1.000000*%
%TD*%
%TA.AperFunction,SMDPad,CuDef*%
%ADD12R,0.400000X0.800000*%
%TD*%
%TA.AperFunction,SMDPad,CuDef*%
%ADD13R,0.800000X0.400000*%
%TD*%
%TA.AperFunction,SMDPad,CuDef*%
%ADD14FreePoly0,270.000000*%
%TD*%
%TA.AperFunction,SMDPad,CuDef*%
%ADD15R,1.450000X1.450000*%
%TD*%
%TA.AperFunction,SMDPad,CuDef*%
%ADD16R,0.700000X0.700000*%
%TD*%
%TA.AperFunction,SMDPad,CuDef*%
%ADD17RoundRect,0.225000X0.225000X0.250000X-0.225000X0.250000X-0.225000X-0.250000X0.225000X-0.250000X0*%
%TD*%
%TA.AperFunction,SMDPad,CuDef*%
%ADD18RoundRect,0.200000X-0.275000X0.200000X-0.275000X-0.200000X0.275000X-0.200000X0.275000X0.200000X0*%
%TD*%
%TA.AperFunction,SMDPad,CuDef*%
%ADD19R,1.050000X0.650000*%
%TD*%
%TA.AperFunction,SMDPad,CuDef*%
%ADD20RoundRect,0.200000X0.275000X-0.200000X0.275000X0.200000X-0.275000X0.200000X-0.275000X-0.200000X0*%
%TD*%
%TA.AperFunction,ComponentPad*%
%ADD21R,0.850000X0.850000*%
%TD*%
%TA.AperFunction,ComponentPad*%
%ADD22O,0.850000X0.850000*%
%TD*%
%TA.AperFunction,SMDPad,CuDef*%
%ADD23RoundRect,0.225000X-0.225000X-0.250000X0.225000X-0.250000X0.225000X0.250000X-0.225000X0.250000X0*%
%TD*%
%TA.AperFunction,SMDPad,CuDef*%
%ADD24RoundRect,0.218750X0.256250X-0.218750X0.256250X0.218750X-0.256250X0.218750X-0.256250X-0.218750X0*%
%TD*%
%TA.AperFunction,SMDPad,CuDef*%
%ADD25R,2.500000X1.200000*%
%TD*%
%TA.AperFunction,SMDPad,CuDef*%
%ADD26R,0.600000X1.150000*%
%TD*%
%TA.AperFunction,SMDPad,CuDef*%
%ADD27R,0.300000X1.150000*%
%TD*%
%TA.AperFunction,ComponentPad*%
%ADD28O,1.000000X2.100000*%
%TD*%
%TA.AperFunction,ComponentPad*%
%ADD29RoundRect,0.250000X-0.250000X-0.650000X0.250000X-0.650000X0.250000X0.650000X-0.250000X0.650000X0*%
%TD*%
%TA.AperFunction,SMDPad,CuDef*%
%ADD30RoundRect,0.225000X0.250000X-0.225000X0.250000X0.225000X-0.250000X0.225000X-0.250000X-0.225000X0*%
%TD*%
%TA.AperFunction,SMDPad,CuDef*%
%ADD31C,2.000000*%
%TD*%
%TA.AperFunction,SMDPad,CuDef*%
%ADD32R,2.450000X1.000000*%
%TD*%
%TA.AperFunction,SMDPad,CuDef*%
%ADD33R,1.000000X2.450000*%
%TD*%
%TA.AperFunction,SMDPad,CuDef*%
%ADD34RoundRect,0.218750X-0.256250X0.218750X-0.256250X-0.218750X0.256250X-0.218750X0.256250X0.218750X0*%
%TD*%
%TA.AperFunction,SMDPad,CuDef*%
%ADD35RoundRect,0.375000X0.375000X-0.625000X0.375000X0.625000X-0.375000X0.625000X-0.375000X-0.625000X0*%
%TD*%
%TA.AperFunction,SMDPad,CuDef*%
%ADD36RoundRect,0.500000X1.400000X-0.500000X1.400000X0.500000X-1.400000X0.500000X-1.400000X-0.500000X0*%
%TD*%
%TA.AperFunction,ViaPad*%
%ADD37C,0.600000*%
%TD*%
%TA.AperFunction,Conductor*%
%ADD38C,0.300000*%
%TD*%
%TA.AperFunction,Conductor*%
%ADD39C,0.500000*%
%TD*%
%TA.AperFunction,Conductor*%
%ADD40C,0.800000*%
%TD*%
%TA.AperFunction,Conductor*%
%ADD41C,0.200000*%
%TD*%
G04 APERTURE END LIST*
D10*
%TO.P,D5,1,VSS*%
%TO.N,GND*%
X136700000Y-76100000D03*
%TO.P,D5,2,DIN*%
%TO.N,/NEOPIXEL*%
X136700000Y-72900000D03*
%TO.P,D5,3,VDD*%
%TO.N,+5V*%
X131800000Y-72900000D03*
%TO.P,D5,4,DOUT*%
%TO.N,Net-(D5-DOUT)*%
X131800000Y-76100000D03*
%TD*%
D11*
%TO.P,FID2,*%
%TO.N,*%
X148000000Y-50000000D03*
%TD*%
D12*
%TO.P,U1,1,GND*%
%TO.N,GND*%
X140600000Y-57825000D03*
%TO.P,U1,2,GND*%
X139800000Y-57825000D03*
%TO.P,U1,3,3V3*%
%TO.N,+3.3V*%
X139000000Y-57825000D03*
%TO.P,U1,4,NC*%
%TO.N,unconnected-(U1-NC-Pad4)*%
X138200000Y-57825000D03*
%TO.P,U1,5,IO2*%
%TO.N,Net-(U1-IO2)*%
X137400000Y-57825000D03*
%TO.P,U1,6,IO3*%
%TO.N,/NEOPIXEL*%
X136600000Y-57825000D03*
%TO.P,U1,7,NC*%
%TO.N,unconnected-(U1-NC-Pad7)*%
X135800000Y-57825000D03*
%TO.P,U1,8,EN*%
%TO.N,Net-(U1-EN)*%
X135000000Y-57825000D03*
%TO.P,U1,9,NC*%
%TO.N,unconnected-(U1-NC-Pad9)*%
X134200000Y-57825000D03*
%TO.P,U1,10,NC*%
%TO.N,unconnected-(U1-NC-Pad10)*%
X133400000Y-57825000D03*
%TO.P,U1,11,GND*%
%TO.N,GND*%
X132600000Y-57825000D03*
D13*
%TO.P,U1,12,IO0*%
%TO.N,/DWM3000_RSTn*%
X131700000Y-58925000D03*
%TO.P,U1,13,IO1*%
%TO.N,/DWM3000_IRQ*%
X131700000Y-59725000D03*
%TO.P,U1,14,GND*%
%TO.N,GND*%
X131700000Y-60525000D03*
%TO.P,U1,15,NC*%
%TO.N,unconnected-(U1-NC-Pad15)*%
X131700000Y-61325000D03*
%TO.P,U1,16,IO10*%
%TO.N,Net-(U1-IO10)*%
X131700000Y-62125000D03*
%TO.P,U1,17,NC*%
%TO.N,unconnected-(U1-NC-Pad17)*%
X131700000Y-62925000D03*
%TO.P,U1,18,IO4*%
%TO.N,/DWM3000_SPICLK*%
X131700000Y-63725000D03*
%TO.P,U1,19,IO5*%
%TO.N,/DWM3000_SPIMISO*%
X131700000Y-64525000D03*
%TO.P,U1,20,IO6*%
%TO.N,/DWM3001_SPIMOSI*%
X131700000Y-65325000D03*
%TO.P,U1,21,IO7*%
%TO.N,/DWM3000_SPICS*%
X131700000Y-66125000D03*
%TO.P,U1,22,IO8*%
%TO.N,Net-(U1-IO8)*%
X131700000Y-66925000D03*
%TO.P,U1,23,IO9*%
%TO.N,Net-(U1-IO9)*%
X131700000Y-67725000D03*
%TO.P,U1,24,NC*%
%TO.N,unconnected-(U1-NC-Pad24)*%
X131700000Y-68525000D03*
D12*
%TO.P,U1,25,NC*%
%TO.N,unconnected-(U1-NC-Pad25)*%
X132600000Y-69625000D03*
%TO.P,U1,26,IO18*%
%TO.N,/DN*%
X133400000Y-69625000D03*
%TO.P,U1,27,IO19*%
%TO.N,/DP*%
X134200000Y-69625000D03*
%TO.P,U1,28,NC*%
%TO.N,unconnected-(U1-NC-Pad28)*%
X135000000Y-69625000D03*
%TO.P,U1,29,NC*%
%TO.N,unconnected-(U1-NC-Pad29)*%
X135800000Y-69625000D03*
%TO.P,U1,30,RXD0*%
%TO.N,unconnected-(U1-RXD0-Pad30)*%
X136600000Y-69625000D03*
%TO.P,U1,31,TXD0*%
%TO.N,unconnected-(U1-TXD0-Pad31)*%
X137400000Y-69625000D03*
%TO.P,U1,32,NC*%
%TO.N,unconnected-(U1-NC-Pad32)*%
X138200000Y-69625000D03*
%TO.P,U1,33,NC*%
%TO.N,unconnected-(U1-NC-Pad33)*%
X139000000Y-69625000D03*
%TO.P,U1,34,NC*%
%TO.N,unconnected-(U1-NC-Pad34)*%
X139800000Y-69625000D03*
%TO.P,U1,35,NC*%
%TO.N,unconnected-(U1-NC-Pad35)*%
X140600000Y-69625000D03*
D13*
%TO.P,U1,36,GND*%
%TO.N,GND*%
X141500000Y-68525000D03*
%TO.P,U1,37,GND*%
X141500000Y-67725000D03*
%TO.P,U1,38,GND*%
X141500000Y-66925000D03*
%TO.P,U1,39,GND*%
X141500000Y-66125000D03*
%TO.P,U1,40,GND*%
X141500000Y-65325000D03*
%TO.P,U1,41,GND*%
X141500000Y-64525000D03*
%TO.P,U1,42,GND*%
X141500000Y-63725000D03*
%TO.P,U1,43,GND*%
X141500000Y-62925000D03*
%TO.P,U1,44,GND*%
X141500000Y-62125000D03*
%TO.P,U1,45,GND*%
X141500000Y-61325000D03*
%TO.P,U1,46,GND*%
X141500000Y-60525000D03*
%TO.P,U1,47,GND*%
X141500000Y-59725000D03*
%TO.P,U1,48,GND*%
X141500000Y-58925000D03*
D14*
%TO.P,U1,49_1,GND*%
X138575000Y-61750000D03*
D15*
%TO.P,U1,49_2,GND*%
X138575000Y-63725000D03*
%TO.P,U1,49_3,GND*%
X138575000Y-65700000D03*
%TO.P,U1,49_4,GND*%
X136600000Y-65700000D03*
%TO.P,U1,49_5,GND*%
X134625000Y-65700000D03*
%TO.P,U1,49_6,GND*%
X134625000Y-63725000D03*
%TO.P,U1,49_7,GND*%
X134625000Y-61750000D03*
%TO.P,U1,49_8,GND*%
X136600000Y-61750000D03*
%TO.P,U1,49_9,GND*%
X136600000Y-63725000D03*
D16*
%TO.P,U1,50,GND*%
X141550000Y-69675000D03*
%TO.P,U1,51,GND*%
X131650000Y-69675000D03*
%TO.P,U1,52,GND*%
X131650000Y-57775000D03*
%TO.P,U1,53,GND*%
X141550000Y-57775000D03*
%TD*%
D17*
%TO.P,C6,1*%
%TO.N,+3.3V*%
X110775000Y-90050000D03*
%TO.P,C6,2*%
%TO.N,GND*%
X109225000Y-90050000D03*
%TD*%
D18*
%TO.P,R8,1*%
%TO.N,+3.3V*%
X137400000Y-53825000D03*
%TO.P,R8,2*%
%TO.N,Net-(U1-IO2)*%
X137400000Y-55475000D03*
%TD*%
D10*
%TO.P,D6,1,VSS*%
%TO.N,GND*%
X136700000Y-81800000D03*
%TO.P,D6,2,DIN*%
%TO.N,Net-(D5-DOUT)*%
X136700000Y-78600000D03*
%TO.P,D6,3,VDD*%
%TO.N,+5V*%
X131800000Y-78600000D03*
%TO.P,D6,4,DOUT*%
%TO.N,unconnected-(D6-DOUT-Pad4)*%
X131800000Y-81800000D03*
%TD*%
D19*
%TO.P,SW2,1,1*%
%TO.N,Net-(U1-IO9)*%
X142950000Y-71800000D03*
X147100000Y-71800000D03*
%TO.P,SW2,2,2*%
%TO.N,GND*%
X142950000Y-73950000D03*
X147100000Y-73950000D03*
%TD*%
D18*
%TO.P,R7,1*%
%TO.N,Net-(DWM1-GPIO3{slash}TXLED)*%
X115000000Y-72050000D03*
%TO.P,R7,2*%
%TO.N,Net-(D4-A)*%
X115000000Y-73700000D03*
%TD*%
D20*
%TO.P,R11,1*%
%TO.N,+5V*%
X116900000Y-85650000D03*
%TO.P,R11,2*%
%TO.N,Net-(D7-A)*%
X116900000Y-84000000D03*
%TD*%
D21*
%TO.P,J2,1,Pin_1*%
%TO.N,/DWM3000_EXTPA*%
X103000000Y-61000000D03*
D22*
%TO.P,J2,2,Pin_2*%
%TO.N,/DWM3000_SPIPOL*%
X103000000Y-60000000D03*
%TO.P,J2,3,Pin_3*%
%TO.N,/DWM3000_SPIHA*%
X103000000Y-59000000D03*
%TO.P,J2,4,Pin_4*%
%TO.N,/DWM3000_GPIO7*%
X103000000Y-58000000D03*
%TO.P,J2,5,Pin_5*%
%TO.N,/DWM3000_WAKEUP*%
X103000000Y-57000000D03*
%TO.P,J2,6,Pin_6*%
%TO.N,/DWM3000_EXTON*%
X103000000Y-56000000D03*
%TD*%
D18*
%TO.P,R6,1*%
%TO.N,Net-(DWM1-GPIO2{slash}RXLED)*%
X116600000Y-72050000D03*
%TO.P,R6,2*%
%TO.N,Net-(D3-A)*%
X116600000Y-73700000D03*
%TD*%
D23*
%TO.P,C2,1*%
%TO.N,+3.3V*%
X139200000Y-53750000D03*
%TO.P,C2,2*%
%TO.N,GND*%
X140750000Y-53750000D03*
%TD*%
D24*
%TO.P,D1,1,K*%
%TO.N,GND*%
X119800000Y-77300000D03*
%TO.P,D1,2,A*%
%TO.N,Net-(D1-A)*%
X119800000Y-75725000D03*
%TD*%
D25*
%TO.P,S1,1*%
%TO.N,Net-(DWM1-VDDAON)*%
X106750000Y-65500000D03*
%TO.P,S1,2*%
%TO.N,+3.3V*%
X106750000Y-68000000D03*
%TO.P,S1,3*%
%TO.N,unconnected-(S1-Pad3)*%
X106750000Y-70500000D03*
%TD*%
D20*
%TO.P,R2,1*%
%TO.N,/CC1*%
X124500000Y-84325000D03*
%TO.P,R2,2*%
%TO.N,GND*%
X124500000Y-82675000D03*
%TD*%
D24*
%TO.P,D4,1,K*%
%TO.N,GND*%
X115000000Y-77287500D03*
%TO.P,D4,2,A*%
%TO.N,Net-(D4-A)*%
X115000000Y-75712500D03*
%TD*%
D20*
%TO.P,R12,1*%
%TO.N,+3.3V*%
X106825000Y-85700000D03*
%TO.P,R12,2*%
%TO.N,Net-(D8-A)*%
X106825000Y-84050000D03*
%TD*%
D26*
%TO.P,J1,A1_B12,GND*%
%TO.N,GND*%
X122480000Y-87345000D03*
%TO.P,J1,A4_B9,VBUS*%
%TO.N,+5V*%
X123280000Y-87345000D03*
D27*
%TO.P,J1,A5,CC1*%
%TO.N,/CC1*%
X124430000Y-87345000D03*
%TO.P,J1,A6,DP1*%
%TO.N,/DP*%
X125430000Y-87345000D03*
%TO.P,J1,A7,DN1*%
%TO.N,/DN*%
X125930000Y-87345000D03*
%TO.P,J1,A8,SBU1*%
%TO.N,unconnected-(J1-SBU1-PadA8)*%
X126930000Y-87345000D03*
D26*
%TO.P,J1,B1_A12,GND*%
%TO.N,GND*%
X128880000Y-87345000D03*
%TO.P,J1,B4_A9,VBUS*%
%TO.N,+5V*%
X128080000Y-87345000D03*
D27*
%TO.P,J1,B5,CC2*%
%TO.N,/CC2*%
X127430000Y-87345000D03*
%TO.P,J1,B6,DP2*%
%TO.N,/DP*%
X126430000Y-87345000D03*
%TO.P,J1,B7,DN2*%
%TO.N,/DN*%
X124930000Y-87345000D03*
%TO.P,J1,B8,SBU2*%
%TO.N,unconnected-(J1-SBU2-PadB8)*%
X123930000Y-87345000D03*
D28*
%TO.P,J1,SH1,SHELL_GND*%
%TO.N,Net-(J1-SHELL_GND-PadSH1)*%
X121360000Y-87920000D03*
%TO.P,J1,SH2,SHELL_GND*%
X130000000Y-87920000D03*
D29*
%TO.P,J1,SH3,SHELL_GND*%
X121360000Y-92100000D03*
%TO.P,J1,SH4,SHELL_GND*%
X130000000Y-92100000D03*
%TD*%
D24*
%TO.P,D3,1,K*%
%TO.N,GND*%
X116600000Y-77287500D03*
%TO.P,D3,2,A*%
%TO.N,Net-(D3-A)*%
X116600000Y-75712500D03*
%TD*%
D30*
%TO.P,C4,1*%
%TO.N,GND*%
X129700000Y-81100000D03*
%TO.P,C4,2*%
%TO.N,+5V*%
X129700000Y-79550000D03*
%TD*%
D24*
%TO.P,D2,1,K*%
%TO.N,GND*%
X118200000Y-77287500D03*
%TO.P,D2,2,A*%
%TO.N,Net-(D2-A)*%
X118200000Y-75712500D03*
%TD*%
D11*
%TO.P,FID1,*%
%TO.N,*%
X102000000Y-50000000D03*
%TD*%
D31*
%TO.P,TP1,1,1*%
%TO.N,Net-(U1-IO10)*%
X129100000Y-62200000D03*
%TD*%
D20*
%TO.P,R3,1*%
%TO.N,/CC2*%
X126200000Y-84350000D03*
%TO.P,R3,2*%
%TO.N,GND*%
X126200000Y-82700000D03*
%TD*%
D32*
%TO.P,DWM1,1,EXTON*%
%TO.N,/DWM3000_EXTON*%
X110200000Y-57201200D03*
%TO.P,DWM1,2,WAKEUP*%
%TO.N,/DWM3000_WAKEUP*%
X110200000Y-58601200D03*
%TO.P,DWM1,3,~{RST}*%
%TO.N,/DWM3000_RSTn*%
X110200000Y-60001200D03*
%TO.P,DWM1,4,GPIO7*%
%TO.N,/DWM3000_GPIO7*%
X110200000Y-61401200D03*
%TO.P,DWM1,5,VDDAON*%
%TO.N,Net-(DWM1-VDDAON)*%
X110200000Y-62801200D03*
%TO.P,DWM1,6,VDD3V3*%
X110200000Y-64201200D03*
%TO.P,DWM1,7,VDD3V3*%
X110200000Y-65601200D03*
%TO.P,DWM1,8,VSS*%
%TO.N,GND*%
X110200000Y-67001200D03*
D33*
%TO.P,DWM1,9,GPIO6/EXTRXE/SPIHA*%
%TO.N,/DWM3000_SPIHA*%
X111600000Y-69296200D03*
%TO.P,DWM1,10,GPIO5/EXTTXE/SPIPOL*%
%TO.N,/DWM3000_SPIPOL*%
X113000000Y-69296200D03*
%TO.P,DWM1,11,GPIO4/EXTPA*%
%TO.N,/DWM3000_EXTPA*%
X114400000Y-69296200D03*
%TO.P,DWM1,12,GPIO3/TXLED*%
%TO.N,Net-(DWM1-GPIO3{slash}TXLED)*%
X115800000Y-69296200D03*
%TO.P,DWM1,13,GPIO2/RXLED*%
%TO.N,Net-(DWM1-GPIO2{slash}RXLED)*%
X117200000Y-69296200D03*
%TO.P,DWM1,14,GPIO1/SFDLED*%
%TO.N,Net-(DWM1-GPIO1{slash}SFDLED)*%
X118600000Y-69296200D03*
%TO.P,DWM1,15,GPIO0/RXOKLED*%
%TO.N,Net-(DWM1-GPIO0{slash}RXOKLED)*%
X120000000Y-69296200D03*
%TO.P,DWM1,16,VSS*%
%TO.N,GND*%
X121400000Y-69296200D03*
D32*
%TO.P,DWM1,17,~{SPICS}*%
%TO.N,/DWM3000_SPICS*%
X122800000Y-67000000D03*
%TO.P,DWM1,18,SPIMOSI*%
%TO.N,/DWM3001_SPIMOSI*%
X122800000Y-65600000D03*
%TO.P,DWM1,19,SPIMISO*%
%TO.N,/DWM3000_SPIMISO*%
X122800000Y-64201200D03*
%TO.P,DWM1,20,SPICLK*%
%TO.N,/DWM3000_SPICLK*%
X122800000Y-62801200D03*
%TO.P,DWM1,21,VSS*%
%TO.N,GND*%
X122800000Y-61401200D03*
%TO.P,DWM1,22,IRQ/GPIO8*%
%TO.N,/DWM3000_IRQ*%
X122800000Y-60001200D03*
%TO.P,DWM1,23,VSS*%
%TO.N,GND*%
X122800000Y-58601200D03*
%TO.P,DWM1,24,VSS*%
X122800000Y-57201200D03*
%TD*%
D11*
%TO.P,FID3,*%
%TO.N,*%
X102000000Y-90000000D03*
%TD*%
D18*
%TO.P,R5,1*%
%TO.N,Net-(DWM1-GPIO1{slash}SFDLED)*%
X118200000Y-72050000D03*
%TO.P,R5,2*%
%TO.N,Net-(D2-A)*%
X118200000Y-73700000D03*
%TD*%
D34*
%TO.P,D8,1,K*%
%TO.N,GND*%
X106825000Y-80812500D03*
%TO.P,D8,2,A*%
%TO.N,Net-(D8-A)*%
X106825000Y-82387500D03*
%TD*%
D19*
%TO.P,SW1,1,1*%
%TO.N,Net-(U1-EN)*%
X142925000Y-53625000D03*
X147075000Y-53625000D03*
%TO.P,SW1,2,2*%
%TO.N,GND*%
X142925000Y-55775000D03*
X147075000Y-55775000D03*
%TD*%
D21*
%TO.P,J3,1,Pin_1*%
%TO.N,/CC1*%
X119000000Y-92500000D03*
D22*
%TO.P,J3,2,Pin_2*%
%TO.N,/CC2*%
X119000000Y-91500000D03*
%TO.P,J3,3,Pin_3*%
%TO.N,+5V*%
X119000000Y-90500000D03*
%TO.P,J3,4,Pin_4*%
%TO.N,unconnected-(J3-Pin_4-Pad4)*%
X119000000Y-89500000D03*
%TO.P,J3,5,Pin_5*%
%TO.N,unconnected-(J3-Pin_5-Pad5)*%
X119000000Y-88500000D03*
%TO.P,J3,6,Pin_6*%
%TO.N,GND*%
X119000000Y-87500000D03*
%TD*%
D34*
%TO.P,D7,1,K*%
%TO.N,GND*%
X116900000Y-80750000D03*
%TO.P,D7,2,A*%
%TO.N,Net-(D7-A)*%
X116900000Y-82325000D03*
%TD*%
D17*
%TO.P,C5,1*%
%TO.N,+5V*%
X113975000Y-90050000D03*
%TO.P,C5,2*%
%TO.N,GND*%
X112425000Y-90050000D03*
%TD*%
D11*
%TO.P,FID4,*%
%TO.N,*%
X148000000Y-90000000D03*
%TD*%
D20*
%TO.P,R9,1*%
%TO.N,+3.3V*%
X129400000Y-68500000D03*
%TO.P,R9,2*%
%TO.N,Net-(U1-IO8)*%
X129400000Y-66850000D03*
%TD*%
D23*
%TO.P,C1,1*%
%TO.N,+3.3V*%
X139200000Y-55450000D03*
%TO.P,C1,2*%
%TO.N,GND*%
X140750000Y-55450000D03*
%TD*%
D20*
%TO.P,R1,1*%
%TO.N,Net-(J1-SHELL_GND-PadSH1)*%
X127900000Y-84325000D03*
%TO.P,R1,2*%
%TO.N,GND*%
X127900000Y-82675000D03*
%TD*%
D35*
%TO.P,U3,1,GND*%
%TO.N,GND*%
X109500000Y-87650000D03*
%TO.P,U3,2,VO*%
%TO.N,+3.3V*%
X111800000Y-87650000D03*
D36*
X111800000Y-81350000D03*
D35*
%TO.P,U3,3,VI*%
%TO.N,+5V*%
X114100000Y-87650000D03*
%TD*%
D18*
%TO.P,R4,1*%
%TO.N,Net-(DWM1-GPIO0{slash}RXOKLED)*%
X119800000Y-72075000D03*
%TO.P,R4,2*%
%TO.N,Net-(D1-A)*%
X119800000Y-73725000D03*
%TD*%
%TO.P,R10,1*%
%TO.N,+3.3V*%
X135700000Y-53825000D03*
%TO.P,R10,2*%
%TO.N,Net-(U1-EN)*%
X135700000Y-55475000D03*
%TD*%
D30*
%TO.P,C3,1*%
%TO.N,GND*%
X129700000Y-75375000D03*
%TO.P,C3,2*%
%TO.N,+5V*%
X129700000Y-73825000D03*
%TD*%
D37*
%TO.N,GND*%
X106800000Y-79700000D03*
X137600000Y-60300000D03*
X128900000Y-86300000D03*
X135600000Y-60300000D03*
X126200000Y-81700000D03*
X147200000Y-75200000D03*
X135400000Y-67000000D03*
X140400000Y-60500000D03*
X130700000Y-69700000D03*
X140200000Y-58800000D03*
X121400000Y-71200000D03*
X132900000Y-59000000D03*
X127900000Y-81700000D03*
X140600000Y-67600000D03*
X129800000Y-76700000D03*
X132700000Y-60500000D03*
X124500000Y-81700000D03*
X138400000Y-81900000D03*
X137700000Y-67000000D03*
X122500000Y-86300000D03*
X107900000Y-87700000D03*
X138400000Y-76100000D03*
X113900000Y-77400000D03*
X108200000Y-66800000D03*
X124900000Y-58000000D03*
X136600000Y-60300000D03*
X124900000Y-61400000D03*
X136600000Y-67200000D03*
X117900000Y-80700000D03*
%TO.N,+3.3V*%
X135700000Y-53825000D03*
X126700000Y-68300000D03*
%TO.N,+5V*%
X123100000Y-85700000D03*
X116900000Y-85650000D03*
X129700000Y-79550000D03*
X128200000Y-85700000D03*
%TO.N,/NEOPIXEL*%
X139900000Y-68400000D03*
X138000000Y-73000000D03*
%TO.N,/DWM3000_SPIPOL*%
X113000000Y-69300000D03*
%TO.N,/DWM3000_SPIHA*%
X112000000Y-67500000D03*
%TO.N,/DWM3000_RSTn*%
X124600000Y-58800000D03*
X110200000Y-60001200D03*
%TO.N,/DWM3000_EXTPA*%
X114400000Y-70000000D03*
%TO.N,/DN*%
X133600000Y-70475000D03*
X125499479Y-86172292D03*
%TO.N,/DP*%
X126100521Y-85571250D03*
X133600000Y-71325000D03*
%TO.N,/CC1*%
X124400000Y-88600000D03*
%TO.N,/CC2*%
X126600000Y-88900000D03*
%TO.N,Net-(U1-EN)*%
X142000000Y-53600000D03*
X135700000Y-55475000D03*
%TO.N,Net-(U1-IO9)*%
X138200000Y-70700000D03*
X131700000Y-67725000D03*
%TD*%
D38*
%TO.N,GND*%
X122480000Y-86320000D02*
X122500000Y-86300000D01*
D39*
X110150000Y-90975000D02*
X109225000Y-90050000D01*
D38*
X108401200Y-67001200D02*
X108200000Y-66800000D01*
D40*
X137600000Y-60300000D02*
X138575000Y-61275000D01*
X138575000Y-61750000D02*
X138575000Y-65700000D01*
D38*
X136700000Y-81800000D02*
X138300000Y-81800000D01*
D39*
X129700000Y-75375000D02*
X129700000Y-76600000D01*
D40*
X138575000Y-61275000D02*
X138575000Y-61750000D01*
D38*
X130725000Y-69675000D02*
X130700000Y-69700000D01*
D40*
X135600000Y-60300000D02*
X134625000Y-61275000D01*
D39*
X141500000Y-67725000D02*
X140725000Y-67725000D01*
D38*
X122800000Y-57201200D02*
X124101200Y-57201200D01*
X116900000Y-80750000D02*
X117850000Y-80750000D01*
D40*
X140750000Y-53750000D02*
X140750000Y-56975000D01*
D38*
X117300000Y-77287500D02*
X119787500Y-77287500D01*
X126200000Y-81700000D02*
X126200000Y-82700000D01*
D40*
X142925000Y-55775000D02*
X147075000Y-55775000D01*
X134625000Y-63725000D02*
X138575000Y-63725000D01*
D38*
X131650000Y-57775000D02*
X131675000Y-57775000D01*
D40*
X138575000Y-66125000D02*
X138575000Y-65700000D01*
D39*
X111500000Y-90975000D02*
X110150000Y-90975000D01*
X109225000Y-90050000D02*
X109225000Y-87925000D01*
D38*
X106825000Y-79725000D02*
X106800000Y-79700000D01*
D40*
X134625000Y-61750000D02*
X134625000Y-65700000D01*
D38*
X139800000Y-57825000D02*
X141500000Y-57825000D01*
X115000000Y-77287500D02*
X117300000Y-77287500D01*
X128880000Y-86320000D02*
X128900000Y-86300000D01*
X141225000Y-57775000D02*
X140200000Y-58800000D01*
D39*
X124898800Y-61401200D02*
X124900000Y-61400000D01*
D38*
X131650000Y-57775000D02*
X132550000Y-57775000D01*
X124500000Y-82675000D02*
X124500000Y-81700000D01*
D39*
X109225000Y-87925000D02*
X109500000Y-87650000D01*
X141500000Y-60525000D02*
X140425000Y-60525000D01*
D40*
X136600000Y-65700000D02*
X136600000Y-67200000D01*
D38*
X106825000Y-80812500D02*
X106825000Y-79725000D01*
D40*
X134625000Y-66225000D02*
X134625000Y-65700000D01*
D39*
X128500000Y-81100000D02*
X127900000Y-81700000D01*
D38*
X114012500Y-77287500D02*
X113900000Y-77400000D01*
D40*
X138575000Y-65700000D02*
X134625000Y-65700000D01*
X134625000Y-61275000D02*
X134625000Y-61750000D01*
X140750000Y-56975000D02*
X141550000Y-57775000D01*
D38*
X117300000Y-77287500D02*
X114012500Y-77287500D01*
D39*
X132675000Y-60525000D02*
X132700000Y-60500000D01*
D38*
X131650000Y-69675000D02*
X130725000Y-69675000D01*
X147100000Y-75100000D02*
X147200000Y-75200000D01*
X128880000Y-87345000D02*
X128880000Y-86320000D01*
X136700000Y-76100000D02*
X138400000Y-76100000D01*
D40*
X134625000Y-61750000D02*
X138575000Y-61750000D01*
D38*
X124101200Y-57201200D02*
X124900000Y-58000000D01*
D39*
X140725000Y-67725000D02*
X140600000Y-67600000D01*
X112425000Y-90050000D02*
X111500000Y-90975000D01*
D38*
X122800000Y-58601200D02*
X122800000Y-57201200D01*
X147100000Y-73950000D02*
X147100000Y-75100000D01*
D40*
X136600000Y-61750000D02*
X136600000Y-60300000D01*
X109500000Y-87650000D02*
X107950000Y-87650000D01*
D38*
X117850000Y-80750000D02*
X117900000Y-80700000D01*
X121400000Y-69296200D02*
X121400000Y-71200000D01*
D40*
X142600000Y-55450000D02*
X142925000Y-55775000D01*
D38*
X141550000Y-57775000D02*
X141225000Y-57775000D01*
X122480000Y-87345000D02*
X122480000Y-86320000D01*
X127900000Y-82675000D02*
X127900000Y-81700000D01*
X131675000Y-57775000D02*
X132900000Y-59000000D01*
D39*
X122800000Y-61401200D02*
X124898800Y-61401200D01*
D40*
X107950000Y-87650000D02*
X107900000Y-87700000D01*
D39*
X129700000Y-76600000D02*
X129800000Y-76700000D01*
D40*
X137700000Y-67000000D02*
X138575000Y-66125000D01*
D38*
X110200000Y-67001200D02*
X108401200Y-67001200D01*
X132550000Y-57775000D02*
X132600000Y-57825000D01*
D40*
X142950000Y-73950000D02*
X147100000Y-73950000D01*
D39*
X131700000Y-60525000D02*
X132675000Y-60525000D01*
D38*
X141500000Y-57825000D02*
X141550000Y-57775000D01*
D39*
X129700000Y-81100000D02*
X128500000Y-81100000D01*
D40*
X140750000Y-55450000D02*
X142600000Y-55450000D01*
D38*
X141550000Y-69675000D02*
X141550000Y-57775000D01*
X119787500Y-77287500D02*
X119800000Y-77300000D01*
D40*
X136600000Y-65700000D02*
X136600000Y-61750000D01*
D39*
X140425000Y-60525000D02*
X140400000Y-60500000D01*
D40*
X135400000Y-67000000D02*
X134625000Y-66225000D01*
D38*
X138300000Y-81800000D02*
X138400000Y-81900000D01*
D40*
%TO.N,+3.3V*%
X126900000Y-68500000D02*
X126700000Y-68300000D01*
X111800000Y-72500000D02*
X111800000Y-81350000D01*
X111800000Y-81350000D02*
X111800000Y-87650000D01*
X139200000Y-55450000D02*
X139200000Y-53750000D01*
D38*
X139200000Y-53750000D02*
X139200000Y-57625000D01*
D40*
X113450000Y-79700000D02*
X120000000Y-79700000D01*
X129400000Y-68500000D02*
X126900000Y-68500000D01*
X111800000Y-87650000D02*
X111800000Y-89025000D01*
X106750000Y-68000000D02*
X107300000Y-68000000D01*
X107300000Y-68000000D02*
X111800000Y-72500000D01*
X135700000Y-53825000D02*
X139125000Y-53825000D01*
D38*
X109850000Y-85700000D02*
X111800000Y-87650000D01*
D40*
X139125000Y-53825000D02*
X139200000Y-53750000D01*
D38*
X106825000Y-85700000D02*
X109850000Y-85700000D01*
X139200000Y-57625000D02*
X139000000Y-57825000D01*
D40*
X111800000Y-89025000D02*
X110775000Y-90050000D01*
X129400000Y-70300000D02*
X129400000Y-68500000D01*
X111800000Y-81350000D02*
X113450000Y-79700000D01*
X120000000Y-79700000D02*
X129400000Y-70300000D01*
D38*
%TO.N,+5V*%
X130625000Y-72900000D02*
X129700000Y-73825000D01*
D41*
X123465000Y-88140406D02*
X123280000Y-87955406D01*
X129700000Y-79300000D02*
X128925000Y-78525000D01*
X126900000Y-89600000D02*
X124400000Y-89600000D01*
D39*
X113975000Y-87775000D02*
X114100000Y-87650000D01*
D41*
X123465000Y-88665000D02*
X123465000Y-88140406D01*
D39*
X113975000Y-90050000D02*
X113975000Y-87775000D01*
D41*
X128925000Y-78525000D02*
X128925000Y-74600000D01*
D38*
X131800000Y-72900000D02*
X130625000Y-72900000D01*
D41*
X124400000Y-89600000D02*
X123465000Y-88665000D01*
D40*
X114900000Y-87650000D02*
X116900000Y-85650000D01*
D41*
X127880000Y-88620000D02*
X126900000Y-89600000D01*
X128080000Y-87345000D02*
X127880000Y-87545000D01*
D38*
X123280000Y-87345000D02*
X123280000Y-85880000D01*
D41*
X128080000Y-85820000D02*
X128200000Y-85700000D01*
X123280000Y-87955406D02*
X123280000Y-87345000D01*
D38*
X131800000Y-78600000D02*
X130650000Y-78600000D01*
D41*
X127880000Y-87545000D02*
X127880000Y-88620000D01*
D38*
X130650000Y-78600000D02*
X129700000Y-79550000D01*
D39*
X114100000Y-87650000D02*
X116950000Y-90500000D01*
D40*
X114100000Y-87650000D02*
X114900000Y-87650000D01*
D38*
X123280000Y-85880000D02*
X123100000Y-85700000D01*
D41*
X128080000Y-87345000D02*
X128080000Y-85820000D01*
D39*
X116950000Y-90500000D02*
X119000000Y-90500000D01*
D41*
X129700000Y-79550000D02*
X129700000Y-79300000D01*
X128925000Y-74600000D02*
X129700000Y-73825000D01*
D38*
%TO.N,Net-(D1-A)*%
X119800000Y-73725000D02*
X119800000Y-75725000D01*
%TO.N,Net-(D2-A)*%
X118200000Y-73700000D02*
X118200000Y-75712500D01*
%TO.N,Net-(D3-A)*%
X116600000Y-73700000D02*
X116600000Y-75712500D01*
%TO.N,Net-(D4-A)*%
X115000000Y-73700000D02*
X115000000Y-75712500D01*
%TO.N,Net-(D5-DOUT)*%
X134300000Y-78600000D02*
X131800000Y-76100000D01*
X136700000Y-78600000D02*
X134300000Y-78600000D01*
%TO.N,/NEOPIXEL*%
X136600000Y-57825000D02*
X136600000Y-58239340D01*
X136600000Y-58239340D02*
X139900000Y-61539340D01*
X136800000Y-73000000D02*
X136700000Y-72900000D01*
X139900000Y-61539340D02*
X139900000Y-68400000D01*
X138000000Y-73000000D02*
X136800000Y-73000000D01*
D40*
%TO.N,Net-(DWM1-VDDAON)*%
X106750000Y-65500000D02*
X110098800Y-65500000D01*
X110200000Y-65601200D02*
X110200000Y-62801200D01*
X110098800Y-65500000D02*
X110200000Y-65601200D01*
D38*
%TO.N,Net-(DWM1-GPIO0{slash}RXOKLED)*%
X120000000Y-69296200D02*
X120000000Y-71875000D01*
X120000000Y-71875000D02*
X119800000Y-72075000D01*
%TO.N,/DWM3000_IRQ*%
X131700000Y-59725000D02*
X123076200Y-59725000D01*
X123076200Y-59725000D02*
X122800000Y-60001200D01*
%TO.N,/DWM3000_SPIPOL*%
X113000000Y-69296200D02*
X113000000Y-69300000D01*
%TO.N,/DWM3000_SPIMISO*%
X122800000Y-64201200D02*
X123123800Y-64525000D01*
X123123800Y-64525000D02*
X131700000Y-64525000D01*
%TO.N,Net-(DWM1-GPIO1{slash}SFDLED)*%
X118600000Y-69296200D02*
X118600000Y-71650000D01*
X118600000Y-71650000D02*
X118200000Y-72050000D01*
%TO.N,/DWM3000_EXTON*%
X103000000Y-56000000D02*
X104300000Y-56000000D01*
X105501200Y-57201200D02*
X110200000Y-57201200D01*
X104300000Y-56000000D02*
X105501200Y-57201200D01*
%TO.N,Net-(DWM1-GPIO2{slash}RXLED)*%
X117200000Y-71450000D02*
X116600000Y-72050000D01*
X117200000Y-69296200D02*
X117200000Y-71450000D01*
%TO.N,/DWM3000_SPIHA*%
X111600000Y-69296200D02*
X111600000Y-67900000D01*
X111600000Y-67900000D02*
X112000000Y-67500000D01*
%TO.N,/DWM3000_WAKEUP*%
X104500000Y-57000000D02*
X106101200Y-58601200D01*
X103000000Y-57000000D02*
X104500000Y-57000000D01*
X106101200Y-58601200D02*
X110200000Y-58601200D01*
%TO.N,/DWM3000_RSTn*%
X124725000Y-58925000D02*
X131700000Y-58925000D01*
X124600000Y-58800000D02*
X124725000Y-58925000D01*
%TO.N,/DWM3001_SPIMOSI*%
X123075000Y-65325000D02*
X131700000Y-65325000D01*
X122800000Y-65600000D02*
X123075000Y-65325000D01*
%TO.N,/DWM3000_SPICS*%
X127991642Y-67000000D02*
X128991642Y-66000000D01*
X131575000Y-66000000D02*
X131700000Y-66125000D01*
X128991642Y-66000000D02*
X131575000Y-66000000D01*
X122800000Y-67000000D02*
X127991642Y-67000000D01*
%TO.N,Net-(DWM1-GPIO3{slash}TXLED)*%
X115800000Y-69296200D02*
X115800000Y-71250000D01*
X115800000Y-71250000D02*
X115000000Y-72050000D01*
%TO.N,/DWM3000_EXTPA*%
X114400000Y-69296200D02*
X114400000Y-70000000D01*
%TO.N,/DWM3000_GPIO7*%
X108101200Y-61401200D02*
X110200000Y-61401200D01*
X103000000Y-58000000D02*
X104700000Y-58000000D01*
X104700000Y-58000000D02*
X108101200Y-61401200D01*
%TO.N,/DWM3000_SPICLK*%
X128715811Y-63725000D02*
X131700000Y-63725000D01*
X122800000Y-62801200D02*
X127792011Y-62801200D01*
X127792011Y-62801200D02*
X128715811Y-63725000D01*
%TO.N,Net-(J1-SHELL_GND-PadSH1)*%
X123991642Y-83575000D02*
X127150000Y-83575000D01*
X121360000Y-92100000D02*
X130000000Y-92100000D01*
X130000000Y-92100000D02*
X130000000Y-87920000D01*
X127900000Y-84325000D02*
X130000000Y-86425000D01*
X121360000Y-86206642D02*
X123991642Y-83575000D01*
X121360000Y-87920000D02*
X121360000Y-86206642D01*
X130000000Y-86425000D02*
X130000000Y-87920000D01*
X127150000Y-83575000D02*
X127900000Y-84325000D01*
D41*
%TO.N,/DN*%
X125955000Y-86457499D02*
X125955000Y-86344970D01*
X125930000Y-87345000D02*
X125930000Y-86482499D01*
X125930000Y-86482499D02*
X125955000Y-86457499D01*
D38*
X125227708Y-86172292D02*
X125499479Y-86172292D01*
D41*
X125930000Y-87345000D02*
X125905001Y-87320001D01*
X133600000Y-70475000D02*
X133600000Y-69825000D01*
D38*
X124930000Y-86470000D02*
X125227708Y-86172292D01*
D41*
X125782322Y-86172292D02*
X125499479Y-86172292D01*
D38*
X124930000Y-87345000D02*
X124930000Y-86470000D01*
D41*
X125955000Y-86344970D02*
X125782322Y-86172292D01*
X133600000Y-69825000D02*
X133400000Y-69625000D01*
%TO.N,/DP*%
X126430000Y-88170000D02*
X126430000Y-87345000D01*
X126430000Y-87345000D02*
X126430000Y-86482499D01*
X126430000Y-86482499D02*
X126405000Y-86457499D01*
X126405000Y-86457499D02*
X126405000Y-86158572D01*
X134200000Y-70725000D02*
X134200000Y-69625000D01*
X126380000Y-88220000D02*
X126430000Y-88170000D01*
X126405000Y-86158572D02*
X126100521Y-85854093D01*
X133600000Y-71325000D02*
X134200000Y-70725000D01*
X125430000Y-88170000D02*
X125480000Y-88220000D01*
X125480000Y-88220000D02*
X126380000Y-88220000D01*
X125430000Y-87345000D02*
X125430000Y-88170000D01*
X125430000Y-87345000D02*
X125454999Y-87320001D01*
X126100521Y-85854093D02*
X126100521Y-85571250D01*
D38*
%TO.N,/CC1*%
X124430000Y-87345000D02*
X124430000Y-88570000D01*
X124430000Y-84395000D02*
X124500000Y-84325000D01*
X124430000Y-88570000D02*
X124400000Y-88600000D01*
X124430000Y-87345000D02*
X124430000Y-84395000D01*
%TO.N,/CC2*%
X127430000Y-85580000D02*
X126200000Y-84350000D01*
X127430000Y-87345000D02*
X127430000Y-88070000D01*
X127430000Y-88070000D02*
X126600000Y-88900000D01*
X127430000Y-87345000D02*
X127430000Y-85580000D01*
%TO.N,Net-(U1-IO2)*%
X137400000Y-55475000D02*
X137400000Y-57825000D01*
%TO.N,Net-(U1-IO8)*%
X129400000Y-66850000D02*
X131625000Y-66850000D01*
X131625000Y-66850000D02*
X131700000Y-66925000D01*
%TO.N,Net-(U1-EN)*%
X142925000Y-53625000D02*
X142025000Y-53625000D01*
X142025000Y-53625000D02*
X142000000Y-53600000D01*
X135000000Y-56175000D02*
X135700000Y-55475000D01*
X135000000Y-57825000D02*
X135000000Y-56175000D01*
X142925000Y-53625000D02*
X147075000Y-53625000D01*
%TO.N,Net-(U1-IO9)*%
X147100000Y-71800000D02*
X142950000Y-71800000D01*
X142950000Y-71800000D02*
X139300000Y-71800000D01*
X139300000Y-71800000D02*
X138200000Y-70700000D01*
%TO.N,Net-(U1-IO10)*%
X131625000Y-62200000D02*
X131700000Y-62125000D01*
X129100000Y-62200000D02*
X131625000Y-62200000D01*
D39*
%TO.N,Net-(D7-A)*%
X116900000Y-82325000D02*
X116900000Y-84000000D01*
D38*
%TO.N,Net-(D8-A)*%
X106825000Y-82387500D02*
X106825000Y-84050000D01*
%TD*%
M02*
