%TF.GenerationSoftware,KiCad,Pcbnew,8.0.1*%
%TF.CreationDate,2024-04-06T15:46:48-07:00*%
%TF.ProjectId,Hardware,48617264-7761-4726-952e-6b696361645f,rev?*%
%TF.SameCoordinates,Original*%
%TF.FileFunction,Copper,L2,Bot*%
%TF.FilePolarity,Positive*%
%FSLAX46Y46*%
G04 Gerber Fmt 4.6, Leading zero omitted, Abs format (unit mm)*
G04 Created by KiCad (PCBNEW 8.0.1) date 2024-04-06 15:46:48*
%MOMM*%
%LPD*%
G01*
G04 APERTURE LIST*
G04 Aperture macros list*
%AMRoundRect*
0 Rectangle with rounded corners*
0 $1 Rounding radius*
0 $2 $3 $4 $5 $6 $7 $8 $9 X,Y pos of 4 corners*
0 Add a 4 corners polygon primitive as box body*
4,1,4,$2,$3,$4,$5,$6,$7,$8,$9,$2,$3,0*
0 Add four circle primitives for the rounded corners*
1,1,$1+$1,$2,$3*
1,1,$1+$1,$4,$5*
1,1,$1+$1,$6,$7*
1,1,$1+$1,$8,$9*
0 Add four rect primitives between the rounded corners*
20,1,$1+$1,$2,$3,$4,$5,0*
20,1,$1+$1,$4,$5,$6,$7,0*
20,1,$1+$1,$6,$7,$8,$9,0*
20,1,$1+$1,$8,$9,$2,$3,0*%
G04 Aperture macros list end*
%TA.AperFunction,ComponentPad*%
%ADD10R,0.850000X0.850000*%
%TD*%
%TA.AperFunction,ComponentPad*%
%ADD11O,0.850000X0.850000*%
%TD*%
%TA.AperFunction,ComponentPad*%
%ADD12O,1.000000X2.100000*%
%TD*%
%TA.AperFunction,ComponentPad*%
%ADD13RoundRect,0.250000X-0.250000X-0.650000X0.250000X-0.650000X0.250000X0.650000X-0.250000X0.650000X0*%
%TD*%
%TA.AperFunction,ViaPad*%
%ADD14C,0.600000*%
%TD*%
%TA.AperFunction,Conductor*%
%ADD15C,0.800000*%
%TD*%
%TA.AperFunction,Conductor*%
%ADD16C,0.300000*%
%TD*%
%TA.AperFunction,Conductor*%
%ADD17C,0.200000*%
%TD*%
G04 APERTURE END LIST*
D10*
%TO.P,J2,1,Pin_1*%
%TO.N,/DWM3000_EXTPA*%
X103000000Y-61000000D03*
D11*
%TO.P,J2,2,Pin_2*%
%TO.N,/DWM3000_SPIPOL*%
X103000000Y-60000000D03*
%TO.P,J2,3,Pin_3*%
%TO.N,/DWM3000_SPIHA*%
X103000000Y-59000000D03*
%TO.P,J2,4,Pin_4*%
%TO.N,/DWM3000_GPIO7*%
X103000000Y-58000000D03*
%TO.P,J2,5,Pin_5*%
%TO.N,/DWM3000_WAKEUP*%
X103000000Y-57000000D03*
%TO.P,J2,6,Pin_6*%
%TO.N,/DWM3000_EXTON*%
X103000000Y-56000000D03*
%TD*%
D12*
%TO.P,J1,SH1,SHELL_GND*%
%TO.N,Net-(J1-SHELL_GND-PadSH1)*%
X121360000Y-87920000D03*
%TO.P,J1,SH2,SHELL_GND*%
X130000000Y-87920000D03*
D13*
%TO.P,J1,SH3,SHELL_GND*%
X121360000Y-92100000D03*
%TO.P,J1,SH4,SHELL_GND*%
X130000000Y-92100000D03*
%TD*%
D10*
%TO.P,J3,1,Pin_1*%
%TO.N,/CC1*%
X119000000Y-92500000D03*
D11*
%TO.P,J3,2,Pin_2*%
%TO.N,/CC2*%
X119000000Y-91500000D03*
%TO.P,J3,3,Pin_3*%
%TO.N,+5V*%
X119000000Y-90500000D03*
%TO.P,J3,4,Pin_4*%
%TO.N,unconnected-(J3-Pin_4-Pad4)*%
X119000000Y-89500000D03*
%TO.P,J3,5,Pin_5*%
%TO.N,unconnected-(J3-Pin_5-Pad5)*%
X119000000Y-88500000D03*
%TO.P,J3,6,Pin_6*%
%TO.N,GND*%
X119000000Y-87500000D03*
%TD*%
D14*
%TO.N,GND*%
X106800000Y-79700000D03*
X137600000Y-60300000D03*
X128900000Y-86300000D03*
X135600000Y-60300000D03*
X126200000Y-81700000D03*
X147200000Y-75200000D03*
X135400000Y-67000000D03*
X140400000Y-60500000D03*
X130700000Y-69700000D03*
X140200000Y-58800000D03*
X121400000Y-71200000D03*
X132900000Y-59000000D03*
X127900000Y-81700000D03*
X140600000Y-67600000D03*
X129800000Y-76700000D03*
X132700000Y-60500000D03*
X124500000Y-81700000D03*
X138400000Y-81900000D03*
X137700000Y-67000000D03*
X122500000Y-86300000D03*
X107900000Y-87700000D03*
X138400000Y-76100000D03*
X113900000Y-77400000D03*
X108200000Y-66800000D03*
X124900000Y-58000000D03*
X136600000Y-60300000D03*
X124900000Y-61400000D03*
X136600000Y-67200000D03*
X117900000Y-80700000D03*
%TO.N,+3.3V*%
X135700000Y-53825000D03*
X126700000Y-68300000D03*
%TO.N,+5V*%
X123100000Y-85700000D03*
X116900000Y-85650000D03*
X129700000Y-79550000D03*
X128200000Y-85700000D03*
%TO.N,/NEOPIXEL*%
X139900000Y-68400000D03*
X138000000Y-73000000D03*
%TO.N,/DWM3000_SPIPOL*%
X113000000Y-69300000D03*
%TO.N,/DWM3000_SPIHA*%
X112000000Y-67500000D03*
%TO.N,/DWM3000_RSTn*%
X124600000Y-58800000D03*
X110200000Y-60001200D03*
%TO.N,/DWM3000_EXTPA*%
X114400000Y-70000000D03*
%TO.N,/DN*%
X133600000Y-70475000D03*
X125499479Y-86172292D03*
%TO.N,/DP*%
X126100521Y-85571250D03*
X133600000Y-71325000D03*
%TO.N,/CC1*%
X124400000Y-88600000D03*
%TO.N,/CC2*%
X126600000Y-88900000D03*
%TO.N,Net-(U1-EN)*%
X142000000Y-53600000D03*
X135700000Y-55475000D03*
%TO.N,Net-(U1-IO9)*%
X138200000Y-70700000D03*
X131700000Y-67725000D03*
%TD*%
D15*
%TO.N,+3.3V*%
X126700000Y-59400000D02*
X132275000Y-53825000D01*
X132275000Y-53825000D02*
X135700000Y-53825000D01*
X126700000Y-68300000D02*
X126700000Y-59400000D01*
D16*
%TO.N,+5V*%
X123050000Y-85650000D02*
X116900000Y-85650000D01*
D17*
X128200000Y-85700000D02*
X129700000Y-84200000D01*
X129700000Y-84200000D02*
X129700000Y-79550000D01*
D16*
X123100000Y-85700000D02*
X123050000Y-85650000D01*
%TO.N,/NEOPIXEL*%
X139900000Y-71100000D02*
X138000000Y-73000000D01*
X139900000Y-68400000D02*
X139900000Y-71100000D01*
%TO.N,/DWM3000_SPIPOL*%
X112850000Y-69300000D02*
X103550000Y-60000000D01*
X103550000Y-60000000D02*
X103000000Y-60000000D01*
X113000000Y-69300000D02*
X112850000Y-69300000D01*
%TO.N,/DWM3000_SPIHA*%
X103500000Y-59000000D02*
X103000000Y-59000000D01*
X112000000Y-67500000D02*
X103500000Y-59000000D01*
%TO.N,/DWM3000_RSTn*%
X111401200Y-58800000D02*
X110200000Y-60001200D01*
X124600000Y-58800000D02*
X111401200Y-58800000D01*
%TO.N,/DWM3000_EXTPA*%
X112319239Y-70000000D02*
X103319239Y-61000000D01*
X103319239Y-61000000D02*
X103000000Y-61000000D01*
X114400000Y-70000000D02*
X112319239Y-70000000D01*
D17*
%TO.N,/DN*%
X125150020Y-82134917D02*
X125150020Y-81265083D01*
X125499479Y-86172292D02*
X125499479Y-82484376D01*
X125499479Y-80915624D02*
X125499479Y-75382321D01*
X125150020Y-81265083D02*
X125499479Y-80915624D01*
X125499479Y-82484376D02*
X125150020Y-82134917D01*
X133400001Y-70674999D02*
X133600000Y-70475000D01*
X125499479Y-75382321D02*
X130206800Y-70675000D01*
X130206800Y-70675000D02*
X133400001Y-70674999D01*
%TO.N,/DP*%
X125600000Y-81451471D02*
X125949480Y-81101991D01*
X133400001Y-71125001D02*
X133600000Y-71325000D01*
X130393200Y-71125000D02*
X133400001Y-71125001D01*
X125600000Y-81948529D02*
X125600000Y-81451471D01*
X125949480Y-82298009D02*
X125600000Y-81948529D01*
X125949480Y-81101991D02*
X125949480Y-75568720D01*
X125949480Y-85420209D02*
X125949480Y-82298009D01*
X125949480Y-75568720D02*
X130393200Y-71125000D01*
X126100521Y-85571250D02*
X125949480Y-85420209D01*
D16*
%TO.N,/CC1*%
X121865456Y-93350000D02*
X119850000Y-93350000D01*
X119850000Y-93350000D02*
X119000000Y-92500000D01*
X124400000Y-90815456D02*
X121865456Y-93350000D01*
X124400000Y-88600000D02*
X124400000Y-90815456D01*
%TO.N,/CC2*%
X126600000Y-89322562D02*
X122072562Y-93850000D01*
X118225000Y-93125000D02*
X118225000Y-91775000D01*
X118950000Y-93850000D02*
X118225000Y-93125000D01*
X122072562Y-93850000D02*
X118950000Y-93850000D01*
X126600000Y-88900000D02*
X126600000Y-89322562D01*
X118500000Y-91500000D02*
X119000000Y-91500000D01*
X118225000Y-91775000D02*
X118500000Y-91500000D01*
%TO.N,Net-(U1-EN)*%
X140125000Y-55475000D02*
X135700000Y-55475000D01*
X142000000Y-53600000D02*
X140125000Y-55475000D01*
%TO.N,Net-(U1-IO9)*%
X138200000Y-70700000D02*
X137180761Y-70700000D01*
X137180761Y-70700000D02*
X134205761Y-67725000D01*
X134205761Y-67725000D02*
X131700000Y-67725000D01*
%TD*%
%TA.AperFunction,Conductor*%
%TO.N,GND*%
G36*
X106943039Y-45520185D02*
G01*
X106988794Y-45572989D01*
X107000000Y-45624500D01*
X107000000Y-49002659D01*
X106980315Y-49069698D01*
X106927511Y-49115453D01*
X106858353Y-49125397D01*
X106794797Y-49096372D01*
X106767168Y-49062086D01*
X106687229Y-48915690D01*
X106687224Y-48915682D01*
X106515745Y-48686612D01*
X106515729Y-48686594D01*
X106313405Y-48484270D01*
X106313387Y-48484254D01*
X106084317Y-48312775D01*
X106084309Y-48312770D01*
X105833166Y-48175635D01*
X105833167Y-48175635D01*
X105725915Y-48135632D01*
X105565046Y-48075631D01*
X105565043Y-48075630D01*
X105565037Y-48075628D01*
X105285433Y-48014804D01*
X105000001Y-47994390D01*
X104999999Y-47994390D01*
X104714566Y-48014804D01*
X104434962Y-48075628D01*
X104166833Y-48175635D01*
X103915690Y-48312770D01*
X103915682Y-48312775D01*
X103686612Y-48484254D01*
X103686594Y-48484270D01*
X103484270Y-48686594D01*
X103484254Y-48686612D01*
X103312775Y-48915682D01*
X103312770Y-48915690D01*
X103175635Y-49166833D01*
X103075628Y-49434962D01*
X103014804Y-49714566D01*
X102994390Y-49999998D01*
X102994390Y-50000001D01*
X103014804Y-50285433D01*
X103075628Y-50565037D01*
X103175635Y-50833166D01*
X103312770Y-51084309D01*
X103312775Y-51084317D01*
X103484254Y-51313387D01*
X103484270Y-51313405D01*
X103686594Y-51515729D01*
X103686612Y-51515745D01*
X103915682Y-51687224D01*
X103915690Y-51687229D01*
X104166833Y-51824364D01*
X104166832Y-51824364D01*
X104166836Y-51824365D01*
X104166839Y-51824367D01*
X104434954Y-51924369D01*
X104434960Y-51924370D01*
X104434962Y-51924371D01*
X104714566Y-51985195D01*
X104714568Y-51985195D01*
X104714572Y-51985196D01*
X104968220Y-52003337D01*
X104999999Y-52005610D01*
X105000000Y-52005610D01*
X105000001Y-52005610D01*
X105028595Y-52003564D01*
X105285428Y-51985196D01*
X105565046Y-51924369D01*
X105833161Y-51824367D01*
X106084315Y-51687226D01*
X106313395Y-51515739D01*
X106515739Y-51313395D01*
X106687226Y-51084315D01*
X106767168Y-50937913D01*
X106816573Y-50888508D01*
X106884846Y-50873656D01*
X106950310Y-50898073D01*
X106992182Y-50954006D01*
X107000000Y-50997340D01*
X107000000Y-57000000D01*
X125600000Y-57200000D01*
X125600000Y-57199999D01*
X125600000Y-50000001D01*
X142994390Y-50000001D01*
X143014804Y-50285433D01*
X143075628Y-50565037D01*
X143175635Y-50833166D01*
X143312770Y-51084309D01*
X143312775Y-51084317D01*
X143484254Y-51313387D01*
X143484270Y-51313405D01*
X143686594Y-51515729D01*
X143686612Y-51515745D01*
X143915682Y-51687224D01*
X143915690Y-51687229D01*
X144166833Y-51824364D01*
X144166832Y-51824364D01*
X144166836Y-51824365D01*
X144166839Y-51824367D01*
X144434954Y-51924369D01*
X144434960Y-51924370D01*
X144434962Y-51924371D01*
X144714566Y-51985195D01*
X144714568Y-51985195D01*
X144714572Y-51985196D01*
X144968220Y-52003337D01*
X144999999Y-52005610D01*
X145000000Y-52005610D01*
X145000001Y-52005610D01*
X145028595Y-52003564D01*
X145285428Y-51985196D01*
X145565046Y-51924369D01*
X145833161Y-51824367D01*
X146084315Y-51687226D01*
X146313395Y-51515739D01*
X146515739Y-51313395D01*
X146687226Y-51084315D01*
X146824367Y-50833161D01*
X146924369Y-50565046D01*
X146985196Y-50285428D01*
X147003564Y-50028595D01*
X147005610Y-50000001D01*
X147005610Y-49999998D01*
X146991664Y-49805007D01*
X146985196Y-49714572D01*
X146960810Y-49602473D01*
X146924371Y-49434962D01*
X146924370Y-49434960D01*
X146924369Y-49434954D01*
X146824367Y-49166839D01*
X146767167Y-49062086D01*
X146687229Y-48915690D01*
X146687224Y-48915682D01*
X146515745Y-48686612D01*
X146515729Y-48686594D01*
X146313405Y-48484270D01*
X146313387Y-48484254D01*
X146084317Y-48312775D01*
X146084309Y-48312770D01*
X145833166Y-48175635D01*
X145833167Y-48175635D01*
X145725915Y-48135632D01*
X145565046Y-48075631D01*
X145565043Y-48075630D01*
X145565037Y-48075628D01*
X145285433Y-48014804D01*
X145000001Y-47994390D01*
X144999999Y-47994390D01*
X144714566Y-48014804D01*
X144434962Y-48075628D01*
X144166833Y-48175635D01*
X143915690Y-48312770D01*
X143915682Y-48312775D01*
X143686612Y-48484254D01*
X143686594Y-48484270D01*
X143484270Y-48686594D01*
X143484254Y-48686612D01*
X143312775Y-48915682D01*
X143312770Y-48915690D01*
X143175635Y-49166833D01*
X143075628Y-49434962D01*
X143014804Y-49714566D01*
X142994390Y-49999998D01*
X142994390Y-50000001D01*
X125600000Y-50000001D01*
X125600000Y-45624500D01*
X125619685Y-45557461D01*
X125672489Y-45511706D01*
X125724000Y-45500500D01*
X144934108Y-45500500D01*
X144997294Y-45500500D01*
X145002702Y-45500617D01*
X145386771Y-45517386D01*
X145397506Y-45518326D01*
X145775971Y-45568152D01*
X145786597Y-45570025D01*
X146159284Y-45652648D01*
X146169710Y-45655442D01*
X146533765Y-45770227D01*
X146543911Y-45773920D01*
X146896578Y-45920000D01*
X146906369Y-45924566D01*
X147244942Y-46100816D01*
X147254310Y-46106224D01*
X147576244Y-46311318D01*
X147585105Y-46317523D01*
X147887930Y-46549889D01*
X147896217Y-46556843D01*
X148177635Y-46814715D01*
X148185284Y-46822364D01*
X148443156Y-47103782D01*
X148450110Y-47112069D01*
X148682476Y-47414894D01*
X148688681Y-47423755D01*
X148893775Y-47745689D01*
X148899183Y-47755057D01*
X149075430Y-48093623D01*
X149080002Y-48103427D01*
X149226075Y-48456078D01*
X149229775Y-48466244D01*
X149344554Y-48830278D01*
X149347354Y-48840727D01*
X149429971Y-49213389D01*
X149431849Y-49224042D01*
X149481671Y-49602473D01*
X149482614Y-49613249D01*
X149499382Y-49997297D01*
X149499500Y-50002706D01*
X149499500Y-56853686D01*
X149479815Y-56920725D01*
X149427011Y-56966480D01*
X149372513Y-56977650D01*
X142000000Y-56799999D01*
X142000000Y-56800000D01*
X142100000Y-70600000D01*
X149375500Y-70600000D01*
X149442539Y-70619685D01*
X149488294Y-70672489D01*
X149499500Y-70724000D01*
X149499500Y-89997293D01*
X149499382Y-90002702D01*
X149482614Y-90386750D01*
X149481671Y-90397526D01*
X149431849Y-90775957D01*
X149429971Y-90786610D01*
X149347354Y-91159272D01*
X149344554Y-91169721D01*
X149229775Y-91533755D01*
X149226075Y-91543921D01*
X149080002Y-91896572D01*
X149075430Y-91906376D01*
X148899183Y-92244942D01*
X148893775Y-92254310D01*
X148688681Y-92576244D01*
X148682476Y-92585105D01*
X148450110Y-92887930D01*
X148443156Y-92896217D01*
X148185284Y-93177635D01*
X148177635Y-93185284D01*
X147896217Y-93443156D01*
X147887930Y-93450110D01*
X147585105Y-93682476D01*
X147576244Y-93688681D01*
X147254310Y-93893775D01*
X147244942Y-93899183D01*
X146906376Y-94075430D01*
X146896572Y-94080002D01*
X146543921Y-94226075D01*
X146533755Y-94229775D01*
X146169721Y-94344554D01*
X146159272Y-94347354D01*
X145786610Y-94429971D01*
X145775957Y-94431849D01*
X145397526Y-94481671D01*
X145386750Y-94482614D01*
X145002703Y-94499382D01*
X144997294Y-94499500D01*
X122642371Y-94499500D01*
X122575332Y-94479815D01*
X122529577Y-94427011D01*
X122519633Y-94357853D01*
X122548658Y-94294297D01*
X122554690Y-94287819D01*
X124042507Y-92800001D01*
X128999500Y-92800001D01*
X128999501Y-92800018D01*
X129010000Y-92902796D01*
X129010001Y-92902799D01*
X129065185Y-93069331D01*
X129065186Y-93069334D01*
X129157288Y-93218656D01*
X129281344Y-93342712D01*
X129430666Y-93434814D01*
X129597203Y-93489999D01*
X129699991Y-93500500D01*
X130300008Y-93500499D01*
X130300016Y-93500498D01*
X130300019Y-93500498D01*
X130356302Y-93494748D01*
X130402797Y-93489999D01*
X130569334Y-93434814D01*
X130718656Y-93342712D01*
X130842712Y-93218656D01*
X130934814Y-93069334D01*
X130989999Y-92902797D01*
X131000500Y-92800009D01*
X131000499Y-91399992D01*
X130989999Y-91297203D01*
X130934814Y-91130666D01*
X130842712Y-90981344D01*
X130718656Y-90857288D01*
X130569334Y-90765186D01*
X130402797Y-90710001D01*
X130402795Y-90710000D01*
X130300010Y-90699500D01*
X129699998Y-90699500D01*
X129699980Y-90699501D01*
X129597203Y-90710000D01*
X129597200Y-90710001D01*
X129430668Y-90765185D01*
X129430663Y-90765187D01*
X129281342Y-90857289D01*
X129157289Y-90981342D01*
X129065187Y-91130663D01*
X129065186Y-91130666D01*
X129010001Y-91297203D01*
X129010001Y-91297204D01*
X129010000Y-91297204D01*
X128999500Y-91399983D01*
X128999500Y-92800001D01*
X124042507Y-92800001D01*
X126842506Y-90000001D01*
X142994390Y-90000001D01*
X143014804Y-90285433D01*
X143075628Y-90565037D01*
X143075630Y-90565043D01*
X143075631Y-90565046D01*
X143174847Y-90831054D01*
X143175635Y-90833166D01*
X143312770Y-91084309D01*
X143312775Y-91084317D01*
X143484254Y-91313387D01*
X143484270Y-91313405D01*
X143686594Y-91515729D01*
X143686612Y-91515745D01*
X143915682Y-91687224D01*
X143915690Y-91687229D01*
X144166833Y-91824364D01*
X144166832Y-91824364D01*
X144166836Y-91824365D01*
X144166839Y-91824367D01*
X144434954Y-91924369D01*
X144434960Y-91924370D01*
X144434962Y-91924371D01*
X144714566Y-91985195D01*
X144714568Y-91985195D01*
X144714572Y-91985196D01*
X144968220Y-92003337D01*
X144999999Y-92005610D01*
X145000000Y-92005610D01*
X145000001Y-92005610D01*
X145028595Y-92003564D01*
X145285428Y-91985196D01*
X145366698Y-91967517D01*
X145565037Y-91924371D01*
X145565037Y-91924370D01*
X145565046Y-91924369D01*
X145833161Y-91824367D01*
X146084315Y-91687226D01*
X146313395Y-91515739D01*
X146515739Y-91313395D01*
X146687226Y-91084315D01*
X146824367Y-90833161D01*
X146924369Y-90565046D01*
X146985196Y-90285428D01*
X147005610Y-90000000D01*
X147005416Y-89997293D01*
X146991664Y-89805007D01*
X146985196Y-89714572D01*
X146980608Y-89693483D01*
X146924371Y-89434962D01*
X146924370Y-89434960D01*
X146924369Y-89434954D01*
X146824367Y-89166839D01*
X146820523Y-89159800D01*
X146687229Y-88915690D01*
X146687224Y-88915682D01*
X146515745Y-88686612D01*
X146515729Y-88686594D01*
X146313405Y-88484270D01*
X146313387Y-88484254D01*
X146084317Y-88312775D01*
X146084309Y-88312770D01*
X145833166Y-88175635D01*
X145833167Y-88175635D01*
X145669611Y-88114632D01*
X145565046Y-88075631D01*
X145565043Y-88075630D01*
X145565037Y-88075628D01*
X145285433Y-88014804D01*
X145000001Y-87994390D01*
X144999999Y-87994390D01*
X144714566Y-88014804D01*
X144434962Y-88075628D01*
X144166833Y-88175635D01*
X143915690Y-88312770D01*
X143915682Y-88312775D01*
X143686612Y-88484254D01*
X143686594Y-88484270D01*
X143484270Y-88686594D01*
X143484254Y-88686612D01*
X143312775Y-88915682D01*
X143312770Y-88915690D01*
X143175635Y-89166833D01*
X143075628Y-89434962D01*
X143014804Y-89714566D01*
X142994390Y-89999998D01*
X142994390Y-90000001D01*
X126842506Y-90000001D01*
X127105273Y-89737234D01*
X127105272Y-89737234D01*
X127105276Y-89737231D01*
X127176465Y-89630689D01*
X127225501Y-89512306D01*
X127238947Y-89444708D01*
X127250500Y-89386631D01*
X127251072Y-89383756D01*
X127267696Y-89341976D01*
X127325788Y-89249524D01*
X127337906Y-89214893D01*
X127385368Y-89079255D01*
X127393633Y-89005900D01*
X127405565Y-88900003D01*
X127405565Y-88899996D01*
X127385369Y-88720750D01*
X127385368Y-88720745D01*
X127373418Y-88686594D01*
X127325789Y-88550478D01*
X127299674Y-88508917D01*
X127291411Y-88495766D01*
X127994500Y-88495766D01*
X127998024Y-88508917D01*
X128033719Y-88642136D01*
X128059394Y-88686605D01*
X128109485Y-88773365D01*
X128216635Y-88880515D01*
X128310105Y-88934480D01*
X128336161Y-88949524D01*
X128347865Y-88956281D01*
X128494234Y-88995500D01*
X128494236Y-88995500D01*
X128645764Y-88995500D01*
X128645766Y-88995500D01*
X128792135Y-88956281D01*
X128923365Y-88880515D01*
X128923366Y-88880513D01*
X128930403Y-88876451D01*
X128931749Y-88878783D01*
X128984553Y-88858357D01*
X129053001Y-88872381D01*
X129103001Y-88921185D01*
X129109458Y-88934474D01*
X129113367Y-88943913D01*
X129113371Y-88943920D01*
X129222860Y-89107781D01*
X129222863Y-89107785D01*
X129362214Y-89247136D01*
X129362218Y-89247139D01*
X129526079Y-89356628D01*
X129526092Y-89356635D01*
X129708160Y-89432049D01*
X129708165Y-89432051D01*
X129708169Y-89432051D01*
X129708170Y-89432052D01*
X129901456Y-89470500D01*
X129901459Y-89470500D01*
X130098543Y-89470500D01*
X130228582Y-89444632D01*
X130291835Y-89432051D01*
X130473914Y-89356632D01*
X130637782Y-89247139D01*
X130777139Y-89107782D01*
X130886632Y-88943914D01*
X130962051Y-88761835D01*
X130994242Y-88600003D01*
X131000500Y-88568543D01*
X131000500Y-87271456D01*
X130962052Y-87078170D01*
X130962051Y-87078169D01*
X130962051Y-87078165D01*
X130962049Y-87078160D01*
X130886635Y-86896092D01*
X130886628Y-86896079D01*
X130777139Y-86732218D01*
X130777136Y-86732214D01*
X130637785Y-86592863D01*
X130637781Y-86592860D01*
X130473920Y-86483371D01*
X130473907Y-86483364D01*
X130291839Y-86407950D01*
X130291829Y-86407947D01*
X130098543Y-86369500D01*
X130098541Y-86369500D01*
X129901459Y-86369500D01*
X129901457Y-86369500D01*
X129708170Y-86407947D01*
X129708160Y-86407950D01*
X129526092Y-86483364D01*
X129526079Y-86483371D01*
X129362218Y-86592860D01*
X129362214Y-86592863D01*
X129222863Y-86732214D01*
X129222860Y-86732218D01*
X129113371Y-86896079D01*
X129113364Y-86896092D01*
X129037950Y-87078160D01*
X129037947Y-87078170D01*
X128999500Y-87271456D01*
X128999500Y-87788666D01*
X128979815Y-87855705D01*
X128927011Y-87901460D01*
X128857853Y-87911404D01*
X128813501Y-87896054D01*
X128792137Y-87883719D01*
X128687584Y-87855705D01*
X128645766Y-87844500D01*
X128494234Y-87844500D01*
X128347863Y-87883719D01*
X128216635Y-87959485D01*
X128216632Y-87959487D01*
X128109487Y-88066632D01*
X128109485Y-88066635D01*
X128033719Y-88197863D01*
X128002929Y-88312775D01*
X127994500Y-88344234D01*
X127994500Y-88495766D01*
X127291411Y-88495766D01*
X127254931Y-88437709D01*
X127229816Y-88397738D01*
X127102262Y-88270184D01*
X127070897Y-88250476D01*
X126949523Y-88174211D01*
X126779254Y-88114631D01*
X126779249Y-88114630D01*
X126600004Y-88094435D01*
X126599996Y-88094435D01*
X126420750Y-88114630D01*
X126420745Y-88114631D01*
X126250476Y-88174211D01*
X126097737Y-88270184D01*
X125970184Y-88397737D01*
X125874211Y-88550476D01*
X125814631Y-88720745D01*
X125814630Y-88720750D01*
X125794435Y-88899996D01*
X125794435Y-88900003D01*
X125814630Y-89079246D01*
X125814631Y-89079252D01*
X125814631Y-89079254D01*
X125814632Y-89079255D01*
X125817083Y-89086259D01*
X125820644Y-89156037D01*
X125787722Y-89214893D01*
X125262181Y-89740435D01*
X125200858Y-89773920D01*
X125131167Y-89768936D01*
X125075233Y-89727065D01*
X125050816Y-89661600D01*
X125050500Y-89652754D01*
X125050500Y-89105067D01*
X125069507Y-89039094D01*
X125125788Y-88949524D01*
X125127751Y-88943914D01*
X125185368Y-88779255D01*
X125185369Y-88779249D01*
X125205565Y-88600003D01*
X125205565Y-88599996D01*
X125185369Y-88420750D01*
X125185368Y-88420745D01*
X125125789Y-88250478D01*
X125029816Y-88097738D01*
X124902262Y-87970184D01*
X124850243Y-87937498D01*
X124749523Y-87874211D01*
X124579254Y-87814631D01*
X124579249Y-87814630D01*
X124400004Y-87794435D01*
X124399996Y-87794435D01*
X124220750Y-87814630D01*
X124220745Y-87814631D01*
X124050476Y-87874211D01*
X123897737Y-87970184D01*
X123770184Y-88097737D01*
X123674211Y-88250476D01*
X123614631Y-88420745D01*
X123614630Y-88420749D01*
X123612720Y-88437709D01*
X123585653Y-88502123D01*
X123575759Y-88508917D01*
X123596304Y-88573183D01*
X123595560Y-88590014D01*
X123594436Y-88599996D01*
X123594435Y-88600003D01*
X123614630Y-88779249D01*
X123614631Y-88779254D01*
X123674211Y-88949524D01*
X123730493Y-89039094D01*
X123749500Y-89105067D01*
X123749500Y-90494647D01*
X123729815Y-90561686D01*
X123713181Y-90582328D01*
X122572180Y-91723329D01*
X122510857Y-91756814D01*
X122441165Y-91751830D01*
X122385232Y-91709958D01*
X122360815Y-91644494D01*
X122360499Y-91635648D01*
X122360499Y-91399998D01*
X122360498Y-91399981D01*
X122349999Y-91297203D01*
X122349998Y-91297200D01*
X122294814Y-91130666D01*
X122202712Y-90981344D01*
X122078656Y-90857288D01*
X121929334Y-90765186D01*
X121762797Y-90710001D01*
X121762795Y-90710000D01*
X121660010Y-90699500D01*
X121059998Y-90699500D01*
X121059980Y-90699501D01*
X120957203Y-90710000D01*
X120957200Y-90710001D01*
X120790668Y-90765185D01*
X120790663Y-90765187D01*
X120641342Y-90857289D01*
X120517289Y-90981342D01*
X120425187Y-91130663D01*
X120425186Y-91130666D01*
X120370001Y-91297203D01*
X120370001Y-91297204D01*
X120370000Y-91297204D01*
X120359500Y-91399983D01*
X120359500Y-91399991D01*
X120359500Y-92027129D01*
X120359501Y-92575500D01*
X120339816Y-92642539D01*
X120287013Y-92688294D01*
X120235501Y-92699500D01*
X120170808Y-92699500D01*
X120103769Y-92679815D01*
X120083127Y-92663181D01*
X119961818Y-92541872D01*
X119928333Y-92480549D01*
X119925499Y-92454191D01*
X119925499Y-92027129D01*
X119925498Y-92027123D01*
X119919091Y-91967516D01*
X119881900Y-91867803D01*
X119876916Y-91798112D01*
X119880145Y-91786170D01*
X119910262Y-91693482D01*
X119930598Y-91500000D01*
X119910262Y-91306518D01*
X119850144Y-91121492D01*
X119815795Y-91061999D01*
X119799322Y-90994101D01*
X119815795Y-90938001D01*
X119850144Y-90878508D01*
X119910262Y-90693482D01*
X119930598Y-90500000D01*
X119910262Y-90306518D01*
X119850144Y-90121492D01*
X119815795Y-90061999D01*
X119799322Y-89994101D01*
X119815796Y-89938000D01*
X119850144Y-89878508D01*
X119910262Y-89693482D01*
X119930598Y-89500000D01*
X119910262Y-89306518D01*
X119850144Y-89121492D01*
X119815795Y-89061999D01*
X119799322Y-88994101D01*
X119815796Y-88938000D01*
X119850144Y-88878508D01*
X119910262Y-88693482D01*
X119930598Y-88500000D01*
X119910262Y-88306518D01*
X119850144Y-88121492D01*
X119815506Y-88061498D01*
X119799034Y-87993598D01*
X119815508Y-87937498D01*
X119849680Y-87878310D01*
X119849684Y-87878301D01*
X119891372Y-87750000D01*
X119582559Y-87750000D01*
X119515520Y-87730315D01*
X119509673Y-87726318D01*
X119465297Y-87694076D01*
X119328848Y-87633326D01*
X119287571Y-87614949D01*
X119287569Y-87614948D01*
X119228211Y-87602331D01*
X119250000Y-87549728D01*
X119250000Y-87450272D01*
X119211940Y-87358386D01*
X119141614Y-87288060D01*
X119049728Y-87250000D01*
X118950272Y-87250000D01*
X118858386Y-87288060D01*
X118788060Y-87358386D01*
X118750000Y-87450272D01*
X118750000Y-87549728D01*
X118771788Y-87602331D01*
X118712431Y-87614948D01*
X118534702Y-87694076D01*
X118490327Y-87726318D01*
X118424520Y-87749798D01*
X118417441Y-87750000D01*
X118108628Y-87750000D01*
X118150315Y-87878302D01*
X118184492Y-87937498D01*
X118200965Y-88005398D01*
X118184493Y-88061497D01*
X118149856Y-88121490D01*
X118089738Y-88306516D01*
X118069402Y-88500000D01*
X118089738Y-88693483D01*
X118149856Y-88878510D01*
X118149857Y-88878511D01*
X118184203Y-88938000D01*
X118200676Y-89005900D01*
X118184203Y-89062000D01*
X118149857Y-89121488D01*
X118149856Y-89121489D01*
X118089738Y-89306516D01*
X118069402Y-89500000D01*
X118089738Y-89693483D01*
X118149856Y-89878510D01*
X118149857Y-89878511D01*
X118184203Y-89938000D01*
X118200676Y-90005900D01*
X118184203Y-90062000D01*
X118149857Y-90121488D01*
X118149856Y-90121489D01*
X118089738Y-90306516D01*
X118069402Y-90500000D01*
X118089738Y-90693483D01*
X118140365Y-90849297D01*
X118142360Y-90919139D01*
X118106279Y-90978971D01*
X118091329Y-90990715D01*
X118085328Y-90994724D01*
X117719724Y-91360328D01*
X117665851Y-91440955D01*
X117665852Y-91440956D01*
X117648536Y-91466871D01*
X117648533Y-91466877D01*
X117599499Y-91585255D01*
X117599497Y-91585261D01*
X117574500Y-91710928D01*
X117574500Y-91710931D01*
X117574500Y-93189069D01*
X117591302Y-93273535D01*
X117597868Y-93306548D01*
X117599499Y-93314745D01*
X117648534Y-93433125D01*
X117648535Y-93433127D01*
X117693551Y-93500499D01*
X117719726Y-93539673D01*
X118467872Y-94287819D01*
X118501357Y-94349142D01*
X118496373Y-94418834D01*
X118454501Y-94474767D01*
X118389037Y-94499184D01*
X118380191Y-94499500D01*
X105002706Y-94499500D01*
X104997297Y-94499382D01*
X104613249Y-94482614D01*
X104602473Y-94481671D01*
X104224042Y-94431849D01*
X104213389Y-94429971D01*
X103840727Y-94347354D01*
X103830278Y-94344554D01*
X103466244Y-94229775D01*
X103456078Y-94226075D01*
X103103427Y-94080002D01*
X103093623Y-94075430D01*
X102755057Y-93899183D01*
X102745689Y-93893775D01*
X102423755Y-93688681D01*
X102414894Y-93682476D01*
X102112069Y-93450110D01*
X102103782Y-93443156D01*
X101822364Y-93185284D01*
X101814715Y-93177635D01*
X101556843Y-92896217D01*
X101549889Y-92887930D01*
X101317523Y-92585105D01*
X101311318Y-92576244D01*
X101106224Y-92254310D01*
X101100816Y-92244942D01*
X100924566Y-91906369D01*
X100919997Y-91896572D01*
X100773920Y-91543911D01*
X100770224Y-91533755D01*
X100655442Y-91169710D01*
X100652648Y-91159284D01*
X100570025Y-90786597D01*
X100568152Y-90775971D01*
X100518326Y-90397506D01*
X100517386Y-90386771D01*
X100500618Y-90002702D01*
X100500559Y-90000001D01*
X102994390Y-90000001D01*
X103014804Y-90285433D01*
X103075628Y-90565037D01*
X103075630Y-90565043D01*
X103075631Y-90565046D01*
X103174847Y-90831054D01*
X103175635Y-90833166D01*
X103312770Y-91084309D01*
X103312775Y-91084317D01*
X103484254Y-91313387D01*
X103484270Y-91313405D01*
X103686594Y-91515729D01*
X103686612Y-91515745D01*
X103915682Y-91687224D01*
X103915690Y-91687229D01*
X104166833Y-91824364D01*
X104166832Y-91824364D01*
X104166836Y-91824365D01*
X104166839Y-91824367D01*
X104434954Y-91924369D01*
X104434960Y-91924370D01*
X104434962Y-91924371D01*
X104714566Y-91985195D01*
X104714568Y-91985195D01*
X104714572Y-91985196D01*
X104968220Y-92003337D01*
X104999999Y-92005610D01*
X105000000Y-92005610D01*
X105000001Y-92005610D01*
X105028595Y-92003564D01*
X105285428Y-91985196D01*
X105366698Y-91967517D01*
X105565037Y-91924371D01*
X105565037Y-91924370D01*
X105565046Y-91924369D01*
X105833161Y-91824367D01*
X106084315Y-91687226D01*
X106313395Y-91515739D01*
X106515739Y-91313395D01*
X106687226Y-91084315D01*
X106824367Y-90833161D01*
X106924369Y-90565046D01*
X106985196Y-90285428D01*
X107005610Y-90000000D01*
X107005416Y-89997293D01*
X106991664Y-89805007D01*
X106985196Y-89714572D01*
X106980608Y-89693483D01*
X106924371Y-89434962D01*
X106924370Y-89434960D01*
X106924369Y-89434954D01*
X106824367Y-89166839D01*
X106820523Y-89159800D01*
X106687229Y-88915690D01*
X106687224Y-88915682D01*
X106515745Y-88686612D01*
X106515729Y-88686594D01*
X106313405Y-88484270D01*
X106313387Y-88484254D01*
X106084317Y-88312775D01*
X106084309Y-88312770D01*
X105833166Y-88175635D01*
X105833167Y-88175635D01*
X105669611Y-88114632D01*
X105565046Y-88075631D01*
X105565043Y-88075630D01*
X105565037Y-88075628D01*
X105285433Y-88014804D01*
X105000001Y-87994390D01*
X104999999Y-87994390D01*
X104714566Y-88014804D01*
X104434962Y-88075628D01*
X104166833Y-88175635D01*
X103915690Y-88312770D01*
X103915682Y-88312775D01*
X103686612Y-88484254D01*
X103686594Y-88484270D01*
X103484270Y-88686594D01*
X103484254Y-88686612D01*
X103312775Y-88915682D01*
X103312770Y-88915690D01*
X103175635Y-89166833D01*
X103075628Y-89434962D01*
X103014804Y-89714566D01*
X102994390Y-89999998D01*
X102994390Y-90000001D01*
X100500559Y-90000001D01*
X100500500Y-89997293D01*
X100500500Y-87250000D01*
X118108628Y-87250000D01*
X118750000Y-87250000D01*
X118750000Y-86607473D01*
X119250000Y-86607473D01*
X119250000Y-87250000D01*
X119891372Y-87250000D01*
X119891371Y-87249999D01*
X119849683Y-87121693D01*
X119849682Y-87121692D01*
X119752463Y-86953305D01*
X119752464Y-86953305D01*
X119622360Y-86808809D01*
X119622357Y-86808807D01*
X119465051Y-86694516D01*
X119287412Y-86615426D01*
X119250000Y-86607473D01*
X118750000Y-86607473D01*
X118712585Y-86615426D01*
X118712580Y-86615428D01*
X118534953Y-86694513D01*
X118377643Y-86808806D01*
X118247535Y-86953305D01*
X118150317Y-87121692D01*
X118150316Y-87121693D01*
X118108628Y-87249999D01*
X118108628Y-87250000D01*
X100500500Y-87250000D01*
X100500500Y-85650003D01*
X116094435Y-85650003D01*
X116114630Y-85829249D01*
X116114631Y-85829254D01*
X116174211Y-85999523D01*
X116220702Y-86073512D01*
X116270184Y-86152262D01*
X116397738Y-86279816D01*
X116486486Y-86335580D01*
X116546021Y-86372989D01*
X116550478Y-86375789D01*
X116693367Y-86425788D01*
X116720745Y-86435368D01*
X116720750Y-86435369D01*
X116899996Y-86455565D01*
X116900000Y-86455565D01*
X116900004Y-86455565D01*
X117079249Y-86435369D01*
X117079251Y-86435368D01*
X117079255Y-86435368D01*
X117079258Y-86435366D01*
X117079262Y-86435366D01*
X117169377Y-86403832D01*
X117249522Y-86375789D01*
X117339096Y-86319505D01*
X117405068Y-86300500D01*
X120750993Y-86300500D01*
X120818032Y-86320185D01*
X120863787Y-86372989D01*
X120873731Y-86442147D01*
X120844706Y-86505703D01*
X120819884Y-86527602D01*
X120722218Y-86592860D01*
X120722214Y-86592863D01*
X120582863Y-86732214D01*
X120582860Y-86732218D01*
X120473371Y-86896079D01*
X120473364Y-86896092D01*
X120397950Y-87078160D01*
X120397947Y-87078170D01*
X120359500Y-87271456D01*
X120359500Y-87271459D01*
X120359500Y-88568541D01*
X120359500Y-88568543D01*
X120359499Y-88568543D01*
X120397947Y-88761829D01*
X120397950Y-88761839D01*
X120473364Y-88943907D01*
X120473371Y-88943920D01*
X120582860Y-89107781D01*
X120582863Y-89107785D01*
X120722214Y-89247136D01*
X120722218Y-89247139D01*
X120886079Y-89356628D01*
X120886092Y-89356635D01*
X121068160Y-89432049D01*
X121068165Y-89432051D01*
X121068169Y-89432051D01*
X121068170Y-89432052D01*
X121261456Y-89470500D01*
X121261459Y-89470500D01*
X121458543Y-89470500D01*
X121588582Y-89444632D01*
X121651835Y-89432051D01*
X121833914Y-89356632D01*
X121997782Y-89247139D01*
X122137139Y-89107782D01*
X122246632Y-88943914D01*
X122250540Y-88934478D01*
X122294376Y-88880074D01*
X122360669Y-88858004D01*
X122428369Y-88875279D01*
X122433028Y-88878432D01*
X122436633Y-88880513D01*
X122436635Y-88880515D01*
X122497546Y-88915682D01*
X122556161Y-88949524D01*
X122567865Y-88956281D01*
X122714234Y-88995500D01*
X122714236Y-88995500D01*
X122865764Y-88995500D01*
X122865766Y-88995500D01*
X123012135Y-88956281D01*
X123143365Y-88880515D01*
X123250515Y-88773365D01*
X123326281Y-88642135D01*
X123352565Y-88544040D01*
X123387705Y-88486388D01*
X123367359Y-88445219D01*
X123365500Y-88423825D01*
X123365500Y-88344236D01*
X123365500Y-88344234D01*
X123326281Y-88197865D01*
X123250515Y-88066635D01*
X123143365Y-87959485D01*
X123060087Y-87911404D01*
X123012136Y-87883719D01*
X122907584Y-87855705D01*
X122865766Y-87844500D01*
X122714234Y-87844500D01*
X122567862Y-87883719D01*
X122546499Y-87896054D01*
X122478598Y-87912525D01*
X122412572Y-87889673D01*
X122369382Y-87834751D01*
X122360500Y-87788666D01*
X122360500Y-87271456D01*
X122322052Y-87078170D01*
X122322051Y-87078169D01*
X122322051Y-87078165D01*
X122322049Y-87078160D01*
X122246635Y-86896092D01*
X122246628Y-86896079D01*
X122137139Y-86732218D01*
X122137136Y-86732214D01*
X121997785Y-86592863D01*
X121997781Y-86592860D01*
X121900116Y-86527602D01*
X121855311Y-86473990D01*
X121846604Y-86404665D01*
X121876759Y-86341637D01*
X121936202Y-86304918D01*
X121969007Y-86300500D01*
X122517588Y-86300500D01*
X122584627Y-86320185D01*
X122594903Y-86327555D01*
X122597736Y-86329814D01*
X122597738Y-86329816D01*
X122711270Y-86401152D01*
X122728004Y-86411668D01*
X122750478Y-86425789D01*
X122835573Y-86455565D01*
X122920745Y-86485368D01*
X122920750Y-86485369D01*
X123099996Y-86505565D01*
X123100000Y-86505565D01*
X123100004Y-86505565D01*
X123279249Y-86485369D01*
X123279252Y-86485368D01*
X123279255Y-86485368D01*
X123449522Y-86425789D01*
X123602262Y-86329816D01*
X123729816Y-86202262D01*
X123825789Y-86049522D01*
X123885368Y-85879255D01*
X123891002Y-85829254D01*
X123905565Y-85700003D01*
X123905565Y-85699996D01*
X123885369Y-85520750D01*
X123885368Y-85520745D01*
X123825788Y-85350476D01*
X123744890Y-85221728D01*
X123729816Y-85197738D01*
X123602262Y-85070184D01*
X123522688Y-85020184D01*
X123449523Y-84974211D01*
X123279254Y-84914631D01*
X123279249Y-84914630D01*
X123100004Y-84894435D01*
X123099996Y-84894435D01*
X122920750Y-84914630D01*
X122920745Y-84914631D01*
X122750474Y-84974212D01*
X122740477Y-84980494D01*
X122674506Y-84999500D01*
X117405068Y-84999500D01*
X117339096Y-84980494D01*
X117249522Y-84924210D01*
X117249518Y-84924209D01*
X117079262Y-84864633D01*
X117079249Y-84864630D01*
X116900004Y-84844435D01*
X116899996Y-84844435D01*
X116720750Y-84864630D01*
X116720745Y-84864631D01*
X116550476Y-84924211D01*
X116397737Y-85020184D01*
X116270184Y-85147737D01*
X116174211Y-85300476D01*
X116114631Y-85470745D01*
X116114630Y-85470750D01*
X116094435Y-85649996D01*
X116094435Y-85650003D01*
X100500500Y-85650003D01*
X100500500Y-82213971D01*
X124549518Y-82213971D01*
X124590443Y-82366704D01*
X124596426Y-82377066D01*
X124596428Y-82377068D01*
X124669497Y-82503629D01*
X124669501Y-82503634D01*
X124862660Y-82696793D01*
X124896145Y-82758116D01*
X124898979Y-82784474D01*
X124898979Y-85589879D01*
X124879294Y-85656918D01*
X124871929Y-85667188D01*
X124869665Y-85670026D01*
X124773690Y-85822768D01*
X124714110Y-85993037D01*
X124714109Y-85993042D01*
X124693914Y-86172288D01*
X124693914Y-86172295D01*
X124714109Y-86351541D01*
X124714110Y-86351546D01*
X124773690Y-86521815D01*
X124869663Y-86674554D01*
X124997217Y-86802108D01*
X125007882Y-86808809D01*
X125146791Y-86896092D01*
X125149957Y-86898081D01*
X125307778Y-86953305D01*
X125320224Y-86957660D01*
X125320229Y-86957661D01*
X125499475Y-86977857D01*
X125499479Y-86977857D01*
X125499483Y-86977857D01*
X125678728Y-86957661D01*
X125678731Y-86957660D01*
X125678734Y-86957660D01*
X125849001Y-86898081D01*
X126001741Y-86802108D01*
X126129295Y-86674554D01*
X126225268Y-86521814D01*
X126263809Y-86411667D01*
X126304531Y-86354892D01*
X126339895Y-86335580D01*
X126450043Y-86297039D01*
X126602783Y-86201066D01*
X126730337Y-86073512D01*
X126826310Y-85920772D01*
X126885889Y-85750505D01*
X126885890Y-85750499D01*
X126891579Y-85700003D01*
X127394435Y-85700003D01*
X127414630Y-85879249D01*
X127414631Y-85879254D01*
X127474211Y-86049523D01*
X127570184Y-86202262D01*
X127697738Y-86329816D01*
X127770902Y-86375788D01*
X127828004Y-86411668D01*
X127850478Y-86425789D01*
X127935573Y-86455565D01*
X128020745Y-86485368D01*
X128020750Y-86485369D01*
X128199996Y-86505565D01*
X128200000Y-86505565D01*
X128200004Y-86505565D01*
X128379249Y-86485369D01*
X128379252Y-86485368D01*
X128379255Y-86485368D01*
X128549522Y-86425789D01*
X128702262Y-86329816D01*
X128829816Y-86202262D01*
X128925789Y-86049522D01*
X128985368Y-85879255D01*
X128995161Y-85792329D01*
X129022226Y-85727918D01*
X129030690Y-85718543D01*
X130058506Y-84690728D01*
X130058511Y-84690724D01*
X130068714Y-84680520D01*
X130068716Y-84680520D01*
X130180520Y-84568716D01*
X130259577Y-84431784D01*
X130300500Y-84279057D01*
X130300500Y-80132412D01*
X130320185Y-80065373D01*
X130327555Y-80055097D01*
X130329810Y-80052267D01*
X130329816Y-80052262D01*
X130425789Y-79899522D01*
X130485368Y-79729255D01*
X130505565Y-79550000D01*
X130485368Y-79370745D01*
X130425789Y-79200478D01*
X130329816Y-79047738D01*
X130202262Y-78920184D01*
X130049523Y-78824211D01*
X129879254Y-78764631D01*
X129879249Y-78764630D01*
X129700004Y-78744435D01*
X129699996Y-78744435D01*
X129520750Y-78764630D01*
X129520745Y-78764631D01*
X129350476Y-78824211D01*
X129197737Y-78920184D01*
X129070184Y-79047737D01*
X128974211Y-79200476D01*
X128914631Y-79370745D01*
X128914630Y-79370750D01*
X128894435Y-79549996D01*
X128894435Y-79550003D01*
X128914630Y-79729249D01*
X128914631Y-79729254D01*
X128974211Y-79899523D01*
X129070185Y-80052263D01*
X129072445Y-80055097D01*
X129073334Y-80057275D01*
X129073889Y-80058158D01*
X129073734Y-80058255D01*
X129098855Y-80119783D01*
X129099500Y-80132412D01*
X129099500Y-83899902D01*
X129079815Y-83966941D01*
X129063181Y-83987583D01*
X128181465Y-84869298D01*
X128120142Y-84902783D01*
X128107668Y-84904837D01*
X128020750Y-84914630D01*
X127850478Y-84974210D01*
X127697737Y-85070184D01*
X127570184Y-85197737D01*
X127474211Y-85350476D01*
X127414631Y-85520745D01*
X127414630Y-85520750D01*
X127394435Y-85699996D01*
X127394435Y-85700003D01*
X126891579Y-85700003D01*
X126906086Y-85571253D01*
X126906086Y-85571246D01*
X126885890Y-85392000D01*
X126885889Y-85391995D01*
X126826309Y-85221726D01*
X126730336Y-85068987D01*
X126602785Y-84941436D01*
X126602783Y-84941434D01*
X126602780Y-84941432D01*
X126597339Y-84937093D01*
X126599189Y-84934772D01*
X126561675Y-84892292D01*
X126549980Y-84839723D01*
X126549980Y-82218954D01*
X126549980Y-82218952D01*
X126509057Y-82066225D01*
X126498688Y-82048265D01*
X126430004Y-81929299D01*
X126430001Y-81929295D01*
X126430000Y-81929293D01*
X126318196Y-81817489D01*
X126318195Y-81817488D01*
X126313865Y-81813158D01*
X126313854Y-81813148D01*
X126288387Y-81787681D01*
X126254902Y-81726358D01*
X126259886Y-81656666D01*
X126288385Y-81612321D01*
X126307982Y-81592723D01*
X126307987Y-81592719D01*
X126318194Y-81582511D01*
X126318196Y-81582511D01*
X126430000Y-81470707D01*
X126509057Y-81333775D01*
X126549980Y-81181048D01*
X126549980Y-75868816D01*
X126569665Y-75801777D01*
X126586294Y-75781140D01*
X130605615Y-71761818D01*
X130666938Y-71728334D01*
X130693296Y-71725500D01*
X132837710Y-71725500D01*
X132904749Y-71745185D01*
X132942703Y-71783527D01*
X132970182Y-71827260D01*
X132970184Y-71827262D01*
X133097738Y-71954816D01*
X133250478Y-72050789D01*
X133420745Y-72110368D01*
X133420750Y-72110369D01*
X133599996Y-72130565D01*
X133600000Y-72130565D01*
X133600004Y-72130565D01*
X133779249Y-72110369D01*
X133779252Y-72110368D01*
X133779255Y-72110368D01*
X133949522Y-72050789D01*
X134102262Y-71954816D01*
X134229816Y-71827262D01*
X134325789Y-71674522D01*
X134385368Y-71504255D01*
X134387496Y-71485368D01*
X134405565Y-71325003D01*
X134405565Y-71324996D01*
X134385369Y-71145750D01*
X134385366Y-71145737D01*
X134325789Y-70975479D01*
X134325789Y-70975478D01*
X134319815Y-70965971D01*
X134300815Y-70898737D01*
X134319816Y-70834027D01*
X134325789Y-70824522D01*
X134372198Y-70691892D01*
X134385366Y-70654262D01*
X134385369Y-70654249D01*
X134405565Y-70475003D01*
X134405565Y-70474996D01*
X134385369Y-70295750D01*
X134385368Y-70295745D01*
X134351074Y-70197738D01*
X134325789Y-70125478D01*
X134229816Y-69972738D01*
X134102262Y-69845184D01*
X134063368Y-69820745D01*
X133949523Y-69749211D01*
X133779254Y-69689631D01*
X133779249Y-69689630D01*
X133600004Y-69669435D01*
X133599996Y-69669435D01*
X133420750Y-69689630D01*
X133420745Y-69689631D01*
X133250476Y-69749211D01*
X133097737Y-69845184D01*
X132970185Y-69972736D01*
X132942703Y-70016473D01*
X132890368Y-70062763D01*
X132837710Y-70074499D01*
X130127744Y-70074499D01*
X130127742Y-70074500D01*
X129975015Y-70115423D01*
X129975014Y-70115423D01*
X129975012Y-70115424D01*
X129975009Y-70115425D01*
X129924896Y-70144359D01*
X129924895Y-70144360D01*
X129881489Y-70169420D01*
X129838085Y-70194479D01*
X129838082Y-70194481D01*
X125018960Y-75013603D01*
X125018959Y-75013605D01*
X124975892Y-75088200D01*
X124939902Y-75150536D01*
X124898978Y-75303264D01*
X124898978Y-75303266D01*
X124898978Y-75471367D01*
X124898979Y-75471380D01*
X124898979Y-80615525D01*
X124879294Y-80682564D01*
X124862660Y-80703206D01*
X124774234Y-80791631D01*
X124774235Y-80791632D01*
X124669497Y-80896370D01*
X124626439Y-80970951D01*
X124590443Y-81033298D01*
X124549519Y-81186026D01*
X124549519Y-81186028D01*
X124549519Y-81354129D01*
X124549520Y-81354142D01*
X124549520Y-82048247D01*
X124549519Y-82048265D01*
X124549519Y-82213971D01*
X124549518Y-82213971D01*
X100500500Y-82213971D01*
X100500500Y-71473920D01*
X103249499Y-71473920D01*
X103278340Y-71618907D01*
X103278343Y-71618917D01*
X103334912Y-71755488D01*
X103334919Y-71755501D01*
X103417048Y-71878415D01*
X103417051Y-71878419D01*
X103521580Y-71982948D01*
X103521584Y-71982951D01*
X103644498Y-72065080D01*
X103644511Y-72065087D01*
X103753830Y-72110368D01*
X103781087Y-72121658D01*
X103781091Y-72121658D01*
X103781092Y-72121659D01*
X103926079Y-72150500D01*
X103926082Y-72150500D01*
X104073920Y-72150500D01*
X104174136Y-72130565D01*
X104218913Y-72121658D01*
X104355495Y-72065084D01*
X104478416Y-71982951D01*
X104582951Y-71878416D01*
X104665084Y-71755495D01*
X104721658Y-71618913D01*
X104731096Y-71571462D01*
X104750500Y-71473920D01*
X104750500Y-71326079D01*
X104721659Y-71181092D01*
X104721658Y-71181091D01*
X104721658Y-71181087D01*
X104707016Y-71145737D01*
X104665087Y-71044511D01*
X104665080Y-71044498D01*
X104582951Y-70921584D01*
X104582948Y-70921580D01*
X104478419Y-70817051D01*
X104478415Y-70817048D01*
X104355501Y-70734919D01*
X104355488Y-70734912D01*
X104218917Y-70678343D01*
X104218907Y-70678340D01*
X104073920Y-70649500D01*
X104073918Y-70649500D01*
X103926082Y-70649500D01*
X103926080Y-70649500D01*
X103781092Y-70678340D01*
X103781082Y-70678343D01*
X103644511Y-70734912D01*
X103644498Y-70734919D01*
X103521584Y-70817048D01*
X103521580Y-70817051D01*
X103417051Y-70921580D01*
X103417048Y-70921584D01*
X103334919Y-71044498D01*
X103334912Y-71044511D01*
X103278343Y-71181082D01*
X103278340Y-71181092D01*
X103249500Y-71326079D01*
X103249500Y-71326082D01*
X103249500Y-71473918D01*
X103249500Y-71473920D01*
X103249499Y-71473920D01*
X100500500Y-71473920D01*
X100500500Y-64673920D01*
X103249499Y-64673920D01*
X103278340Y-64818907D01*
X103278343Y-64818917D01*
X103334912Y-64955488D01*
X103334919Y-64955501D01*
X103417048Y-65078415D01*
X103417051Y-65078419D01*
X103521580Y-65182948D01*
X103521584Y-65182951D01*
X103644498Y-65265080D01*
X103644511Y-65265087D01*
X103781082Y-65321656D01*
X103781087Y-65321658D01*
X103781091Y-65321658D01*
X103781092Y-65321659D01*
X103926079Y-65350500D01*
X103926082Y-65350500D01*
X104073920Y-65350500D01*
X104171462Y-65331096D01*
X104218913Y-65321658D01*
X104355495Y-65265084D01*
X104478416Y-65182951D01*
X104582951Y-65078416D01*
X104665084Y-64955495D01*
X104721658Y-64818913D01*
X104750500Y-64673918D01*
X104750500Y-64526082D01*
X104750500Y-64526079D01*
X104721659Y-64381092D01*
X104721658Y-64381091D01*
X104721658Y-64381087D01*
X104721656Y-64381082D01*
X104665087Y-64244511D01*
X104665080Y-64244498D01*
X104582951Y-64121584D01*
X104582948Y-64121580D01*
X104478419Y-64017051D01*
X104478415Y-64017048D01*
X104355501Y-63934919D01*
X104355488Y-63934912D01*
X104218917Y-63878343D01*
X104218907Y-63878340D01*
X104073920Y-63849500D01*
X104073918Y-63849500D01*
X103926082Y-63849500D01*
X103926080Y-63849500D01*
X103781092Y-63878340D01*
X103781082Y-63878343D01*
X103644511Y-63934912D01*
X103644498Y-63934919D01*
X103521584Y-64017048D01*
X103521580Y-64017051D01*
X103417051Y-64121580D01*
X103417048Y-64121584D01*
X103334919Y-64244498D01*
X103334912Y-64244511D01*
X103278343Y-64381082D01*
X103278340Y-64381092D01*
X103249500Y-64526079D01*
X103249500Y-64526082D01*
X103249500Y-64673918D01*
X103249500Y-64673920D01*
X103249499Y-64673920D01*
X100500500Y-64673920D01*
X100500500Y-60000000D01*
X102069402Y-60000000D01*
X102079570Y-60096741D01*
X102089738Y-60193483D01*
X102089740Y-60193488D01*
X102119848Y-60286154D01*
X102121843Y-60355995D01*
X102118099Y-60367804D01*
X102080908Y-60467517D01*
X102074501Y-60527116D01*
X102074500Y-60527135D01*
X102074500Y-61472870D01*
X102074501Y-61472876D01*
X102080908Y-61532483D01*
X102131202Y-61667328D01*
X102131206Y-61667335D01*
X102217452Y-61782544D01*
X102217455Y-61782547D01*
X102332664Y-61868793D01*
X102332671Y-61868797D01*
X102467517Y-61919091D01*
X102467516Y-61919091D01*
X102474444Y-61919835D01*
X102527127Y-61925500D01*
X103273430Y-61925499D01*
X103340469Y-61945183D01*
X103361111Y-61961818D01*
X111904564Y-70505272D01*
X111904567Y-70505275D01*
X111994584Y-70565422D01*
X111994585Y-70565422D01*
X111994586Y-70565423D01*
X112011112Y-70576465D01*
X112129495Y-70625501D01*
X112129499Y-70625501D01*
X112129500Y-70625502D01*
X112255167Y-70650500D01*
X112255170Y-70650500D01*
X113894932Y-70650500D01*
X113960904Y-70669506D01*
X114050477Y-70725789D01*
X114050481Y-70725790D01*
X114220737Y-70785366D01*
X114220743Y-70785367D01*
X114220745Y-70785368D01*
X114220746Y-70785368D01*
X114220750Y-70785369D01*
X114399996Y-70805565D01*
X114400000Y-70805565D01*
X114400004Y-70805565D01*
X114579249Y-70785369D01*
X114579252Y-70785368D01*
X114579255Y-70785368D01*
X114749522Y-70725789D01*
X114902262Y-70629816D01*
X115029816Y-70502262D01*
X115125789Y-70349522D01*
X115185368Y-70179255D01*
X115191427Y-70125478D01*
X115205565Y-70000003D01*
X115205565Y-69999996D01*
X115185369Y-69820750D01*
X115185368Y-69820745D01*
X115160337Y-69749211D01*
X115125789Y-69650478D01*
X115029816Y-69497738D01*
X114902262Y-69370184D01*
X114869344Y-69349500D01*
X114749523Y-69274211D01*
X114579254Y-69214631D01*
X114579249Y-69214630D01*
X114400004Y-69194435D01*
X114399996Y-69194435D01*
X114220750Y-69214630D01*
X114220737Y-69214633D01*
X114050481Y-69274209D01*
X114050477Y-69274211D01*
X113986141Y-69314636D01*
X113918904Y-69333636D01*
X113852069Y-69313268D01*
X113806855Y-69260000D01*
X113796949Y-69223525D01*
X113785369Y-69120750D01*
X113785368Y-69120745D01*
X113725788Y-68950476D01*
X113686582Y-68888080D01*
X113629816Y-68797738D01*
X113502262Y-68670184D01*
X113349523Y-68574211D01*
X113179254Y-68514631D01*
X113179250Y-68514630D01*
X113002973Y-68494769D01*
X112938559Y-68467702D01*
X112929176Y-68459230D01*
X112858641Y-68388695D01*
X125799500Y-68388695D01*
X125834103Y-68562658D01*
X125834106Y-68562667D01*
X125901983Y-68726540D01*
X125901990Y-68726553D01*
X126000535Y-68874034D01*
X126000538Y-68874038D01*
X126125961Y-68999461D01*
X126125965Y-68999464D01*
X126273446Y-69098009D01*
X126273459Y-69098016D01*
X126396363Y-69148923D01*
X126437334Y-69165894D01*
X126437336Y-69165894D01*
X126437341Y-69165896D01*
X126611304Y-69200499D01*
X126611307Y-69200500D01*
X126611309Y-69200500D01*
X126788693Y-69200500D01*
X126788694Y-69200499D01*
X126846682Y-69188964D01*
X126962658Y-69165896D01*
X126962661Y-69165894D01*
X126962666Y-69165894D01*
X127126547Y-69098013D01*
X127274035Y-68999464D01*
X127399464Y-68874035D01*
X127498013Y-68726547D01*
X127565894Y-68562666D01*
X127572280Y-68530565D01*
X127588964Y-68446682D01*
X127600500Y-68388691D01*
X127600500Y-67725003D01*
X130894435Y-67725003D01*
X130914630Y-67904249D01*
X130914631Y-67904254D01*
X130974211Y-68074523D01*
X130994605Y-68106979D01*
X131070184Y-68227262D01*
X131197738Y-68354816D01*
X131350478Y-68450789D01*
X131520739Y-68510366D01*
X131520745Y-68510368D01*
X131520750Y-68510369D01*
X131699996Y-68530565D01*
X131700000Y-68530565D01*
X131700004Y-68530565D01*
X131879249Y-68510369D01*
X131879251Y-68510368D01*
X131879255Y-68510368D01*
X131879258Y-68510366D01*
X131879262Y-68510366D01*
X132001187Y-68467702D01*
X132049522Y-68450789D01*
X132139096Y-68394505D01*
X132205068Y-68375500D01*
X133884953Y-68375500D01*
X133951992Y-68395185D01*
X133972634Y-68411819D01*
X136766085Y-71205271D01*
X136766088Y-71205274D01*
X136809945Y-71234578D01*
X136872627Y-71276461D01*
X136872633Y-71276464D01*
X136872634Y-71276465D01*
X136991017Y-71325501D01*
X136991021Y-71325501D01*
X136991022Y-71325502D01*
X137116689Y-71350500D01*
X137116692Y-71350500D01*
X137694932Y-71350500D01*
X137760904Y-71369506D01*
X137850477Y-71425789D01*
X137850481Y-71425790D01*
X138020737Y-71485366D01*
X138020743Y-71485367D01*
X138020745Y-71485368D01*
X138020746Y-71485368D01*
X138020750Y-71485369D01*
X138199996Y-71505565D01*
X138200000Y-71505565D01*
X138200001Y-71505565D01*
X138211627Y-71504255D01*
X138269898Y-71497689D01*
X138338718Y-71509743D01*
X138390098Y-71557091D01*
X138407723Y-71624702D01*
X138385997Y-71691108D01*
X138371462Y-71708590D01*
X137901775Y-72178277D01*
X137840452Y-72211762D01*
X137827988Y-72213815D01*
X137820752Y-72214630D01*
X137820744Y-72214632D01*
X137650478Y-72274210D01*
X137497737Y-72370184D01*
X137370184Y-72497737D01*
X137274211Y-72650476D01*
X137214631Y-72820745D01*
X137214630Y-72820750D01*
X137194435Y-72999996D01*
X137194435Y-73000003D01*
X137214630Y-73179249D01*
X137214631Y-73179254D01*
X137274211Y-73349523D01*
X137370184Y-73502262D01*
X137497738Y-73629816D01*
X137650478Y-73725789D01*
X137820745Y-73785368D01*
X137820750Y-73785369D01*
X137999996Y-73805565D01*
X138000000Y-73805565D01*
X138000004Y-73805565D01*
X138179249Y-73785369D01*
X138179252Y-73785368D01*
X138179255Y-73785368D01*
X138349522Y-73725789D01*
X138502262Y-73629816D01*
X138629816Y-73502262D01*
X138725789Y-73349522D01*
X138785368Y-73179255D01*
X138786182Y-73172025D01*
X138813245Y-73107611D01*
X138821712Y-73098232D01*
X140405277Y-71514669D01*
X140476465Y-71408127D01*
X140497731Y-71356786D01*
X140525501Y-71289744D01*
X140550500Y-71164069D01*
X140550500Y-68905067D01*
X140569507Y-68839094D01*
X140625788Y-68749524D01*
X140633828Y-68726547D01*
X140685368Y-68579255D01*
X140685369Y-68579249D01*
X140705565Y-68400003D01*
X140705565Y-68399996D01*
X140685369Y-68220750D01*
X140685368Y-68220745D01*
X140667017Y-68168302D01*
X140625789Y-68050478D01*
X140529816Y-67897738D01*
X140402262Y-67770184D01*
X140330357Y-67725003D01*
X140249523Y-67674211D01*
X140079254Y-67614631D01*
X140079249Y-67614630D01*
X139900004Y-67594435D01*
X139899996Y-67594435D01*
X139720750Y-67614630D01*
X139720745Y-67614631D01*
X139550476Y-67674211D01*
X139397737Y-67770184D01*
X139270184Y-67897737D01*
X139174211Y-68050476D01*
X139114631Y-68220745D01*
X139114630Y-68220750D01*
X139094435Y-68399996D01*
X139094435Y-68400003D01*
X139114630Y-68579249D01*
X139114631Y-68579254D01*
X139174211Y-68749524D01*
X139230493Y-68839094D01*
X139249500Y-68905067D01*
X139249500Y-70656957D01*
X139229815Y-70723996D01*
X139177011Y-70769751D01*
X139107853Y-70779695D01*
X139044297Y-70750670D01*
X139006523Y-70691892D01*
X139002280Y-70670840D01*
X138985369Y-70520750D01*
X138985368Y-70520745D01*
X138925789Y-70350478D01*
X138925188Y-70349522D01*
X138829815Y-70197737D01*
X138702262Y-70070184D01*
X138549523Y-69974211D01*
X138379254Y-69914631D01*
X138379249Y-69914630D01*
X138200004Y-69894435D01*
X138199996Y-69894435D01*
X138020750Y-69914630D01*
X138020737Y-69914633D01*
X137850481Y-69974209D01*
X137850477Y-69974210D01*
X137760904Y-70030494D01*
X137694932Y-70049500D01*
X137501569Y-70049500D01*
X137434530Y-70029815D01*
X137413888Y-70013181D01*
X134620435Y-67219727D01*
X134620434Y-67219726D01*
X134620430Y-67219723D01*
X134513888Y-67148535D01*
X134395505Y-67099499D01*
X134395499Y-67099497D01*
X134269832Y-67074500D01*
X134269830Y-67074500D01*
X132205068Y-67074500D01*
X132139096Y-67055494D01*
X132049522Y-66999210D01*
X132049518Y-66999209D01*
X131879262Y-66939633D01*
X131879249Y-66939630D01*
X131700004Y-66919435D01*
X131699996Y-66919435D01*
X131520750Y-66939630D01*
X131520745Y-66939631D01*
X131350476Y-66999211D01*
X131197737Y-67095184D01*
X131070184Y-67222737D01*
X130974211Y-67375476D01*
X130914631Y-67545745D01*
X130914630Y-67545750D01*
X130894435Y-67724996D01*
X130894435Y-67725003D01*
X127600500Y-67725003D01*
X127600500Y-59824361D01*
X127620185Y-59757322D01*
X127636819Y-59736680D01*
X132611680Y-54761819D01*
X132673003Y-54728334D01*
X132699361Y-54725500D01*
X135018060Y-54725500D01*
X135085099Y-54745185D01*
X135130854Y-54797989D01*
X135140798Y-54867147D01*
X135111773Y-54930703D01*
X135105741Y-54937181D01*
X135070184Y-54972737D01*
X134974211Y-55125476D01*
X134914631Y-55295745D01*
X134914630Y-55295750D01*
X134894435Y-55474996D01*
X134894435Y-55475003D01*
X134914630Y-55654249D01*
X134914631Y-55654254D01*
X134974211Y-55824523D01*
X135070184Y-55977262D01*
X135197738Y-56104816D01*
X135260904Y-56144506D01*
X135338850Y-56193483D01*
X135350478Y-56200789D01*
X135520739Y-56260366D01*
X135520745Y-56260368D01*
X135520750Y-56260369D01*
X135699996Y-56280565D01*
X135700000Y-56280565D01*
X135700004Y-56280565D01*
X135879249Y-56260369D01*
X135879251Y-56260368D01*
X135879255Y-56260368D01*
X135879258Y-56260366D01*
X135879262Y-56260366D01*
X135969377Y-56228832D01*
X136049522Y-56200789D01*
X136139096Y-56144505D01*
X136205068Y-56125500D01*
X140189071Y-56125500D01*
X140273615Y-56108682D01*
X140314744Y-56100501D01*
X140433127Y-56051465D01*
X140539669Y-55980277D01*
X142098224Y-54421720D01*
X142159545Y-54388237D01*
X142172019Y-54386183D01*
X142179255Y-54385368D01*
X142349522Y-54325789D01*
X142502262Y-54229816D01*
X142629816Y-54102262D01*
X142725789Y-53949522D01*
X142785368Y-53779255D01*
X142790207Y-53736306D01*
X142805565Y-53600003D01*
X142805565Y-53599996D01*
X142785369Y-53420750D01*
X142785368Y-53420745D01*
X142725788Y-53250476D01*
X142647284Y-53125538D01*
X142629816Y-53097738D01*
X142502262Y-52970184D01*
X142484635Y-52959108D01*
X142349523Y-52874211D01*
X142179254Y-52814631D01*
X142179249Y-52814630D01*
X142000004Y-52794435D01*
X141999996Y-52794435D01*
X141820750Y-52814630D01*
X141820745Y-52814631D01*
X141650476Y-52874211D01*
X141497737Y-52970184D01*
X141370184Y-53097737D01*
X141274210Y-53250478D01*
X141214632Y-53420744D01*
X141214630Y-53420752D01*
X141213815Y-53427988D01*
X141186743Y-53492400D01*
X141178277Y-53501775D01*
X139891873Y-54788181D01*
X139830550Y-54821666D01*
X139804192Y-54824500D01*
X136233774Y-54824500D01*
X136166735Y-54804815D01*
X136120980Y-54752011D01*
X136111036Y-54682853D01*
X136140061Y-54619297D01*
X136164883Y-54597398D01*
X136209965Y-54567274D01*
X136274035Y-54524464D01*
X136399464Y-54399035D01*
X136498013Y-54251547D01*
X136565894Y-54087666D01*
X136600500Y-53913691D01*
X136600500Y-53736309D01*
X136600500Y-53736306D01*
X136600499Y-53736304D01*
X136565896Y-53562341D01*
X136565893Y-53562332D01*
X136498016Y-53398459D01*
X136498009Y-53398446D01*
X136399464Y-53250965D01*
X136399461Y-53250961D01*
X136274038Y-53125538D01*
X136274034Y-53125535D01*
X136126553Y-53026990D01*
X136126540Y-53026983D01*
X135962667Y-52959106D01*
X135962658Y-52959103D01*
X135788694Y-52924500D01*
X135788691Y-52924500D01*
X132363692Y-52924500D01*
X132186309Y-52924500D01*
X132186304Y-52924500D01*
X132012339Y-52959103D01*
X132012323Y-52959108D01*
X131896453Y-53007102D01*
X131896454Y-53007103D01*
X131848454Y-53026986D01*
X131740363Y-53099211D01*
X131740362Y-53099211D01*
X131700969Y-53125532D01*
X131700961Y-53125538D01*
X126000538Y-58825960D01*
X126000537Y-58825961D01*
X125961064Y-58885039D01*
X125961063Y-58885040D01*
X125901985Y-58973455D01*
X125868046Y-59055393D01*
X125834107Y-59137327D01*
X125834105Y-59137333D01*
X125827460Y-59170738D01*
X125800700Y-59305276D01*
X125800699Y-59305280D01*
X125800699Y-59305281D01*
X125799500Y-59311307D01*
X125799500Y-68388695D01*
X112858641Y-68388695D01*
X112638247Y-68168302D01*
X112604762Y-68106979D01*
X112609746Y-68037288D01*
X112626204Y-68008217D01*
X112626111Y-68008159D01*
X112627391Y-68006120D01*
X112628991Y-68003296D01*
X112629810Y-68002267D01*
X112629816Y-68002262D01*
X112725789Y-67849522D01*
X112785368Y-67679255D01*
X112785369Y-67679249D01*
X112805565Y-67500003D01*
X112805565Y-67499996D01*
X112785369Y-67320750D01*
X112785368Y-67320745D01*
X112751074Y-67222738D01*
X112725789Y-67150478D01*
X112693755Y-67099497D01*
X112678049Y-67074500D01*
X112629816Y-66997738D01*
X112502262Y-66870184D01*
X112349521Y-66774210D01*
X112179255Y-66714632D01*
X112179246Y-66714630D01*
X112172012Y-66713815D01*
X112107600Y-66686744D01*
X112098223Y-66678277D01*
X105421150Y-60001203D01*
X109394435Y-60001203D01*
X109414630Y-60180449D01*
X109414631Y-60180454D01*
X109474211Y-60350723D01*
X109477524Y-60355995D01*
X109570184Y-60503462D01*
X109697738Y-60631016D01*
X109850478Y-60726989D01*
X110020745Y-60786568D01*
X110020750Y-60786569D01*
X110199996Y-60806765D01*
X110200000Y-60806765D01*
X110200004Y-60806765D01*
X110379249Y-60786569D01*
X110379252Y-60786568D01*
X110379255Y-60786568D01*
X110549522Y-60726989D01*
X110702262Y-60631016D01*
X110829816Y-60503462D01*
X110925789Y-60350722D01*
X110985368Y-60180455D01*
X110986182Y-60173225D01*
X111013245Y-60108811D01*
X111021712Y-60099432D01*
X111634327Y-59486819D01*
X111695650Y-59453334D01*
X111722008Y-59450500D01*
X124094932Y-59450500D01*
X124160904Y-59469506D01*
X124250477Y-59525789D01*
X124250481Y-59525790D01*
X124420737Y-59585366D01*
X124420743Y-59585367D01*
X124420745Y-59585368D01*
X124420746Y-59585368D01*
X124420750Y-59585369D01*
X124599996Y-59605565D01*
X124600000Y-59605565D01*
X124600004Y-59605565D01*
X124779249Y-59585369D01*
X124779252Y-59585368D01*
X124779255Y-59585368D01*
X124949522Y-59525789D01*
X125102262Y-59429816D01*
X125229816Y-59302262D01*
X125325789Y-59149522D01*
X125385368Y-58979255D01*
X125385369Y-58979249D01*
X125405565Y-58800003D01*
X125405565Y-58799996D01*
X125385369Y-58620750D01*
X125385368Y-58620745D01*
X125341272Y-58494727D01*
X125325789Y-58450478D01*
X125229816Y-58297738D01*
X125102262Y-58170184D01*
X125039096Y-58130494D01*
X124949523Y-58074211D01*
X124779254Y-58014631D01*
X124779249Y-58014630D01*
X124600004Y-57994435D01*
X124599996Y-57994435D01*
X124420750Y-58014630D01*
X124420737Y-58014633D01*
X124250481Y-58074209D01*
X124250477Y-58074210D01*
X124160904Y-58130494D01*
X124094932Y-58149500D01*
X111337129Y-58149500D01*
X111211461Y-58174497D01*
X111211455Y-58174499D01*
X111093070Y-58223535D01*
X110986531Y-58294722D01*
X110986524Y-58294728D01*
X110101775Y-59179477D01*
X110040452Y-59212962D01*
X110027988Y-59215015D01*
X110020752Y-59215830D01*
X110020744Y-59215832D01*
X109850478Y-59275410D01*
X109697737Y-59371384D01*
X109570184Y-59498937D01*
X109474211Y-59651676D01*
X109414631Y-59821945D01*
X109414630Y-59821950D01*
X109394435Y-60001196D01*
X109394435Y-60001203D01*
X105421150Y-60001203D01*
X103914674Y-58494727D01*
X103914672Y-58494725D01*
X103914631Y-58494698D01*
X103908675Y-58490718D01*
X103863870Y-58437109D01*
X103855161Y-58367784D01*
X103859631Y-58349307D01*
X103910262Y-58193482D01*
X103930598Y-58000000D01*
X103910262Y-57806518D01*
X103850144Y-57621492D01*
X103815795Y-57561999D01*
X103799322Y-57494101D01*
X103815796Y-57438000D01*
X103850144Y-57378508D01*
X103910262Y-57193482D01*
X103930598Y-57000000D01*
X103910262Y-56806518D01*
X103850144Y-56621492D01*
X103815795Y-56561999D01*
X103799322Y-56494101D01*
X103815796Y-56438000D01*
X103850144Y-56378508D01*
X103910262Y-56193482D01*
X103930598Y-56000000D01*
X103910262Y-55806518D01*
X103850144Y-55621492D01*
X103850143Y-55621491D01*
X103850143Y-55621489D01*
X103850142Y-55621488D01*
X103816202Y-55562703D01*
X103752870Y-55453008D01*
X103701882Y-55396381D01*
X103622697Y-55308435D01*
X103622694Y-55308433D01*
X103622693Y-55308432D01*
X103622692Y-55308431D01*
X103543995Y-55251254D01*
X103465297Y-55194076D01*
X103328848Y-55133326D01*
X103287571Y-55114949D01*
X103287569Y-55114948D01*
X103097274Y-55074500D01*
X102902726Y-55074500D01*
X102712431Y-55114948D01*
X102534702Y-55194076D01*
X102377305Y-55308433D01*
X102377302Y-55308435D01*
X102247129Y-55453009D01*
X102149857Y-55621488D01*
X102149856Y-55621489D01*
X102089738Y-55806516D01*
X102069402Y-56000000D01*
X102089738Y-56193483D01*
X102149856Y-56378510D01*
X102149857Y-56378511D01*
X102184203Y-56438000D01*
X102200676Y-56505900D01*
X102184203Y-56562000D01*
X102149857Y-56621488D01*
X102149856Y-56621489D01*
X102089738Y-56806516D01*
X102069402Y-57000000D01*
X102089738Y-57193483D01*
X102149856Y-57378510D01*
X102149857Y-57378511D01*
X102184203Y-57438000D01*
X102200676Y-57505900D01*
X102184203Y-57562000D01*
X102149857Y-57621488D01*
X102149856Y-57621489D01*
X102089738Y-57806516D01*
X102069402Y-58000000D01*
X102089738Y-58193483D01*
X102149856Y-58378510D01*
X102149857Y-58378511D01*
X102184203Y-58438000D01*
X102200676Y-58505900D01*
X102184203Y-58562000D01*
X102149857Y-58621488D01*
X102149856Y-58621489D01*
X102089738Y-58806516D01*
X102069402Y-59000000D01*
X102089738Y-59193483D01*
X102149856Y-59378510D01*
X102149857Y-59378511D01*
X102184203Y-59438000D01*
X102200676Y-59505900D01*
X102184203Y-59562000D01*
X102149857Y-59621488D01*
X102149856Y-59621489D01*
X102089738Y-59806516D01*
X102069402Y-59999999D01*
X102069402Y-60000000D01*
X100500500Y-60000000D01*
X100500500Y-50002706D01*
X100500618Y-49997297D01*
X100503377Y-49934108D01*
X100517386Y-49613226D01*
X100518326Y-49602495D01*
X100568152Y-49224025D01*
X100570025Y-49213405D01*
X100652649Y-48840709D01*
X100655440Y-48830295D01*
X100770230Y-48466227D01*
X100773917Y-48456095D01*
X100920003Y-48103412D01*
X100924561Y-48093638D01*
X101100822Y-47755045D01*
X101106217Y-47745700D01*
X101311325Y-47423744D01*
X101317515Y-47414905D01*
X101549896Y-47112060D01*
X101556834Y-47103791D01*
X101814726Y-46822352D01*
X101822352Y-46814726D01*
X102103791Y-46556834D01*
X102112060Y-46549896D01*
X102414905Y-46317515D01*
X102423744Y-46311325D01*
X102745700Y-46106217D01*
X102755045Y-46100822D01*
X103093638Y-45924561D01*
X103103412Y-45920003D01*
X103456095Y-45773917D01*
X103466227Y-45770230D01*
X103830295Y-45655440D01*
X103840709Y-45652649D01*
X104213405Y-45570025D01*
X104224025Y-45568152D01*
X104602495Y-45518326D01*
X104613226Y-45517386D01*
X104997297Y-45500617D01*
X105002706Y-45500500D01*
X105065892Y-45500500D01*
X106876000Y-45500500D01*
X106943039Y-45520185D01*
G37*
%TD.AperFunction*%
%TD*%
M02*
