%TF.GenerationSoftware,KiCad,Pcbnew,8.0.1*%
%TF.CreationDate,2024-04-06T15:46:49-07:00*%
%TF.ProjectId,Hardware,48617264-7761-4726-952e-6b696361645f,rev?*%
%TF.SameCoordinates,Original*%
%TF.FileFunction,Soldermask,Top*%
%TF.FilePolarity,Negative*%
%FSLAX46Y46*%
G04 Gerber Fmt 4.6, Leading zero omitted, Abs format (unit mm)*
G04 Created by KiCad (PCBNEW 8.0.1) date 2024-04-06 15:46:49*
%MOMM*%
%LPD*%
G01*
G04 APERTURE LIST*
G04 Aperture macros list*
%AMRoundRect*
0 Rectangle with rounded corners*
0 $1 Rounding radius*
0 $2 $3 $4 $5 $6 $7 $8 $9 X,Y pos of 4 corners*
0 Add a 4 corners polygon primitive as box body*
4,1,4,$2,$3,$4,$5,$6,$7,$8,$9,$2,$3,0*
0 Add four circle primitives for the rounded corners*
1,1,$1+$1,$2,$3*
1,1,$1+$1,$4,$5*
1,1,$1+$1,$6,$7*
1,1,$1+$1,$8,$9*
0 Add four rect primitives between the rounded corners*
20,1,$1+$1,$2,$3,$4,$5,0*
20,1,$1+$1,$4,$5,$6,$7,0*
20,1,$1+$1,$6,$7,$8,$9,0*
20,1,$1+$1,$8,$9,$2,$3,0*%
G04 Aperture macros list end*
%ADD10C,0.010000*%
%ADD11R,1.500000X1.000000*%
%ADD12C,2.000000*%
%ADD13R,0.400000X0.800000*%
%ADD14R,0.800000X0.400000*%
%ADD15R,1.450000X1.450000*%
%ADD16R,0.700000X0.700000*%
%ADD17RoundRect,0.225000X0.225000X0.250000X-0.225000X0.250000X-0.225000X-0.250000X0.225000X-0.250000X0*%
%ADD18RoundRect,0.200000X-0.275000X0.200000X-0.275000X-0.200000X0.275000X-0.200000X0.275000X0.200000X0*%
%ADD19R,1.050000X0.650000*%
%ADD20RoundRect,0.200000X0.275000X-0.200000X0.275000X0.200000X-0.275000X0.200000X-0.275000X-0.200000X0*%
%ADD21R,0.850000X0.850000*%
%ADD22O,0.850000X0.850000*%
%ADD23RoundRect,0.225000X-0.225000X-0.250000X0.225000X-0.250000X0.225000X0.250000X-0.225000X0.250000X0*%
%ADD24RoundRect,0.218750X0.256250X-0.218750X0.256250X0.218750X-0.256250X0.218750X-0.256250X-0.218750X0*%
%ADD25C,1.000000*%
%ADD26R,2.500000X1.200000*%
%ADD27C,0.650000*%
%ADD28RoundRect,0.102000X-0.300000X-0.575000X0.300000X-0.575000X0.300000X0.575000X-0.300000X0.575000X0*%
%ADD29RoundRect,0.102000X-0.150000X-0.575000X0.150000X-0.575000X0.150000X0.575000X-0.150000X0.575000X0*%
%ADD30O,1.204000X2.304000*%
%ADD31RoundRect,0.301000X-0.301000X-0.701000X0.301000X-0.701000X0.301000X0.701000X-0.301000X0.701000X0*%
%ADD32RoundRect,0.225000X0.250000X-0.225000X0.250000X0.225000X-0.250000X0.225000X-0.250000X-0.225000X0*%
%ADD33R,2.450000X1.000000*%
%ADD34R,1.000000X2.450000*%
%ADD35RoundRect,0.218750X-0.256250X0.218750X-0.256250X-0.218750X0.256250X-0.218750X0.256250X0.218750X0*%
%ADD36RoundRect,0.375000X0.375000X-0.625000X0.375000X0.625000X-0.375000X0.625000X-0.375000X-0.625000X0*%
%ADD37RoundRect,0.500000X1.400000X-0.500000X1.400000X0.500000X-1.400000X0.500000X-1.400000X-0.500000X0*%
G04 APERTURE END LIST*
D10*
%TO.C,U1*%
X139400000Y-61585000D02*
X139400000Y-62575000D01*
X137750000Y-62575000D01*
X137750000Y-60925000D01*
X138740000Y-60925000D01*
X139400000Y-61585000D01*
G36*
X139400000Y-61585000D02*
G01*
X139400000Y-62575000D01*
X137750000Y-62575000D01*
X137750000Y-60925000D01*
X138740000Y-60925000D01*
X139400000Y-61585000D01*
G37*
%TD*%
D11*
%TO.C,D5*%
X136700000Y-76100000D03*
X136700000Y-72900000D03*
X131800000Y-72900000D03*
X131800000Y-76100000D03*
%TD*%
D12*
%TO.C,FID2*%
X148000000Y-50000000D03*
%TD*%
D13*
%TO.C,U1*%
X140600000Y-57825000D03*
X139800000Y-57825000D03*
X139000000Y-57825000D03*
X138200000Y-57825000D03*
X137400000Y-57825000D03*
X136600000Y-57825000D03*
X135800000Y-57825000D03*
X135000000Y-57825000D03*
X134200000Y-57825000D03*
X133400000Y-57825000D03*
X132600000Y-57825000D03*
D14*
X131700000Y-58925000D03*
X131700000Y-59725000D03*
X131700000Y-60525000D03*
X131700000Y-61325000D03*
X131700000Y-62125000D03*
X131700000Y-62925000D03*
X131700000Y-63725000D03*
X131700000Y-64525000D03*
X131700000Y-65325000D03*
X131700000Y-66125000D03*
X131700000Y-66925000D03*
X131700000Y-67725000D03*
X131700000Y-68525000D03*
D13*
X132600000Y-69625000D03*
X133400000Y-69625000D03*
X134200000Y-69625000D03*
X135000000Y-69625000D03*
X135800000Y-69625000D03*
X136600000Y-69625000D03*
X137400000Y-69625000D03*
X138200000Y-69625000D03*
X139000000Y-69625000D03*
X139800000Y-69625000D03*
X140600000Y-69625000D03*
D14*
X141500000Y-68525000D03*
X141500000Y-67725000D03*
X141500000Y-66925000D03*
X141500000Y-66125000D03*
X141500000Y-65325000D03*
X141500000Y-64525000D03*
X141500000Y-63725000D03*
X141500000Y-62925000D03*
X141500000Y-62125000D03*
X141500000Y-61325000D03*
X141500000Y-60525000D03*
X141500000Y-59725000D03*
X141500000Y-58925000D03*
D15*
X138575000Y-63725000D03*
X138575000Y-65700000D03*
X136600000Y-65700000D03*
X134625000Y-65700000D03*
X134625000Y-63725000D03*
X134625000Y-61750000D03*
X136600000Y-61750000D03*
X136600000Y-63725000D03*
D16*
X141550000Y-69675000D03*
X131650000Y-69675000D03*
X131650000Y-57775000D03*
X141550000Y-57775000D03*
%TD*%
D17*
%TO.C,C6*%
X110775000Y-90050000D03*
X109225000Y-90050000D03*
%TD*%
D18*
%TO.C,R8*%
X137400000Y-53825000D03*
X137400000Y-55475000D03*
%TD*%
D11*
%TO.C,D6*%
X136700000Y-81800000D03*
X136700000Y-78600000D03*
X131800000Y-78600000D03*
X131800000Y-81800000D03*
%TD*%
D19*
%TO.C,SW2*%
X142950000Y-71800000D03*
X147100000Y-71800000D03*
X142950000Y-73950000D03*
X147100000Y-73950000D03*
%TD*%
D18*
%TO.C,R7*%
X115000000Y-72050000D03*
X115000000Y-73700000D03*
%TD*%
D20*
%TO.C,R11*%
X116900000Y-85650000D03*
X116900000Y-84000000D03*
%TD*%
D21*
%TO.C,J2*%
X103000000Y-61000000D03*
D22*
X103000000Y-60000000D03*
X103000000Y-59000000D03*
X103000000Y-58000000D03*
X103000000Y-57000000D03*
X103000000Y-56000000D03*
%TD*%
D18*
%TO.C,R6*%
X116600000Y-72050000D03*
X116600000Y-73700000D03*
%TD*%
D23*
%TO.C,C2*%
X139200000Y-53750000D03*
X140750000Y-53750000D03*
%TD*%
D24*
%TO.C,D1*%
X119800000Y-77300000D03*
X119800000Y-75725000D03*
%TD*%
D25*
%TO.C,S1*%
X104000000Y-64600000D03*
X104000000Y-71400000D03*
D26*
X106750000Y-65500000D03*
X106750000Y-68000000D03*
X106750000Y-70500000D03*
%TD*%
D20*
%TO.C,R2*%
X124500000Y-84325000D03*
X124500000Y-82675000D03*
%TD*%
D24*
%TO.C,D4*%
X115000000Y-77287500D03*
X115000000Y-75712500D03*
%TD*%
D20*
%TO.C,R12*%
X106825000Y-85700000D03*
X106825000Y-84050000D03*
%TD*%
D27*
%TO.C,J1*%
X122790000Y-88420000D03*
X128570000Y-88420000D03*
D28*
X122480000Y-87345000D03*
X123280000Y-87345000D03*
D29*
X124430000Y-87345000D03*
X125430000Y-87345000D03*
X125930000Y-87345000D03*
X126930000Y-87345000D03*
D28*
X128880000Y-87345000D03*
X128080000Y-87345000D03*
D29*
X127430000Y-87345000D03*
X126430000Y-87345000D03*
X124930000Y-87345000D03*
X123930000Y-87345000D03*
D30*
X121360000Y-87920000D03*
X130000000Y-87920000D03*
D31*
X121360000Y-92100000D03*
X130000000Y-92100000D03*
%TD*%
D24*
%TO.C,D3*%
X116600000Y-77287500D03*
X116600000Y-75712500D03*
%TD*%
D32*
%TO.C,C4*%
X129700000Y-81100000D03*
X129700000Y-79550000D03*
%TD*%
D24*
%TO.C,D2*%
X118200000Y-77287500D03*
X118200000Y-75712500D03*
%TD*%
D12*
%TO.C,FID1*%
X102000000Y-50000000D03*
%TD*%
%TO.C,TP1*%
X129100000Y-62200000D03*
%TD*%
D20*
%TO.C,R3*%
X126200000Y-84350000D03*
X126200000Y-82700000D03*
%TD*%
D33*
%TO.C,DWM1*%
X110200000Y-57201200D03*
X110200000Y-58601200D03*
X110200000Y-60001200D03*
X110200000Y-61401200D03*
X110200000Y-62801200D03*
X110200000Y-64201200D03*
X110200000Y-65601200D03*
X110200000Y-67001200D03*
D34*
X111600000Y-69296200D03*
X113000000Y-69296200D03*
X114400000Y-69296200D03*
X115800000Y-69296200D03*
X117200000Y-69296200D03*
X118600000Y-69296200D03*
X120000000Y-69296200D03*
X121400000Y-69296200D03*
D33*
X122800000Y-67000000D03*
X122800000Y-65600000D03*
X122800000Y-64201200D03*
X122800000Y-62801200D03*
X122800000Y-61401200D03*
X122800000Y-60001200D03*
X122800000Y-58601200D03*
X122800000Y-57201200D03*
%TD*%
D12*
%TO.C,FID3*%
X102000000Y-90000000D03*
%TD*%
D18*
%TO.C,R5*%
X118200000Y-72050000D03*
X118200000Y-73700000D03*
%TD*%
D35*
%TO.C,D8*%
X106825000Y-80812500D03*
X106825000Y-82387500D03*
%TD*%
D19*
%TO.C,SW1*%
X142925000Y-53625000D03*
X147075000Y-53625000D03*
X142925000Y-55775000D03*
X147075000Y-55775000D03*
%TD*%
D21*
%TO.C,J3*%
X119000000Y-92500000D03*
D22*
X119000000Y-91500000D03*
X119000000Y-90500000D03*
X119000000Y-89500000D03*
X119000000Y-88500000D03*
X119000000Y-87500000D03*
%TD*%
D35*
%TO.C,D7*%
X116900000Y-80750000D03*
X116900000Y-82325000D03*
%TD*%
D17*
%TO.C,C5*%
X113975000Y-90050000D03*
X112425000Y-90050000D03*
%TD*%
D12*
%TO.C,FID4*%
X148000000Y-90000000D03*
%TD*%
D20*
%TO.C,R9*%
X129400000Y-68500000D03*
X129400000Y-66850000D03*
%TD*%
D23*
%TO.C,C1*%
X139200000Y-55450000D03*
X140750000Y-55450000D03*
%TD*%
D20*
%TO.C,R1*%
X127900000Y-84325000D03*
X127900000Y-82675000D03*
%TD*%
D36*
%TO.C,U3*%
X109500000Y-87650000D03*
X111800000Y-87650000D03*
D37*
X111800000Y-81350000D03*
D36*
X114100000Y-87650000D03*
%TD*%
D18*
%TO.C,R4*%
X119800000Y-72075000D03*
X119800000Y-73725000D03*
%TD*%
%TO.C,R10*%
X135700000Y-53825000D03*
X135700000Y-55475000D03*
%TD*%
D32*
%TO.C,C3*%
X129700000Y-75375000D03*
X129700000Y-73825000D03*
%TD*%
M02*
