<svg width="22" height="14" viewBox="0 0 22 14" fill="none" xmlns="http://www.w3.org/2000/svg">
<path fill-rule="evenodd" clip-rule="evenodd" d="M21.4999 6.99997C21.4999 6.80106 21.4209 6.6103 21.2802 6.46964C21.1396 6.32899 20.9488 6.24997 20.7499 6.24997H3.06038L7.78088 1.53097C7.85061 1.46124 7.90592 1.37846 7.94366 1.28735C7.9814 1.19624 8.00082 1.09859 8.00082 0.999971C8.00082 0.901355 7.9814 0.803705 7.94366 0.712596C7.90592 0.621487 7.85061 0.538703 7.78088 0.468971C7.71114 0.399239 7.62836 0.343925 7.53725 0.306186C7.44614 0.268447 7.34849 0.249023 7.24988 0.249023C7.15126 0.249023 7.05361 0.268447 6.9625 0.306186C6.87139 0.343925 6.78861 0.399239 6.71887 0.468971L0.718876 6.46897C0.649031 6.53864 0.593617 6.62141 0.555807 6.71252C0.517997 6.80364 0.498535 6.90132 0.498535 6.99997C0.498535 7.09862 0.517997 7.1963 0.555807 7.28742C0.593617 7.37854 0.649031 7.4613 0.718876 7.53097L6.71887 13.531C6.78861 13.6007 6.87139 13.656 6.9625 13.6938C7.05361 13.7315 7.15126 13.7509 7.24988 13.7509C7.34849 13.7509 7.44614 13.7315 7.53725 13.6938C7.62836 13.656 7.71114 13.6007 7.78088 13.531C7.85061 13.4612 7.90592 13.3785 7.94366 13.2873C7.9814 13.1962 8.00082 13.0986 8.00082 13C8.00082 12.9014 7.9814 12.8037 7.94366 12.7126C7.90592 12.6215 7.85061 12.5387 7.78088 12.469L3.06038 7.74997H20.7499C20.9488 7.74997 21.1396 7.67096 21.2802 7.5303C21.4209 7.38965 21.4999 7.19888 21.4999 6.99997Z" fill="white"/>
</svg>
